<svg width="216" height="53" viewBox="0 0 216 53" fill="none" xmlns="http://www.w3.org/2000/svg">
<path fill-rule="evenodd" clip-rule="evenodd" d="M0.169645 0.842189C0.282714 1.94256 0.823369 3.94226 1.32786 5.12631C2.45707 7.77644 4.38478 9.73248 6.84532 10.725C8.9147 11.5598 10.4158 11.723 16.0382 11.7244C22.6996 11.726 24.2298 11.9666 25.5583 13.2213C26.5184 14.1282 26.8873 14.9841 26.8873 16.3048C26.8873 17.5161 26.5041 18.5201 25.8092 19.1294C24.8558 19.9654 21.5048 20.6223 15.1647 21.216C10.4751 21.6552 3.62919 22.0954 1.45186 22.0977L0.152239 22.0991L0.0592743 28.6008C0.00813679 32.1768 -0.0142612 36.3356 0.00948608 37.8426L0.0527978 40.5826L1.33461 39.4801C2.03961 38.8736 3.34503 37.7659 4.23555 37.0183C5.12607 36.2709 6.34042 35.2233 6.9341 34.6905C9.31651 32.5524 13.4949 29.1667 14.8948 28.2402C15.7111 27.6998 17.5934 26.5721 19.0776 25.7339C20.5618 24.8959 24.1745 22.808 27.1058 21.0942C30.0371 19.3805 33.8513 17.1621 35.5818 16.1645L38.7283 14.3509L38.6701 13.475C38.5554 11.7456 37.2669 8.63372 35.9639 6.93964C33.7835 4.10476 30.9121 2.02867 27.6739 0.945813C26.941 0.700702 25.7114 0.448988 24.4072 0.277181C22.4463 0.018865 21.6222 0.00161701 11.1994 0.000808508L0.0830216 0L0.169645 0.842189ZM92.9504 0.22665C90.6992 0.459229 88.5616 1.30654 86.9249 2.6151C86.3939 3.0397 85.3617 4.09331 84.6312 4.95639C83.9007 5.8196 82.7218 7.16467 82.0114 7.94542C81.301 8.7263 79.3582 11.0024 77.694 13.0034C76.0298 15.0044 74.2695 17.0661 73.7824 17.5849C72.8718 18.5546 71.3798 20.3357 68.9565 23.3455C68.1958 24.2904 67.5233 25.0636 67.4623 25.0636C67.2092 25.0636 65.0467 22.6216 62.3911 19.3367C59.0447 15.1975 57.835 13.8793 57.3829 13.8793C56.8449 13.8793 55.3419 14.5131 52.9461 15.7507C50.214 17.1619 44.5364 20.388 42.328 21.784L40.7519 22.7803L40.6414 23.5514C40.5807 23.9755 40.5312 28.5367 40.5313 33.6876C40.5315 42.9916 40.5335 43.0597 40.8349 44.1186C41.4305 46.2111 42.0923 47.2932 43.9624 49.232C45.5736 50.9023 46.7356 51.6373 48.6942 52.2244C49.4423 52.4487 51.5602 52.8221 52.0843 52.8221H52.4708L52.5396 25.5659L54.0355 27.3023C58.2021 32.1385 64.8794 40.2832 65.7915 41.6418C66.7827 43.1182 66.7753 43.1147 67.5452 42.4641C68.5768 41.5927 70.7437 39.1273 75.615 33.2833C81.8579 25.7938 82.021 25.6026 82.1644 25.6026C82.2425 25.6026 82.2911 30.8259 82.2911 39.2322V52.8616L83.2734 52.7787C84.6714 52.6607 86.4516 52.1208 88.093 51.317C89.3409 50.7057 89.6638 50.4692 90.8038 49.3309C91.9406 48.1955 92.1825 47.8667 92.7958 46.6236C93.6131 44.9663 93.975 43.6447 94.1546 41.6602C94.5574 37.2085 94.8062 5.3764 94.4636 2.1304C94.3721 1.26396 94.2611 0.460442 94.2165 0.344961C94.1369 0.137445 93.9672 0.12168 92.9504 0.22665ZM40.5985 13.6134L41.1045 13.3982C41.3828 13.2798 43.2195 12.5155 45.186 11.6996C52.0301 8.8601 52.8769 8.47701 52.8769 8.21977C52.8769 7.51934 50.0627 4.28344 48.301 2.95804C46.3722 1.50705 43.7149 0.43713 41.7117 0.30494L40.5985 0.231501V13.6134ZM0.255189 17.787H10.4359C18.0416 17.787 20.706 17.7463 20.9703 17.626C21.3781 17.4405 21.7087 16.8792 21.7087 16.3722C21.7087 15.9005 21.3689 15.2734 20.9989 15.0624C20.7624 14.9274 18.4754 14.8817 10.4759 14.8522L0.255189 14.8145V17.787ZM8.59357 43.4295C5.73041 46.1595 2.51684 49.7793 0.669821 52.3552L0.207425 53L4.2454 52.9063C6.46631 52.8549 8.69315 52.7759 9.19414 52.7308L10.1049 52.6487L10.1029 47.5811C10.1017 44.7941 10.0543 42.4407 9.99749 42.3515C9.92774 42.2419 9.47195 42.592 8.59357 43.4295Z" fill="#1B1B1B"/>
<path d="M109.095 0.232087H103.652V13.7705H106.562V10.0378H109.095C112.453 10.0378 114.555 8.16175 114.555 5.14461C114.555 2.10813 112.453 0.232087 109.095 0.232087ZM108.933 7.48483H106.562V2.78505H108.933C110.711 2.78505 111.609 3.65538 111.609 5.14461C111.609 6.6145 110.711 7.48483 108.933 7.48483Z" fill="#1B1B1B"/>
<path d="M127.768 13.7705L124.948 9.4189C126.582 8.66461 127.534 7.17538 127.534 5.14461C127.534 2.10813 125.433 0.232087 122.074 0.232087H116.632V13.7705H119.542V9.99912H122.218L124.643 13.7705H127.768ZM124.589 5.14461C124.589 6.6145 123.691 7.50417 121.913 7.50417H119.542V2.78505H121.913C123.691 2.78505 124.589 3.65538 124.589 5.14461Z" fill="#1B1B1B"/>
<path d="M135.928 14.0026C139.88 14.0026 142.807 11.0435 142.807 7.00132C142.807 2.95912 139.88 0 135.928 0C131.959 0 129.049 2.97846 129.049 7.00132C129.049 11.0242 131.959 14.0026 135.928 14.0026ZM135.928 11.3336C133.683 11.3336 131.995 9.57362 131.995 7.00132C131.995 4.42901 133.683 2.66901 135.928 2.66901C138.174 2.66901 139.862 4.42901 139.862 7.00132C139.862 9.57362 138.174 11.3336 135.928 11.3336Z" fill="#1B1B1B"/>
<path d="M117.824 33.2692L117.788 19.7308H115.399L110.765 28.144L106.059 19.7308H103.652V33.2692H106.382V25.3202L110.064 31.838H111.376L115.076 25.1462L115.094 33.2692H117.824Z" fill="#1B1B1B"/>
<path d="M130.2 33.2692H133.254L127.632 19.7308H124.758L119.154 33.2692H122.136L123.249 30.3681H129.087L130.2 33.2692ZM124.183 27.9892L126.177 22.8059L128.171 27.9892H124.183Z" fill="#1B1B1B"/>
<path d="M145.694 33.2692L142.874 28.9176C144.508 28.1633 145.46 26.6741 145.46 24.6433C145.46 21.6068 143.359 19.7308 140 19.7308H134.558V33.2692H137.468V29.4978H140.144L142.569 33.2692H145.694ZM142.515 24.6433C142.515 26.1132 141.617 27.0029 139.838 27.0029H137.468V22.2837H139.838C141.617 22.2837 142.515 23.1541 142.515 24.6433Z" fill="#1B1B1B"/>
<path d="M156.369 33.2692H159.763L154.249 25.7651L159.458 19.7308H156.225L150.657 26.0552V19.7308H147.766V33.2692H150.657V29.8459L152.346 27.9505L156.369 33.2692Z" fill="#1B1B1B"/>
<path d="M163.953 30.7549V27.6218H169.79V25.1848H163.953V22.2451H170.562V19.7308H161.061V33.2692H170.796V30.7549H163.953Z" fill="#1B1B1B"/>
<path d="M175.715 33.2692H178.625V22.2837H182.648V19.7308H171.692V22.2837H175.715V33.2692Z" fill="#1B1B1B"/>
<path d="M184.214 33.2692H187.123V19.7308H184.214V33.2692Z" fill="#1B1B1B"/>
<path d="M198.764 19.7308V27.9505L192.514 19.7308H190.107V33.2692H192.981V25.0494L199.249 33.2692H201.638V19.7308H198.764Z" fill="#1B1B1B"/>
<path d="M213.108 30.2521C212.372 30.6776 211.635 30.8323 210.845 30.8323C208.438 30.8323 206.768 29.0336 206.768 26.5C206.768 23.9277 208.438 22.1677 210.881 22.1677C212.156 22.1677 213.216 22.6512 214.132 23.6956L216 21.8389C214.779 20.311 212.947 19.4987 210.737 19.4987C206.732 19.4987 203.822 22.4191 203.822 26.5C203.822 30.5809 206.732 33.5013 210.684 33.5013C212.48 33.5013 214.384 32.9018 215.767 31.78V26.2872H213.108V30.2521Z" fill="#1B1B1B"/>
<path d="M113.046 51.7679H116.099L110.478 38.2295H107.604L102 51.7679H104.982L106.095 48.8668H111.932L113.046 51.7679ZM107.029 46.4879L109.023 41.3046L111.016 46.4879H107.029Z" fill="#1B1B1B"/>
<path d="M125.724 48.7508C124.988 49.1763 124.251 49.331 123.461 49.331C121.054 49.331 119.384 47.5323 119.384 44.9987C119.384 42.4264 121.054 40.6664 123.497 40.6664C124.772 40.6664 125.832 41.1499 126.748 42.1943L128.616 40.3376C127.394 38.8097 125.562 37.9974 123.353 37.9974C119.348 37.9974 116.438 40.9178 116.438 44.9987C116.438 49.0796 119.348 52 123.299 52C125.095 52 126.999 51.4004 128.382 50.2787V44.7859H125.724V48.7508Z" fill="#1B1B1B"/>
<path d="M133.977 49.2536V46.1204H139.814V43.6835H133.977V40.7437H140.586V38.2295H131.085V51.7679H140.82V49.2536H133.977Z" fill="#1B1B1B"/>
<path d="M151.792 38.2295V46.4492L145.542 38.2295H143.135V51.7679H146.009V43.5481L152.277 51.7679H154.666V38.2295H151.792Z" fill="#1B1B1B"/>
<path d="M163.658 52C165.849 52 167.663 51.149 168.848 49.5824L166.98 47.7257C166.136 48.7894 165.076 49.331 163.819 49.331C161.466 49.331 159.796 47.5517 159.796 44.9987C159.796 42.4457 161.466 40.6664 163.819 40.6664C165.076 40.6664 166.136 41.2079 166.98 42.2523L168.848 40.3956C167.663 38.8484 165.849 37.9974 163.675 37.9974C159.76 37.9974 156.85 40.9178 156.85 44.9987C156.85 49.0796 159.76 52 163.658 52Z" fill="#1B1B1B"/>
<path d="M181.611 38.2295H178.755L175.396 44.2444L172.037 38.2295H168.948L173.816 46.9327V51.7679H176.725V46.9714L181.611 38.2295Z" fill="#1B1B1B"/>
</svg>
