<svg width="133" height="132" viewBox="0 0 133 132" fill="none" xmlns="http://www.w3.org/2000/svg">
<path fill-rule="evenodd" clip-rule="evenodd" d="M2.06356 0.451413C1.57337 0.699171 0.930084 1.22949 0.634044 1.62962C0.109542 2.33886 0.0936869 2.68201 0.0167529 15.0359C-0.0344498 23.2258 0.0326075 28.0379 0.205709 28.6278C0.353339 29.1298 0.834956 29.8839 1.27603 30.3036L2.07786 31.0662L8.23439 31.1951L14.3909 31.324L21.0187 35.1551C24.664 37.2622 27.9095 39.0865 28.2313 39.2092C28.9203 39.4722 30.0496 39.1097 30.5411 38.4683C30.7776 38.1591 30.8813 37.0044 30.887 34.6111L30.8954 31.1951H33.326C35.4204 31.1951 35.8789 31.1141 36.6399 30.6099C38.4866 29.3863 38.4476 29.731 38.3712 15.3396C38.3028 2.47009 38.3018 2.44766 37.7232 1.64277C36.5056 -0.0502911 37.0711 -0.000275409 19.1601 0.000240217C4.24552 0.00049803 2.88384 0.0363341 2.06356 0.451413ZM96.6716 0.451413C96.1814 0.699171 95.5381 1.22949 95.2421 1.62962C94.717 2.33964 94.702 2.6735 94.6318 15.2878C94.5816 24.2589 94.6471 28.428 94.8454 28.9029C95.0027 29.2796 95.4809 29.9202 95.908 30.327C96.6347 31.0185 96.8556 31.0744 99.3331 31.1951L101.981 31.324L102.111 34.8607C102.253 38.7168 102.381 39.0532 103.804 39.3227C104.464 39.4477 105.66 38.8498 111.788 35.3325L118.995 31.1951H124.839H130.683L131.57 30.423C132.058 29.9981 132.591 29.3283 132.756 28.9343C132.971 28.419 133.035 24.5969 132.983 15.2878C132.913 2.6735 132.898 2.33964 132.373 1.62962C131.127 -0.0533848 131.742 0.00049803 113.807 0.00049803C98.8548 0.00049803 97.4919 0.0363341 96.6716 0.451413ZM34.2742 15.5758V27.027L31.1321 27.1129C28.0587 27.1972 27.9765 27.2147 27.3634 27.9224C26.7968 28.5762 26.7368 28.8792 26.7368 31.0806C26.7368 32.4197 26.6616 33.5154 26.5699 33.5154C26.4781 33.5154 23.9341 32.0941 20.9168 30.3572L15.4306 27.199L9.77749 27.1206L4.1244 27.0422V15.5835V4.12473H19.1993H34.2742V15.5758ZM128.882 15.5794V27.034L123.229 27.1165L117.576 27.199L111.946 30.4521L106.315 33.7054L106.228 31.0389C106.105 27.3207 106.004 27.2299 101.844 27.1075L98.7324 27.0157V15.5703V4.12473H113.807H128.882V15.5794ZM20.4445 5.92195C19.0454 6.41437 18.8752 6.42159 17.4556 6.04879C11.2234 4.41168 5.93365 10.7276 8.79139 16.3941C9.80972 18.4132 11.8118 20.7194 15.213 23.7912C18.1014 26.3995 18.8289 26.8045 19.8205 26.3565C20.9077 25.8651 27.4926 19.312 28.6497 17.5699C30.1203 15.3556 30.472 14.2338 30.3126 12.2654C29.9228 7.44872 25.0349 4.30649 20.4445 5.92195ZM106.908 7.85142L106.27 8.48409V15.6696C106.27 22.8474 106.271 22.8559 106.871 23.4158C107.202 23.7242 107.81 23.9763 108.222 23.9763C109.052 23.9763 120.112 17.8533 120.89 16.9633C121.537 16.2224 121.474 14.9018 120.76 14.2558C119.744 13.3364 108.781 7.21849 108.15 7.21849C107.817 7.21849 107.259 7.50337 106.908 7.85142ZM24.2702 9.91006C25.858 10.568 26.6978 12.78 25.9219 14.2609C25.3244 15.4012 22.7585 18.3119 20.8822 19.9777L18.9516 21.6913L16.1219 18.9023C13.0641 15.888 12.1817 14.5383 12.1817 12.8749C12.1817 12.0097 12.3452 11.6454 13.0448 10.9514C14.2937 9.71257 15.4927 9.55479 17.1554 10.4105C18.836 11.2752 19.4239 11.26 20.9306 10.3122C22.3055 9.44728 22.9628 9.36813 24.2702 9.91006ZM114.576 15.9841C114.293 16.1968 113.244 16.8127 112.245 17.3529L110.428 18.3346V15.6227V12.9105L112.76 14.2539C114.973 15.5291 115.065 15.617 114.576 15.9841ZM61.3051 21.1669C56.111 21.746 50.5751 23.2612 47.5297 24.9367C45.0203 26.3173 42.1074 29.3203 40.9591 31.7107C39.2245 35.3214 38.6927 38.6552 38.6927 45.9201V50.7329L38.0863 50.884C37.1408 51.1194 35.03 53.1071 34.5024 54.2593C34.0897 55.1609 34.025 56.0199 34.02 60.6585C34.0138 66.6153 34.1011 67.0424 35.6845 68.7809C37.1475 70.3871 38.1227 70.7405 41.5167 70.8937L44.4706 71.0272L45.0406 72.5916C46.2471 75.9022 49.2545 80.3745 51.1968 81.7463L52.0194 82.3274L51.8398 85.3142C51.7411 86.9567 51.5789 88.3729 51.4794 88.4611C51.3798 88.5495 48.4914 89.4095 45.0606 90.3725C41.6297 91.3357 37.8496 92.5255 36.6605 93.0169C31.2826 95.2387 26.901 99.1822 24.7731 103.716L24.1428 105.059L24.1402 117.995L24.1376 130.931L24.8225 131.466L25.5074 132H66.5033H107.499L108.184 131.466L108.869 130.931L108.866 117.995L108.864 105.059L108.209 103.662C106.105 99.1807 101.709 95.2585 96.2123 92.9594C95.0968 92.4927 91.2015 91.2694 87.5562 90.2407C83.9109 89.2121 80.8575 88.2589 80.7707 88.1223C80.6839 87.9856 80.544 86.8214 80.4601 85.5351C80.3088 83.2195 80.3143 83.1911 81.0077 82.6755C83.8797 80.54 87.0553 76.0486 88.3323 72.3163L88.7734 71.0272L91.6087 70.8929C94.8738 70.7379 95.8773 70.367 97.3221 68.7809C98.9016 67.0466 98.9923 66.6083 98.9923 60.7147C98.9923 56.7485 98.9006 55.1949 98.6277 54.5473C98.1492 53.4111 96.6453 51.7784 95.5282 51.1815L94.637 50.7054L94.494 44.6241C94.3422 38.1754 94.0745 36.2286 92.9252 33.2068C91.6061 29.7397 88.986 26.7422 85.6692 24.9052C80.2288 21.8924 69.5253 20.2502 61.3051 21.1669ZM74.1707 25.6467C82.1529 27.0652 86.2598 29.2396 88.4066 33.1844C89.8476 35.8321 90.2031 37.9356 90.3482 44.6658L90.4799 50.7889H89.6846C88.5878 50.7889 87.5572 50.3643 86.7115 49.564C86.0082 48.8983 85.9967 48.8378 85.9967 45.7419C85.9967 41.8905 85.8956 41.7214 83.1377 40.9582C82.0656 40.6615 80.5471 40.1129 79.7635 39.7388C78.0164 38.9047 75.7258 36.6546 74.7184 34.7828C72.9998 31.5901 72.1665 31.4488 69.1742 33.8436C64.0861 37.9153 57.0131 40.0187 51.0385 39.2371C49.1006 38.9836 48.1951 39.1613 47.6241 39.9063C47.3792 40.226 47.2841 41.5233 47.2781 44.6176L47.2698 48.8878L46.5551 49.564C45.7171 50.3571 44.68 50.7889 43.6141 50.7889H42.8513V45.6664C42.8513 38.4324 43.5401 34.9558 45.5513 32.0358C46.6666 30.4165 49.0762 28.6263 51.4552 27.6491C53.582 26.7754 58.2282 25.6771 61.435 25.2899C64.2889 24.9455 71.3346 25.1427 74.1707 25.6467ZM74.1681 40.6437C76.0733 42.5311 78.5029 43.9883 80.7418 44.5862L81.8381 44.879V47.237C81.8381 50.1253 82.3317 51.3063 84.2259 52.9499L85.5276 54.0794L85.4119 61.0063C85.2804 68.8915 85.165 69.5499 83.2253 73.4708C81.126 77.7146 77.1228 81.1069 72.3513 82.6853C70.495 83.2994 69.8819 83.3731 66.6333 83.3736C63.4062 83.3741 62.7658 83.2986 60.9729 82.7043C55.4051 80.8592 50.6092 76.2291 48.8602 71.0105C47.9903 68.4143 47.7935 66.4067 47.7917 60.1014L47.7896 54.0739L49.2257 52.7052C51.1859 50.8368 51.4279 50.1536 51.4305 46.4788L51.4323 43.4412L54.3545 43.4129C55.9615 43.3971 57.9782 43.2448 58.8359 43.0741C62.6946 42.3063 67.046 40.4929 69.8822 38.4711L71.3117 37.452L71.8099 38.1264C72.0839 38.4971 73.1451 39.63 74.1681 40.6437ZM43.631 60.899V66.7733H41.5401C39.6663 66.7733 39.3825 66.7076 38.811 66.1404C38.1796 65.5144 38.1729 65.4574 38.1729 60.7549C38.1729 56.5881 38.2298 55.9325 38.634 55.4375C39.2401 54.695 40.517 54.4589 42.2369 54.7713L43.631 55.0248V60.899ZM94.1957 55.289C94.8272 55.9155 94.8337 55.9696 94.8337 60.7147C94.8337 65.4597 94.8272 65.5139 94.1957 66.1404C93.6311 66.7006 93.3322 66.7733 91.5965 66.7733H89.6355V60.8598V54.9466L90.4802 54.8425C92.8015 54.5568 93.5482 54.6465 94.1957 55.289ZM59.0958 86.3911C62.0032 87.4081 64.5475 87.7485 67.9328 87.5731C70.7555 87.427 73.817 86.7618 75.3962 85.9518C75.8209 85.7339 76.2108 85.5975 76.2625 85.6488C76.3142 85.7001 76.4314 86.9559 76.5232 88.4394L76.69 91.1366L74.7807 94.4191L72.8712 97.7018H66.5033L60.1355 97.7016L57.9363 93.9035C55.7419 90.1139 55.7372 90.1015 55.7988 88.4296C55.8914 85.9306 56.0697 85.2629 56.5864 85.4815C56.8229 85.5818 57.9522 85.9909 59.0958 86.3911ZM53.823 95.0683L55.299 97.582L47.9705 97.7109C42.5976 97.8055 40.4822 97.9303 40.0432 98.1785C39.2263 98.6408 38.4349 99.9961 38.4346 100.934C38.4344 101.359 39.1941 107.392 40.123 114.34C41.0517 121.288 41.8117 127.176 41.8117 127.424C41.8117 127.842 41.3165 127.875 35.0539 127.875H28.2962V116.909V105.944L28.9192 104.728C31.2535 100.17 35.7136 97.2715 43.9037 94.9884C46.2554 94.3327 49.0567 93.5266 50.1288 93.1968C51.201 92.8671 52.1387 92.5876 52.2126 92.576C52.2864 92.5641 53.011 93.6856 53.823 95.0683ZM87.5092 94.5199C93.8866 96.3148 97.0763 97.6492 99.6956 99.6187C101.495 100.971 103.149 102.895 104.087 104.728L104.71 105.944V116.909V127.875H97.5628C93.6316 127.875 90.417 127.846 90.4191 127.811C90.4215 127.775 91.2275 121.731 92.2104 114.378C93.523 104.561 93.9365 100.791 93.7676 100.184C93.641 99.7293 93.1784 99.0159 92.7394 98.5985L91.9414 97.8398L84.8204 97.7109L77.6993 97.582L79.1709 95.0672C80.4216 92.9305 80.7208 92.5773 81.1631 92.7165C81.4496 92.8067 84.3052 93.6183 87.5092 94.5199ZM89.6355 102.061C89.6355 102.186 88.8753 107.974 87.9461 114.925C87.0169 121.876 86.2566 127.634 86.2566 127.721C86.2566 127.807 77.2221 127.848 66.1797 127.812L46.1031 127.746L44.4966 115.629C43.6131 108.964 42.8303 103.135 42.7572 102.674L42.6241 101.836H66.1298C79.3934 101.836 89.6355 101.934 89.6355 102.061ZM63.3532 109.002C59.2427 111.132 59.2421 117.282 63.3521 119.348C64.7356 120.043 66.2296 120.216 67.6914 119.851C69.4785 119.405 71.4796 117.42 71.9298 115.647C73.2127 110.593 68.0308 106.578 63.3532 109.002ZM67.524 113.086C68.1821 113.915 68.2055 114.502 67.6079 115.203C66.5018 116.5 64.424 115.811 64.424 114.148C64.424 112.427 66.4511 111.732 67.524 113.086Z" fill="url(#paint0_linear_65_845)"/>
<defs>
<linearGradient id="paint0_linear_65_845" x1="4.95464e-07" y1="66" x2="133" y2="66" gradientUnits="userSpaceOnUse">
<stop stop-color="#874FFF"/>
<stop offset="0.515625" stop-color="#FF6068"/>
<stop offset="1" stop-color="#FEB14B"/>
</linearGradient>
</defs>
</svg>
