<svg width="26" height="45" viewBox="0 0 26 45" fill="none" xmlns="http://www.w3.org/2000/svg">
<path fill-rule="evenodd" clip-rule="evenodd" d="M15.811 0.0526094C15.2124 0.134534 13.8189 0.516172 13.1639 0.77752C9.7703 2.13187 7.56143 4.84021 6.67928 8.72857C6.52275 9.41882 6.4877 9.95101 6.44092 12.3535L6.38605 15.1694L3.91971 15.2134C1.83654 15.2505 1.41162 15.2802 1.18455 15.4046C0.773284 15.6298 0.200478 16.2995 0.0952183 16.678C0.0347931 16.8956 0.000792461 18.4238 0.00052821 20.9378L0 24.8583L0.228136 25.3157C0.353655 25.5673 0.601345 25.893 0.778657 26.0395C1.34336 26.5061 1.72564 26.5648 4.19999 26.5648H6.43009V34.9713C6.43009 44.2448 6.39864 43.7146 6.9851 44.3258C7.14004 44.4872 7.42543 44.705 7.61922 44.8098C7.96644 44.9973 8.03303 45 12.1996 45C16.382 45 16.4314 44.9979 16.7883 44.8072C17.2082 44.5827 17.6752 44.0804 17.8479 43.6673C17.9478 43.4285 17.969 41.9055 17.969 34.9767V26.5757L20.8538 26.5483C23.6091 26.5221 23.7543 26.5124 24.092 26.3317C24.5413 26.0913 24.8941 25.7389 25.1347 25.29C25.3185 24.947 25.3248 24.8285 25.3523 21.1531C25.3716 18.5737 25.349 17.2242 25.2814 16.9138C25.1535 16.3269 24.7797 15.8171 24.2487 15.5052L23.8266 15.2573L20.9198 15.2134L18.0131 15.1694L18.0174 13.4974C18.0198 12.5779 18.0514 11.6767 18.0876 11.4948C18.2105 10.878 18.2765 10.8637 21.2679 10.8104C23.5362 10.7699 23.965 10.741 24.267 10.6079C24.7082 10.4135 25.1502 9.9951 25.3978 9.53761C25.5847 9.19223 25.5882 9.11426 25.5882 5.3578C25.5882 1.57635 25.5859 1.52557 25.3935 1.1662C25.1485 0.708796 24.7649 0.322229 24.37 0.134974C24.0987 0.00632346 23.6145 -0.00845986 20.0697 0.00324361C17.8727 0.0104593 15.9563 0.0327223 15.811 0.0526094ZM22.969 5.3358L22.9457 8.12967L20.5675 8.18098C18.6873 8.22145 18.0942 8.26316 17.7355 8.37976C16.7624 8.69619 15.935 9.49634 15.6412 10.4053C15.4073 11.1288 15.3103 12.5231 15.3415 14.7124C15.3724 16.8776 15.4037 17.0492 15.8401 17.4438C16.2493 17.8137 16.5507 17.8453 19.7087 17.8494L22.7255 17.8532V20.8891V23.925H19.5885C16.5876 23.925 16.4376 23.9328 16.1297 24.1056C15.9528 24.205 15.7095 24.4298 15.5893 24.6052L15.3706 24.924L15.3465 33.664L15.3224 42.4041H12.1996H9.07673L9.0526 33.664L9.02855 24.924L8.80984 24.6052C8.68961 24.4298 8.44632 24.205 8.26936 24.1056C7.96459 23.9345 7.80727 23.925 5.29505 23.925H2.6425V20.8891V17.8532L5.1749 17.8494C7.82005 17.8453 8.15987 17.8046 8.55898 17.4438C9.02063 17.0264 9.02388 17.0002 9.08228 13.2334C9.13531 9.81471 9.14332 9.68958 9.36345 8.87764C9.73604 7.50332 10.1533 6.62362 10.8975 5.64335C12.0004 4.19045 13.7396 3.15676 15.7341 2.76869C16.7414 2.57273 16.7688 2.57141 20.0182 2.55601L22.9922 2.54193L22.969 5.3358Z" fill="url(#paint0_linear_65_691)"/>
<defs>
<linearGradient id="paint0_linear_65_691" x1="9.53236e-08" y1="22.5" x2="25.5882" y2="22.5" gradientUnits="userSpaceOnUse">
<stop stop-color="#874FFF"/>
<stop offset="0.515625" stop-color="#FF6068"/>
<stop offset="1" stop-color="#FEB14B"/>
</linearGradient>
</defs>
</svg>
