<svg width="154" height="132" viewBox="0 0 154 132" fill="none" xmlns="http://www.w3.org/2000/svg">
<path fill-rule="evenodd" clip-rule="evenodd" d="M66.7769 0.69065C65.8815 1.16268 65.2477 1.79455 64.7741 2.68703C64.0858 3.98466 64.0813 4.06713 64.0813 15.4915V26.9902L51.5209 26.9914C39.5942 26.9923 38.9122 27.022 37.9976 27.578C36.0743 28.7467 36.1025 28.5008 36.1025 44.0247V58.0902L36.7855 59.1092C38.0475 60.9925 38.8267 61.1764 45.5792 61.1824L51.5961 61.1878L59.1173 65.5302C63.2539 67.9185 66.9321 69.8729 67.2907 69.8735C69.2886 69.8771 69.7974 68.7849 69.7974 64.4917V61.1779H72.1337C74.8832 61.1779 76.2466 60.6003 77.1681 59.0447C77.7009 58.1453 77.7812 57.383 77.8685 52.3961L77.9674 46.7633L81.1673 46.8481L84.3671 46.933L87.5365 52.3856C89.2799 55.3846 90.964 58.1175 91.2793 58.4584C91.9279 59.1602 93.4761 59.2885 94.2393 58.7038C94.5086 58.4977 96.212 55.7648 98.0246 52.6309L101.32 46.933L104.48 46.8481L107.639 46.7636L107.752 52.3961C107.85 57.261 107.943 58.1579 108.434 58.9755C109.366 60.5241 110.881 61.1779 113.536 61.1779H115.827V64.4965C115.827 68.6155 116.38 69.842 118.247 69.8651C118.697 69.8708 122.123 68.0838 126.565 65.5263L134.118 61.1779H140.024C146.565 61.1779 147.338 61.0192 148.708 59.3962L149.522 58.4329L149.52 44.1359C149.52 30.4852 149.493 29.7957 148.932 28.8792C147.771 26.9812 147.842 26.9902 134.043 26.9902H121.543V15.508C121.543 4.19668 121.533 4.00565 120.866 2.68763C120.371 1.70998 119.828 1.16778 118.847 0.674756L117.504 0H92.7956H68.087L66.7769 0.69065ZM116.729 15.8942V26.9902L113.796 26.9914C111.419 26.9923 110.681 27.1033 109.901 27.5768C107.973 28.7491 107.865 29.1689 107.757 35.8979L107.66 41.9848H103.447C99.2481 41.9848 99.2313 41.9875 98.4238 42.8095C97.9783 43.2632 96.5528 45.4899 95.2562 47.7577C93.9595 50.0258 92.8596 51.8812 92.8121 51.8812C92.7646 51.8812 91.6647 50.0258 90.368 47.7577C89.0714 45.4899 87.646 43.2629 87.2004 42.8095C86.3929 41.9875 86.3761 41.9848 82.1775 41.9848H77.9644L77.8673 35.8979C77.7596 29.1689 77.6513 28.7491 75.7228 27.5768C74.9436 27.1033 74.2048 26.9923 71.8281 26.9914L68.8948 26.9902V15.8942V4.79826H92.8121H116.729V15.8942ZM95.341 9.13589C94.7463 9.35421 93.844 9.74707 93.3359 10.0089C92.4761 10.4521 92.3205 10.4446 91.0841 9.89942C85.6625 7.50898 78.8294 10.5931 76.8059 16.3441C76.4912 17.2384 76.2818 18.691 76.2866 19.9428C76.2965 22.3944 77.1013 24.4205 79.2665 27.4452C80.8709 29.6863 90.2862 38.8365 91.6966 39.5251C92.6214 39.9767 92.7549 39.9719 93.7207 39.4534C95.4466 38.5271 105.379 28.5788 106.92 26.2336C109.487 22.3263 110.013 19.6615 108.911 16.1507C107.896 12.9172 105.047 10.08 101.871 9.13979C100.047 8.59999 96.8068 8.59789 95.341 9.13589ZM101.292 14.0784C102.878 14.796 104.3 16.7082 104.566 18.4805C104.842 20.3143 104.137 22.0225 102.004 24.6883C100.189 26.9569 93.1373 33.8877 92.6442 33.8877C92.4854 33.8877 90.8858 32.5418 89.0897 30.8969C84.2741 26.487 81.5048 22.9108 81.055 20.5207C80.7632 18.9699 81.4657 17.0794 82.8445 15.7047C85.022 13.5344 87.9426 13.2684 90.5636 15.0015C92.1891 16.0766 93.2366 16.1279 94.3684 15.188C96.5179 13.403 98.9419 13.0147 101.292 14.0784ZM73.1067 44.084V56.3796H69.8307C65.3578 56.3796 65.1869 56.5208 64.9838 60.3885L64.8334 63.2534L58.8165 59.8172L52.7995 56.3814L46.8578 56.3805L40.9161 56.3796V44.084V31.7885H57.0114H73.1067V44.084ZM144.708 44.084V56.3796H138.763H132.818L126.804 59.828L120.791 63.2765L120.64 60.4002C120.437 56.519 120.269 56.3796 115.793 56.3796H112.518V44.084V31.7885H128.613H144.708V44.084ZM49.4003 35.3956C49.0401 35.73 48.6689 36.307 48.5756 36.6776C48.4824 37.0483 48.4469 40.6173 48.4968 44.6086C48.582 51.4041 48.6259 51.9031 49.1894 52.4543C50.5284 53.7642 50.8937 53.6467 57.8808 49.6542C61.497 47.5883 64.6378 45.6585 64.8605 45.3658C65.5428 44.4697 65.3707 43.1925 64.4573 42.372C63.053 41.1106 51.7099 34.7874 50.8512 34.7874C50.4132 34.7874 49.7604 35.0609 49.4003 35.3956ZM120.791 41.4243C119.847 41.9503 119.437 42.6209 119.437 43.6393C119.437 45.2764 121.212 46.3365 122.883 45.6972C123.603 45.4219 124.292 43.9029 124.079 43.059C123.724 41.6465 121.963 40.7711 120.791 41.4243ZM127.71 41.4474C126.248 42.2832 125.948 43.7848 126.98 45.0932C127.817 46.1545 129.396 46.1791 130.431 45.1472C131.425 44.1569 131.376 43.0434 130.291 41.9617C129.354 41.0275 128.68 40.8932 127.71 41.4474ZM134.873 41.388C133.843 41.8013 133.19 43.011 133.424 44.0714C133.833 45.9302 136.311 46.5563 137.466 45.0932C138.512 43.7677 138.255 42.2403 136.864 41.5239C135.902 41.0278 135.789 41.0201 134.873 41.388ZM55.7927 42.6976L58.1029 44.01L55.9512 45.2467C54.768 45.9269 53.6762 46.4832 53.5252 46.4832C53.3741 46.4832 53.2508 45.3361 53.2508 43.9341C53.2508 42.5321 53.3028 41.385 53.3666 41.385C53.4304 41.385 54.5219 41.9758 55.7927 42.6976ZM54.4542 73.2905C53.3787 73.6776 49.0576 75.4968 44.8521 77.3327C40.6462 79.1686 37.0926 80.6708 36.9548 80.6708C36.8171 80.6708 36.7042 80.0836 36.7042 79.3657C36.7042 77.9133 35.8995 76.4831 34.5008 75.4503C33.6651 74.8331 33.404 74.8229 18.3821 74.8229H3.11292L2.05063 75.6308C-0.110049 77.2736 0.000963904 75.8326 0.000963904 102.243C0.000963904 128.511 -0.0913962 127.267 1.97632 128.839L3.11292 129.703H18.3824C33.3351 129.703 33.669 129.69 34.4825 129.085C36.2087 127.8 36.5427 127.026 36.7042 123.935L36.8547 121.055L45.1279 118.862C49.6782 117.656 53.5871 116.666 53.8146 116.663C54.0417 116.66 59.0508 119.649 64.9459 123.305C77.2839 130.957 77.9253 131.304 80.5111 131.746C84.6865 132.459 84.4733 132.547 109.81 119.648C115.022 116.994 124.634 112.114 131.17 108.802C150.583 98.9666 150.455 99.0361 151.853 97.5586C156.516 92.6305 153.103 84.0644 146.234 83.4541C144.677 83.3158 143.18 83.754 125.128 89.6352C114.442 93.1169 105.609 95.9653 105.498 95.9653C105.388 95.9653 105.297 95.7005 105.297 95.3769C105.297 94.3506 104.115 91.5913 103.381 90.9037C102.645 90.2148 64.6869 73.854 61.932 73.0386C59.6275 72.3563 56.7824 72.4523 54.4542 73.2905ZM80.3333 86.0005L100.03 94.3983L100.403 95.6819C101.108 98.1113 100.095 100.809 97.8985 102.347C95.4966 104.03 95.3964 104.008 84.2939 99.2968C78.8095 96.9696 74.0426 95.0656 73.7008 95.0656C72.7787 95.0656 71.6024 96.3845 71.6024 97.4179C71.6024 97.902 71.8392 98.5794 72.1289 98.9237C72.428 99.2791 77.1197 101.447 82.991 103.944L93.3266 108.338L95.2342 108.185C98.8083 107.899 102.602 105.478 104.119 102.514L104.693 101.392L119.06 96.7051C126.962 94.1269 136.073 91.1514 139.307 90.0928C142.541 89.0342 145.465 88.1681 145.806 88.1681C146.922 88.1681 148.44 89.4555 148.911 90.802C149.299 91.9143 149.299 92.2202 148.911 93.3412L148.469 94.6158L125.905 106.097C113.495 112.413 99.1449 119.7 94.0155 122.292L84.6893 127.004H82.4329C79.7512 127.004 81.092 127.703 67.0897 119.006C56.6425 112.518 55.4151 111.86 53.7625 111.86C53.2661 111.86 49.313 112.804 44.9775 113.959C40.642 115.113 37.0069 116.058 36.8995 116.058C36.7921 116.058 36.7042 109.337 36.7042 101.123V86.1879L45.9553 82.1703C51.0432 79.9604 55.6801 77.9745 56.2593 77.757C58.713 76.8358 59.3477 77.0532 80.3333 86.0005ZM31.8907 102.263V125.055H18.3526H4.81451V102.263V79.4712H18.3526H31.8907V102.263ZM21.0723 84.8111C20.0584 85.822 19.9399 86.5787 20.5978 87.8466C21.3448 89.2867 23.047 89.5137 24.2326 88.3315C25.6797 86.8894 24.9505 84.4701 22.9525 84.0854C22.1445 83.9297 21.8376 84.0482 21.0723 84.8111Z" fill="url(#paint0_linear_65_776)"/>
<defs>
<linearGradient id="paint0_linear_65_776" x1="5.73695e-07" y1="66" x2="154" y2="66" gradientUnits="userSpaceOnUse">
<stop stop-color="#874FFF"/>
<stop offset="0.515625" stop-color="#FF6068"/>
<stop offset="1" stop-color="#FEB14B"/>
</linearGradient>
</defs>
</svg>
