<svg width="168" height="132" viewBox="0 0 168 132" fill="none" xmlns="http://www.w3.org/2000/svg">
<path fill-rule="evenodd" clip-rule="evenodd" d="M33.2925 0.197092C30.2363 0.948891 27.2437 3.70527 26.3971 6.5481C25.9789 7.95314 25.9044 12.3107 25.8932 36.0517L25.8801 63.9062L23.8875 65.3797C21.8019 66.9219 19.1567 69.7559 17.4694 72.2559C11.3573 81.3109 10.6452 93.2723 15.6301 103.159L16.7656 105.412L8.75635 113.474C2.14131 120.132 0.680166 121.77 0.360099 122.883C-0.238344 124.965 -0.107035 126.336 0.875488 128.27C2.13869 130.755 4.21534 132.019 7.00501 132C8.27215 131.991 9.41947 131.769 10.1492 131.39C10.7811 131.062 14.7874 127.334 19.0517 123.106L26.8052 115.418L29.5564 116.739C33.7718 118.765 36.568 119.444 41.4993 119.641C51.0652 120.022 58.8322 116.863 65.3786 109.926L68.1739 106.964H77.077H85.9804V111.017V115.068L83.2682 115.21C81.0626 115.326 80.2278 115.53 78.8008 116.305C75.3404 118.184 73.8343 120.921 73.8343 125.332C73.8343 128.376 73.9689 128.786 75.171 129.406C76.5606 130.123 117.395 130.123 118.784 129.406C119.986 128.786 120.121 128.376 120.121 125.332C120.121 120.921 118.615 118.184 115.154 116.305C113.727 115.53 112.893 115.326 110.687 115.21L107.975 115.068V111.026V106.983L134.319 106.892C160.314 106.802 160.682 106.792 162.157 106.111C164.252 105.144 165.972 103.54 167.003 101.591L167.885 99.9245L167.971 54.1004C168.047 14.2383 167.994 8.05759 167.567 6.59329C166.949 4.47083 164.912 2.11916 162.673 0.940705L160.991 0.0556383L97.6341 0.0052129C62.7879 -0.0226194 33.8342 0.063824 33.2925 0.197092ZM160.478 5.72917C161.093 6.05825 161.867 6.82969 162.197 7.44332C162.768 8.50618 162.796 10.4404 162.796 48.4295V88.3004H118.194H73.5907L73.3596 85.9602C72.9141 81.4488 70.8588 75.8954 68.1837 71.9743C65.1304 67.4986 59.1733 62.752 54.2157 60.8453C49.9783 59.2153 46.8042 58.7262 41.693 58.9157C38.1779 59.0461 36.6215 59.2631 34.3545 59.9383C32.7719 60.4098 31.4056 60.7956 31.3179 60.7956C31.2303 60.7956 31.1594 49.0448 31.16 34.6823C31.161 9.20297 31.1771 8.54318 31.8136 7.50193C32.1724 6.91483 32.9472 6.14207 33.5358 5.78418C34.5935 5.14077 35.3193 5.13323 96.9828 5.13225C156.769 5.13094 159.406 5.15583 160.478 5.72917ZM128.693 13.5625C126.896 15.051 127.834 17.6355 130.352 18.1322L131.698 18.3978L125.879 23.3637L120.06 28.33L118.696 27.7399C117.945 27.4155 114.105 25.7193 110.163 23.9705C104.76 21.5736 102.79 20.8421 102.164 20.999C101.421 21.1849 90.9964 29.6745 84.7494 35.181C82.591 37.0837 82.3694 37.3932 82.3694 38.5084C82.3694 40.3365 84.0341 41.513 85.6909 40.8555C86.1209 40.6849 90.092 37.4999 94.5155 33.7776C98.939 30.0556 102.731 26.9387 102.941 26.8516C103.151 26.7642 107.037 28.3248 111.574 30.3192C116.112 32.3136 120.167 33.9456 120.585 33.9456C121.49 33.9456 121.709 33.7819 128.659 27.8945C136.052 21.6322 135.318 22.1306 135.049 23.5595C134.852 24.6096 134.947 24.8811 135.818 25.7501C137.543 27.4708 139.579 26.7822 140.148 24.2861C140.312 23.5658 140.544 21.2082 140.662 19.0471C140.945 13.9017 140.874 13.8195 135.707 13.331C130.673 12.8549 129.501 12.8935 128.693 13.5625ZM65.4633 13.6951C64.0393 14.4721 63.9861 14.7763 63.9861 22.1633V29.2472L64.8334 30.0412C65.675 30.83 65.7233 30.8349 72.6853 30.8349C79.6474 30.8349 79.6956 30.83 80.5373 30.0412C81.6282 29.0189 81.6482 27.3621 80.6053 24.4148C78.7535 19.183 74.4285 15.2128 69.0605 13.8182C66.7974 13.2301 66.3438 13.2148 65.4633 13.6951ZM55.5042 18.8808C46.8571 21.9839 42.3364 31.1574 45.2669 39.6538C46.1838 42.312 47.3594 44.1214 49.482 46.1407C52.7424 49.2429 56.2776 50.6345 60.9151 50.641C68.3945 50.6518 74.6931 45.7838 76.6401 38.4868C77.3117 35.9708 77.2405 35.0212 76.3111 34.0946C75.5082 33.2933 75.4829 33.2907 68.7795 33.2907H62.0532L61.9528 26.4482C61.8618 20.2609 61.7922 19.5396 61.2269 18.9171C60.4141 18.0219 57.9413 18.0065 55.5042 18.8808ZM70.8798 20.2288C71.5118 20.607 72.382 21.2328 72.8137 21.6191C73.6304 22.35 75.4757 25.0376 75.4757 25.4963C75.4757 25.6411 74.0723 25.7596 72.3571 25.7596H69.2385V22.6489C69.2385 20.9381 69.3494 19.5389 69.4847 19.5396C69.6199 19.5402 70.2479 19.8503 70.8798 20.2288ZM56.7641 30.4711C56.7641 39.0179 56.0813 38.3179 64.6252 38.5297L71.2324 38.6934L70.2866 40.1794C68.9962 42.2075 66.8628 43.9544 64.6686 44.7802C63.2012 45.3326 62.3125 45.4429 60.1975 45.3362C57.0205 45.1761 54.9894 44.308 52.8891 42.2131C48.81 38.1443 48.5773 31.553 52.3557 27.0962C53.2499 26.0409 55.924 24.1224 56.5001 24.1224C56.6452 24.1224 56.7641 26.9793 56.7641 30.4711ZM130.118 28.5281L129.313 29.3316V47.5196V65.7071H128.164H127.015V53.792C127.015 42.553 126.979 41.8329 126.388 41.1037C125.78 40.3539 125.591 40.3274 120.147 40.2272L114.533 40.1237L113.552 41.1024L112.571 42.0811V53.8941V65.7071H111.595H110.62L110.528 50.4901L110.437 35.273L109.69 34.5274C108.99 33.8283 108.634 33.7753 103.983 33.6758C98.5201 33.5589 97.7586 33.6577 96.8053 34.6086C96.1783 35.234 96.1569 35.7573 96.1569 50.4812V65.7071H95.0079H93.859V56.6878V47.6682L93.0531 46.8647C92.2606 46.0739 92.1562 46.0608 86.637 46.0608C81.1177 46.0608 81.0133 46.0739 80.2209 46.8647L79.4149 47.6682V56.8024V65.9367L77.8258 66.9219C76.6486 67.6518 76.0107 68.3601 75.3637 69.6548C74.5801 71.2238 74.4908 71.7648 74.4908 74.9547C74.4908 78.2896 74.5401 78.5562 75.2968 79.3106L76.1023 80.1145H111.093H146.084L146.89 79.3106C147.647 78.5562 147.696 78.2896 147.696 74.9547C147.696 71.7762 147.605 71.2206 146.834 69.6767C146.328 68.6639 145.516 67.6567 144.868 67.2386L143.765 66.5257L143.761 48.2547C143.756 28.9646 143.721 28.4852 142.265 27.9276C141.972 27.8159 139.301 27.7242 136.329 27.7242C131.028 27.7242 130.909 27.7396 130.118 28.5281ZM138.504 49.3352V65.7071H136.535H134.565V49.3352V32.9633H136.535H138.504V49.3352ZM105.27 52.364L105.356 65.7071H103.383H101.409V52.2658V38.8244L103.297 38.9226L105.184 39.0209L105.27 52.364ZM121.762 55.5565V65.7071H119.793H117.823V55.5565V45.4059H119.793H121.762V55.5565ZM88.6066 58.5035V65.7071H86.637H84.6673V58.5035V51.2998H86.637H88.6066V58.5035ZM49.0792 64.7202C56.2684 66.5212 62.6155 71.6744 65.7768 78.2778C67.3296 81.5215 67.93 83.9776 68.1506 87.9881C69.2926 108.771 46.5475 121.633 28.7144 110.289C27.8215 109.721 26.7224 109.257 26.2717 109.257C25.6385 109.257 23.4331 111.262 16.5506 118.097C11.6544 122.96 7.43144 126.938 7.16652 126.938C6.33468 126.938 5.22511 125.949 5.22511 125.208C5.22511 124.717 7.89431 121.827 13.902 115.813C19.5283 110.182 22.6571 106.811 22.8015 106.225C22.9772 105.513 22.7428 104.856 21.69 103.115C18.7963 98.3263 17.6966 94.5172 17.7051 89.3122C17.7123 85.0398 18.3285 82.0188 19.8402 78.843C23.2982 71.5801 29.0982 66.7441 36.7463 64.7471C40.1528 63.8578 45.5877 63.8457 49.0792 64.7202ZM37.3959 67.5313C34.6634 68.2445 30.5524 70.3823 28.5135 72.1502C25.8903 74.4246 24.413 76.3181 22.9388 79.2959C21.191 82.8266 20.5489 85.5093 20.5489 89.2828C20.5489 93.081 21.1864 95.7182 23.0028 99.4334C24.0953 101.667 24.9205 102.771 27.1866 105.03C30.4569 108.288 33.7665 110.153 37.9084 111.073C41.544 111.879 46.9057 111.619 50.1444 110.478C56.6232 108.197 61.568 103.34 64.056 96.8138C65.0763 94.138 65.117 93.8476 65.1124 89.2828C65.1081 84.9845 65.0257 84.3073 64.2418 82.1331C62.955 78.5637 61.4942 76.3181 58.5617 73.402C54.0341 68.8994 49.287 66.9976 42.6778 67.0385C40.766 67.0503 38.389 67.272 37.3959 67.5313ZM141.714 71.456C142.282 71.8525 142.443 72.2883 142.443 73.4206V74.8754H111.093H79.7432V73.4206C79.7432 70.7586 77.3665 70.9462 111.093 70.9462C137.616 70.9462 141.066 71.0035 141.714 71.456ZM48.8297 73.1868C54.2088 75.2255 58.1458 79.5208 59.5442 84.8761C60.6032 88.9321 59.9253 94.2369 57.9094 97.6678C56.5963 99.9029 54.3099 102.266 52.0277 103.747C44.5319 108.61 33.8607 106.45 28.8214 99.048C26.7054 95.9399 25.8151 93.0434 25.82 89.2828C25.8299 81.99 29.7714 76.1721 36.6563 73.2877C39.9522 71.9069 45.3346 71.8623 48.8297 73.1868ZM162.795 96.0771C162.794 98.5453 162.165 99.9553 160.611 100.971C159.752 101.532 157.47 101.566 115.418 101.648C73.2352 101.731 71.1369 101.707 71.2954 101.157C71.3867 100.839 71.8479 99.2736 72.3196 97.6776C72.7917 96.0817 73.1777 94.5715 73.1777 94.3214C73.1777 93.936 79.9802 93.8669 117.987 93.8669H162.796L162.795 96.0771ZM96.1569 95.0748C95.0004 95.5149 94.5155 96.2785 94.5155 97.6593C94.5155 98.7808 94.6872 99.193 95.3805 99.7369C95.8562 100.11 96.5748 100.416 96.9776 100.416C97.3804 100.416 98.099 100.11 98.5746 99.7369C99.268 99.193 99.4396 98.7808 99.4396 97.6593C99.4396 96.7421 99.242 96.0827 98.8652 95.7441C98.1912 95.1383 96.8565 94.8083 96.1569 95.0748ZM102.722 111.057V115.15H96.9776H91.2328V111.057V106.964H96.9776H102.722V111.057ZM113.745 121.776C114.401 122.491 114.868 123.342 114.868 123.823V124.646H96.9776H79.0867V123.853C79.0867 122.95 80.5002 121.122 81.5218 120.702C81.8977 120.547 89.0488 120.451 97.4135 120.487L112.621 120.553L113.745 121.776Z" fill="url(#paint0_linear_65_780)"/>
<defs>
<linearGradient id="paint0_linear_65_780" x1="6.25849e-07" y1="66" x2="168" y2="66" gradientUnits="userSpaceOnUse">
<stop stop-color="#874FFF"/>
<stop offset="0.515625" stop-color="#FF6068"/>
<stop offset="1" stop-color="#FEB14B"/>
</linearGradient>
</defs>
</svg>
