<svg width="182" height="132" viewBox="0 0 182 132" fill="none" xmlns="http://www.w3.org/2000/svg">
<path fill-rule="evenodd" clip-rule="evenodd" d="M15.2607 0.499995C12.6763 1.38889 10.1082 3.5721 8.86831 5.93437C7.473 8.59258 7.43779 9.89926 7.43779 58.9616V106.573H4.93092C2.04214 106.573 0.444493 107.218 0.115932 108.517C-0.00496718 108.996 -0.0366143 111.894 0.0462371 114.956C0.169625 119.519 0.329639 120.854 0.934134 122.366C2.61712 126.571 6.30596 129.994 10.5645 131.3C12.8103 131.989 14.0844 132 91.0004 132C167.916 132 169.19 131.989 171.436 131.3C175.694 129.994 179.382 126.573 181.068 122.366C181.679 120.838 181.832 119.531 181.956 114.742C182.155 107.04 181.873 106.573 177.035 106.573H174.563L174.56 59.1614C174.559 28.2217 174.43 10.9686 174.19 9.50019C173.988 8.26273 173.522 6.66541 173.155 5.95062C172.226 4.14316 169.891 1.91439 167.891 0.926961L166.207 0.0959845L91.5338 0.0228808C24.7093 -0.0424532 16.6926 0.0076943 15.2607 0.499995ZM166.301 6.56899C168.891 8.40364 168.685 4.13822 168.791 58.102L168.886 106.573H91.0064H13.1272L13.1428 58.6317C13.1592 8.01022 13.1261 9.093 14.7202 7.34382C16.4298 5.46714 11.4413 5.57662 91.356 5.66491L165.14 5.74649L166.301 6.56899ZM32.1545 15.8733C27.927 16.6739 23.2685 20.1133 21.3483 23.8507C17.3238 31.6862 20.4024 41.1589 28.2072 44.9539C36.3864 48.9308 45.6117 45.6719 49.4957 37.4328C51.5983 32.9735 51.1816 27.081 48.4613 22.8015C46.325 19.4401 42.751 16.9514 38.6984 16.0025C36.1542 15.4071 34.7624 15.3795 32.1545 15.8733ZM142.738 18.3567C141.044 19.3218 140.648 21.1339 141.816 22.5705C142.317 23.1868 143.082 23.4979 144.749 23.7624L147.005 24.1205L138.843 31.0643C132.79 36.214 130.539 37.935 130.132 37.7245C126.651 35.9287 108.945 28.5251 108.131 28.5251C107.533 28.5251 106.61 28.8885 106.051 29.3437C94.3529 38.8694 82.7892 48.8383 82.6086 49.5527C82.2359 51.0272 82.7476 52.1629 84.0665 52.7873C85.0024 53.2305 85.4867 53.28 86.1139 52.996C86.5655 52.7915 91.58 48.7514 97.2569 44.0181C102.934 39.2844 107.84 35.2008 108.159 34.9434C108.659 34.5401 110.253 35.1422 119.609 39.2695C125.588 41.9066 130.875 44.064 131.359 44.064C131.912 44.064 133.132 43.3139 134.644 42.0453C139.431 38.0278 149.158 29.8032 149.973 29.0845L150.807 28.3485L150.554 30.3792C150.269 32.6722 150.822 33.9559 152.344 34.5309C153.472 34.9568 155.139 34.3716 155.668 33.364C156.281 32.194 157.17 21.5619 156.733 20.6101C156.151 19.3423 155.319 19.0658 150.878 18.6657C148.552 18.4562 145.929 18.2101 145.049 18.1183C144.169 18.0265 143.129 18.1338 142.738 18.3567ZM32.3288 25.8595V29.9038L29.2281 32.5634C25.7327 35.5624 25.6296 35.5504 25.3184 32.111C24.9849 28.4202 26.7329 24.7555 29.7266 22.87C32.317 21.2384 32.3288 21.2518 32.3288 25.8595ZM40.5688 22.8375C42.2998 23.9277 43.7801 25.6204 44.3856 27.2022L44.7565 28.1719H41.3873H38.0182V24.9935C38.0182 21.3497 38.0985 21.2815 40.5688 22.8375ZM53.1145 23.7416C51.891 24.9568 51.9201 26.8102 53.1785 27.793C54.0903 28.5053 54.491 28.5251 68.0513 28.5251H81.9867L82.8145 27.6503C83.9481 26.4517 83.8748 24.7191 82.6456 23.6692L81.7153 22.8746H67.8514H53.9871L53.1145 23.7416ZM44.5716 34.617C44.434 35.0543 43.8629 36.0766 43.3025 36.8893C41.4143 39.6266 38.6991 40.9859 35.1735 40.9583C32.9198 40.9403 30.1953 40.1404 30.1953 39.4963C30.1953 39.32 31.5956 37.9756 33.3066 36.5086L36.418 33.8412L40.62 33.8316C44.8169 33.8224 44.8219 33.8235 44.5716 34.617ZM53.0146 34.6396C52.0535 35.656 52.0122 37.3477 52.9215 38.4626L53.601 39.2964H67.8461C81.6229 39.2964 82.1136 39.2731 82.7839 38.5901C83.9154 37.437 83.9022 35.6041 82.7547 34.5425C81.9988 33.8429 81.5749 33.8224 67.8824 33.8224H53.788L53.0146 34.6396ZM145.514 39.2656L144.516 40.1178L144.418 64.3398L144.319 88.5617H138.106H131.893V72.8286C131.893 56.2673 131.821 55.4664 130.277 54.878C129.098 54.4288 127.735 54.6742 126.98 55.472C126.218 56.2783 126.21 56.428 126.118 72.3352L126.026 88.3851L119.714 88.4816L113.402 88.578V68.4127V48.2475L112.363 47.2152C111.08 45.9414 109.76 45.8834 108.586 47.0499L107.713 47.9166V68.2393V88.5617H101.312H94.9118V76.1853V63.8086L94.0389 62.942C92.8843 61.7949 91.25 61.7949 90.0954 62.942L89.2225 63.8086V76.1853V88.5617H84.7542C82.2967 88.5617 79.9986 88.7146 79.6469 88.9015C79.2956 89.0883 78.8116 89.712 78.5716 90.2876C78.0297 91.5869 78.6342 93.0793 79.9772 93.7577C80.6834 94.1148 88.8121 94.1893 119.526 94.1211C157.661 94.0367 158.196 94.0261 158.879 93.3293C159.882 92.3073 159.989 90.6005 159.125 89.4238C158.69 88.8319 158.047 88.7143 154.413 88.5617L150.205 88.3851L150.114 64.1293L150.023 39.8734L149.088 39.1435C147.859 38.1829 146.737 38.221 145.514 39.2656ZM43.8409 54.7134C43.4255 55.169 42.8125 56.3761 42.479 57.3957C42.1092 58.5254 41.6668 59.2497 41.3464 59.2497C41.057 59.2497 40.0866 58.6935 39.1902 58.0137C36.8134 56.2112 35.9654 56.3337 32.7153 58.9478C31.2314 60.1414 29.7376 61.4305 29.3952 61.8122C28.5237 62.7845 28.6197 64.2702 29.6896 66.3676C30.2667 67.4984 30.4819 68.2884 30.2699 68.4989C30.0847 68.6829 29.0037 68.9587 27.8673 69.1116C24.8277 69.5213 24.3608 70.2078 23.8747 74.9821C23.3698 79.9391 23.5924 80.4328 26.8101 81.4961C28.0852 81.9178 29.1285 82.4659 29.1285 82.7149C29.1285 82.9638 28.6314 83.7849 28.0237 84.54C25.7277 87.3931 25.8088 87.9031 29.2089 91.9856C32.3071 95.705 32.8718 95.9049 35.9323 94.3648C36.9237 93.8658 37.936 93.5345 38.1824 93.6285C38.4345 93.7245 38.7396 94.7572 38.8797 95.9861C39.2556 99.2836 39.8594 99.7278 44.4596 100.09C46.4907 100.25 48.4638 100.34 48.8447 100.29C49.9822 100.141 50.7812 99.1614 51.4294 97.1194C51.7662 96.0585 52.2437 95.1131 52.4901 95.0192C52.7369 94.9253 53.559 95.336 54.3171 95.9325C55.9894 97.248 57.3574 97.8003 58.1944 97.4984C59.4632 97.041 64.6803 92.5905 65.0907 91.6155C65.4647 90.7269 65.3858 90.3484 64.4218 88.4067C63.8205 87.1957 63.4343 86.0416 63.5634 85.8421C63.6925 85.6422 64.7233 85.3657 65.8545 85.2276C69.2364 84.8144 69.6493 84.2384 70.1016 79.3009C70.5589 74.3059 70.3366 73.763 67.4564 72.8374C64.5445 71.9019 64.4655 71.7077 66.1108 69.5329C68.1569 66.8281 68.057 66.2599 64.862 62.4476C61.6842 58.6554 61.1099 58.4135 58.4085 59.7293C55.8547 60.9731 55.5151 60.9307 55.2719 59.338C54.7506 55.9216 54.5881 55.5582 53.3083 54.9515C52.542 54.5881 50.629 54.2699 48.3301 54.1233C44.7174 53.8927 44.5719 53.9118 43.8409 54.7134ZM49.2483 59.956C49.5928 59.956 49.7543 60.3749 49.7578 61.2804C49.7656 63.2729 50.437 64.2261 52.7369 65.5105C55.6776 67.1527 56.1527 67.2102 58.2083 66.1758L59.9937 65.277L60.5193 66.06C61.0028 66.7797 60.9666 66.9418 60.0687 68.0786C58.5945 69.9458 58.5059 70.6231 59.3885 73.2842C60.3713 76.2468 60.7657 76.714 62.7491 77.2657C64.1413 77.6527 64.3315 77.8251 64.3315 78.6977C64.3315 79.6124 64.1999 79.7081 62.6425 79.926C60.243 80.2618 59.6868 80.7291 58.3086 83.566L57.0861 86.0826L57.9103 88.0581C58.667 89.8712 58.688 90.0803 58.1642 90.6002C57.6408 91.1204 57.4641 91.0741 56.0154 90.0407C54.1642 88.7206 53.2941 88.6758 50.1081 89.7353C47.8387 90.49 47.7825 90.5394 47.023 92.4464C46.4043 93.9993 46.0704 94.4107 45.3589 94.4983C44.5439 94.5982 44.4482 94.4637 44.2274 92.9091C43.8917 90.5472 43.3018 89.7844 40.8657 88.5631C38.3663 87.3101 37.4176 87.2519 35.4825 88.2322C34.096 88.9347 34.0235 88.9378 33.5524 88.3205C32.9105 87.4797 32.8959 87.5407 34.1167 85.9385C35.352 84.3168 35.406 83.4766 34.4552 80.6538C33.5627 78.0045 33.355 77.7746 31.2144 77.0686C29.6267 76.5445 29.4549 76.3877 29.5527 75.5483C29.6349 74.8455 29.8834 74.5891 30.5509 74.5192C33.3319 74.2292 34.0082 73.7892 35.3217 71.416C36.7935 68.7567 36.8767 67.8911 35.853 65.8983C35.1265 64.4839 35.1251 64.4383 35.7783 63.7892C36.4319 63.1404 36.4728 63.1457 37.6768 64.0435C39.7669 65.6023 40.3131 65.6853 43.0497 64.86C45.9164 63.9951 46.6564 63.3453 47.2755 61.149C47.5944 60.0182 47.8675 59.6219 48.2327 59.7611C48.514 59.8685 48.9709 59.956 49.2483 59.956ZM43.1973 67.7325C39.4035 69.2038 36.8419 73.056 36.8611 77.2607C36.903 86.5297 48.29 90.8145 54.5383 83.9121C56.5459 81.6942 57.3691 79.3161 57.1344 76.4107C56.9364 73.964 55.7135 71.2539 54.1415 69.7784C51.3846 67.1908 46.8029 66.3344 43.1973 67.7325ZM50.1799 73.9905C51.5414 75.3427 51.8988 77.6478 51.0112 79.3521C50.1575 80.9918 47.7569 82.011 45.9107 81.5173C42.7656 80.6761 41.4716 77.2423 43.2716 74.5139C44.6921 72.3607 48.2665 72.0901 50.1799 73.9905ZM63.6203 114.82C63.6203 117.667 64.249 119.036 66.2246 120.49C67.2196 121.222 67.4372 121.229 91.0004 121.229C114.564 121.229 114.781 121.222 115.777 120.49C117.752 119.036 118.38 117.667 118.38 114.82V112.223H147.361H176.341V115.339C176.341 117.23 176.124 119.087 175.788 120.065C175.091 122.099 173.142 124.378 171.236 125.39L169.763 126.173H91.0004H12.2382L10.765 125.39C8.85836 124.378 6.91011 122.099 6.21245 120.065C5.87713 119.087 5.65987 117.23 5.65987 115.339V112.223H34.6401H63.6203V114.82ZM112.691 113.989V115.755H91.0004H69.3097V113.989V112.223H91.0004H112.691V113.989Z" fill="url(#paint0_linear_65_833)"/>
<defs>
<linearGradient id="paint0_linear_65_833" x1="6.78003e-07" y1="66" x2="182" y2="66" gradientUnits="userSpaceOnUse">
<stop stop-color="#874FFF"/>
<stop offset="0.515625" stop-color="#FF6068"/>
<stop offset="1" stop-color="#FEB14B"/>
</linearGradient>
</defs>
</svg>
