<svg width="151" height="132" viewBox="0 0 151 132" fill="none" xmlns="http://www.w3.org/2000/svg">
<path fill-rule="evenodd" clip-rule="evenodd" d="M123.148 0.187883C119.891 0.861911 116.946 3.2434 115.732 6.18356L115.03 7.88716L109.254 7.88894C103.031 7.89072 101.776 8.08555 100.377 9.26843C98.5851 10.7828 98.607 10.6073 98.607 23.4405V35.1685H94.7694H90.9318V33.7025C90.9318 31.4538 90.2626 30.8943 86.6609 30.1292C85.0426 29.7855 83.6979 29.4777 83.6728 29.4451C83.403 29.0975 82.6662 27.4064 82.6662 27.1348C82.6662 26.9405 83.3968 25.6183 84.2898 24.1967C85.1828 22.7751 85.9134 21.3458 85.9134 21.0208C85.9134 20.6955 85.6144 19.9888 85.2492 19.4503C84.2502 17.978 78.4832 12.7044 77.6437 12.4956C77.0751 12.3542 76.2707 12.7154 74.073 14.099L71.2361 15.8851L70.0305 15.3706L68.8246 14.8558L68.1554 11.8904C67.1611 7.48476 67.3377 7.59063 60.9989 7.59063C54.5118 7.59063 54.6276 7.52183 53.7083 11.9251C53.1046 14.8157 53.045 14.9427 52.0708 15.4094C51.5147 15.6757 50.8983 15.8937 50.7008 15.8937C50.5033 15.8937 49.2853 15.2137 47.9941 14.3825C44.2501 11.9728 44.2841 11.9666 40.4288 15.7801C36.7813 19.3877 35.8809 20.6154 36.1351 21.6334C36.2287 22.0074 37.0251 23.4251 37.9048 24.7841L39.5048 27.2546L39.0366 28.5232L38.5684 29.792L35.6456 30.4578C34.038 30.8237 32.4029 31.3761 32.012 31.6848C31.3077 32.2411 31.3015 32.2945 31.3015 37.6589C31.3015 44.261 31.1586 44.0196 35.635 44.9774L38.628 45.6173L39.1225 46.9188L39.6173 48.22L37.9686 50.845C36.9649 52.443 36.3199 53.8002 36.3199 54.3141C36.3199 54.9991 37.0027 55.8434 39.9361 58.7838C42.107 60.9604 43.8776 62.4897 44.3661 62.6104C45.1573 62.8061 46.5456 62.1214 50.0499 59.8066C50.9216 59.2307 50.9621 59.2301 52.1594 59.7686L53.3801 60.3175L54.0339 63.2372C55.0158 67.6212 54.7979 67.4911 61.1518 67.4911C67.6916 67.4911 67.5783 67.5563 68.4798 63.2704C68.8137 61.6834 69.087 60.3264 69.087 60.2556C69.087 60.1847 69.6659 59.9048 70.3732 59.6331L71.6597 59.1397L74.3106 60.795C75.8911 61.7815 77.2971 62.4499 77.7928 62.4499C78.4552 62.4499 79.3021 61.778 81.9616 59.1421C85.2814 55.8517 86.4212 54.2418 86.074 53.3326C85.9739 53.0705 85.1651 51.7043 84.2768 50.2967L82.6615 47.7373L83.1769 46.525L83.6923 45.3125L86.5755 44.6559C90.2812 43.812 90.9318 43.3203 90.9318 41.3656V39.8953L94.6956 39.9784L98.4594 40.0614L98.607 51.9229C98.7614 64.3202 98.7631 64.3362 100.134 65.6235C101.617 67.0163 102.617 67.1942 109.003 67.1996L114.991 67.2046L115.691 68.8302C117.08 72.0521 119.721 74.1871 123.202 74.8997C130.105 76.3133 136.627 69.7705 135.206 62.8559C134.528 59.5557 132.798 57.2158 129.847 55.6088C128.093 54.6534 127.809 54.5917 125.175 54.5917C122.702 54.5917 122.172 54.6899 120.691 55.4202C118.579 56.462 116.219 59.0003 115.518 60.9844L115 62.4499H109.165H103.33V51.1815V39.9131H109.165H115L115.518 41.3786C116.263 43.4852 118.527 45.8519 120.809 46.9084C122.395 47.6433 123.031 47.7687 125.175 47.7699C127.279 47.7711 127.955 47.6435 129.366 46.9796C132.519 45.4948 134.599 42.7104 135.272 39.0742C135.546 37.5933 135.518 36.9445 135.108 35.2652C133.185 27.4085 123.938 24.6077 118.018 30.0889C116.864 31.1573 115.138 34.0129 115.138 34.8533C115.138 35.0653 113.205 35.1685 109.231 35.1685H103.323L103.4 23.9743L103.478 12.78L109.237 12.7L114.995 12.6196L115.516 14.091C116.219 16.0817 118.576 18.6182 120.691 19.6615C122.175 20.3936 122.697 20.4894 125.175 20.4852C127.51 20.4817 128.212 20.3651 129.371 19.7901C132.478 18.2493 134.525 15.601 135.207 12.2415C135.652 10.0462 135.385 8.10126 134.336 5.90867C132.341 1.73788 127.534 -0.719816 123.148 0.187883ZM127.834 5.51606C129.954 6.60227 131.133 9.33782 130.5 11.7003C130.1 13.1916 128.634 14.9453 127.329 15.493C125.313 16.3393 122.359 15.7421 120.98 14.2093C119.624 12.7032 119.179 9.83541 120.023 8.04848C121.453 5.01995 124.768 3.945 127.834 5.51606ZM64.0456 15.1185C64.4155 16.7254 64.9073 18.1031 65.2096 18.378C65.4977 18.6399 66.4662 19.1075 67.3622 19.4171C68.2578 19.7267 69.4044 20.1949 69.91 20.4574C71.3488 21.2049 72.0945 21.0424 74.5196 19.4521C75.763 18.6366 76.872 17.9694 76.9842 17.9694C77.0961 17.9694 77.9436 18.7205 78.8673 19.6389L80.5467 21.3084L79.2088 23.4049C77.2596 26.4601 77.1752 26.8282 78.0333 28.5424C78.4286 29.3327 78.8504 30.3128 78.9709 30.7205C79.7455 33.3466 80.1003 33.6123 83.9208 34.4254L86.2086 34.9123V37.3881V39.8636L83.478 40.5059C81.9763 40.8591 80.5204 41.3528 80.2429 41.6034C79.9657 41.8537 79.5155 42.7436 79.2431 43.5807C78.9706 44.4175 78.5004 45.5977 78.1978 46.2027C77.3765 47.8458 77.5055 48.5142 79.1238 51.0045C79.9356 52.2535 80.5998 53.3676 80.5998 53.4803C80.5998 53.5927 79.8506 54.4452 78.9352 55.3749L77.2705 57.0645L75.0238 55.6589C73.7881 54.8856 72.5388 54.1644 72.2474 54.0562C71.528 53.7884 66.1731 56.0699 65.3232 57.0064C64.9578 57.4091 64.659 57.9381 64.659 58.1822C64.659 58.4265 64.4492 59.5534 64.1926 60.6864L63.7262 62.7465H61.2619H58.7976L58.1475 59.9205C57.6404 57.716 57.3348 56.9661 56.758 56.5103C56.3512 56.1891 55.8343 55.9261 55.6091 55.9261C55.3839 55.9261 54.3208 55.5258 53.2466 55.0365C52.1724 54.5472 51.0128 54.1469 50.6701 54.1469C50.3271 54.1469 49.0099 54.8141 47.7429 55.6296C46.4762 56.4451 45.3509 57.1123 45.2423 57.1123C45.1339 57.1123 44.2897 56.3611 43.366 55.4428L41.6866 53.7733L43.0091 51.7005C45.0593 48.4875 45.0472 48.6058 43.6594 45.3143C42.9914 43.7302 42.2466 42.206 42.0045 41.9272C41.7625 41.6485 40.5513 41.204 39.3111 40.9383C38.0719 40.6726 36.8256 40.3911 36.5413 40.3126C36.102 40.191 36.0247 39.7996 36.0247 37.6936V35.2172L38.8261 34.5761C41.0398 34.0696 41.7521 33.776 42.2209 33.1773C42.5474 32.7607 42.8143 32.2346 42.8143 32.0084C42.8143 31.7821 43.2128 30.7143 43.6999 29.6352C44.1869 28.5561 44.5855 27.4037 44.5855 27.0743C44.5855 26.7448 43.9213 25.4246 43.1095 24.14C42.2977 22.8557 41.6335 21.7132 41.6335 21.6014C41.6335 21.2963 44.672 18.2659 44.9781 18.2659C45.1239 18.2659 46.1911 18.8525 47.3497 19.5692C50.2019 21.3339 50.4868 21.3914 52.1688 20.5445C52.9499 20.1513 54.1204 19.6615 54.7698 19.456C56.6532 18.8602 57.2002 18.1545 57.736 15.63C57.9996 14.3887 58.2792 13.1397 58.3574 12.8542C58.4784 12.4129 58.8675 12.3352 60.9525 12.3352H63.4053L64.0456 15.1185ZM58.755 23.9366C53.2121 24.8761 48.5051 29.7028 47.5428 35.4334C46.3142 42.751 51.5356 49.9082 59.0296 51.178C67.9071 52.6823 76.093 44.5068 74.689 35.5392C73.4952 27.9156 66.2794 22.6612 58.755 23.9366ZM65.1573 29.5628C68.2859 31.0704 70.0594 33.9794 70.0594 37.6043C70.0594 39.3429 69.9097 39.9428 69.0566 41.6227C64.9961 49.6185 53.2803 47.4793 52.098 38.5265C51.7063 35.5603 53.3803 31.904 55.9403 30.1345C58.7421 28.1982 61.9163 28.0012 65.1573 29.5628ZM127.444 32.4834C129.821 33.5675 131.176 36.4576 130.497 38.9942C129.197 43.8428 122.345 44.602 120.192 40.1355C117.863 35.302 122.62 30.2831 127.444 32.4834ZM127.416 59.6657C130.897 61.3252 131.732 65.9449 129.041 68.649C126.51 71.1909 122.806 70.868 120.56 67.91C119.824 66.9419 119.714 66.5377 119.714 64.8237C119.714 63.1833 119.846 62.6504 120.501 61.6558C121.937 59.4771 125.107 58.565 127.416 59.6657ZM53.5891 73.9805C52.7773 74.2761 48.5662 76.0728 44.2312 77.973C39.8965 79.8735 36.2765 81.4283 36.187 81.4283C36.0979 81.4283 36.0247 80.8794 36.0247 80.2083C36.0247 78.5587 34.977 76.764 33.6035 76.0601C32.5697 75.5302 31.6587 75.4975 17.9254 75.4975H3.34491L2.36898 76.1647C1.8323 76.5319 1.11526 77.2086 0.775489 77.6691C0.16236 78.5 0.157341 78.6826 0.0791135 102.38L0 126.254L0.658 127.431C1.02021 128.078 1.78625 128.901 2.36071 129.259C3.40011 129.909 3.4742 129.912 18.0175 129.912C32.2263 129.912 32.6585 129.895 33.6622 129.303C35.5314 128.2 36.0247 127.09 36.0247 123.988V121.266L44.0689 119.137C48.4933 117.966 52.4009 117.009 52.7525 117.01C53.104 117.012 58.2184 120.034 64.1176 123.727C70.0169 127.421 75.4123 130.698 76.1072 131.01C78.0998 131.907 80.7335 132.225 82.9478 131.838C85.0786 131.465 85.8812 131.074 112.481 117.445C121.492 112.828 133.049 106.912 138.164 104.298C143.278 101.684 147.863 99.2252 148.351 98.8338C148.84 98.4427 149.637 97.4021 150.122 96.5217C150.898 95.1146 151.004 94.6334 151 92.5484C150.996 90.669 150.857 89.916 150.334 88.9241C149.318 86.999 148.016 85.6779 146.311 84.8396C143.404 83.4112 143.592 83.3685 122.81 90.1865C112.502 93.5685 103.92 96.3912 103.74 96.4597C103.55 96.5312 103.334 96.103 103.23 95.4497C103.131 94.8261 102.681 93.5919 102.231 92.7076L101.411 91.0995L81.9282 82.7055C71.2125 78.0887 61.79 74.1112 60.9891 73.8666C58.9915 73.2563 55.4278 73.3112 53.5891 73.9805ZM78.6373 86.4679C89.0041 90.9421 97.6795 94.7449 97.9156 94.9183C98.1518 95.0918 98.4712 95.7973 98.625 96.4858C99.337 99.6691 97.1753 102.959 93.8829 103.702C92.7296 103.962 92.2138 103.779 82.9522 99.8186C77.6059 97.5326 72.8402 95.662 72.3617 95.662C70.7416 95.662 69.6824 97.9753 70.6908 99.3112C70.9131 99.6057 75.5914 101.798 81.0872 104.184C90.6596 108.339 91.16 108.52 92.9982 108.5C95.6137 108.471 97.9144 107.548 99.8852 105.739C100.752 104.943 101.776 103.695 102.161 102.965C102.557 102.217 103.125 101.581 103.465 101.507C103.797 101.435 112.636 98.5556 123.107 95.109C133.579 91.6621 142.592 88.8417 143.137 88.8417C144.29 88.8417 145.973 90.3185 146.297 91.6137C146.589 92.7824 146.215 94.2992 145.465 94.9839C145.103 95.3154 133.647 101.292 120.009 108.265C106.371 115.239 92.4757 122.353 89.1308 124.075C83.2525 127.102 82.9868 127.206 81.1604 127.197C80.1216 127.191 78.7873 126.979 78.1954 126.724C77.6035 126.47 72.4892 123.359 66.8302 119.812C61.1712 116.265 56.0097 113.119 55.3602 112.821C53.4353 111.94 51.8294 112.138 44.176 114.196C40.233 115.256 36.7848 116.123 36.5132 116.123C36.0569 116.123 36.025 114.998 36.0958 101.397L36.1723 86.6713L42.2239 84.0289C45.5522 82.5753 49.936 80.6564 51.9655 79.7644C57.8635 77.1724 56.0345 76.7128 78.6373 86.4679ZM31.3015 102.779V125.316H18.0175H4.73352V102.779V80.2421H18.0175H31.3015V102.779ZM20.6817 85.2758C19.4353 86.5278 19.6231 88.3305 21.1015 89.3034C22.5642 90.2663 24.5119 89.0632 24.5119 87.1974C24.5119 85.1202 22.0609 83.8904 20.6817 85.2758Z" fill="url(#paint0_linear_65_841)"/>
<defs>
<linearGradient id="paint0_linear_65_841" x1="5.62519e-07" y1="66" x2="151" y2="66" gradientUnits="userSpaceOnUse">
<stop stop-color="#874FFF"/>
<stop offset="0.515625" stop-color="#FF6068"/>
<stop offset="1" stop-color="#FEB14B"/>
</linearGradient>
</defs>
</svg>
