<svg width="144" height="50" viewBox="0 0 144 50" fill="none" xmlns="http://www.w3.org/2000/svg">
<path fill-rule="evenodd" clip-rule="evenodd" d="M115.616 0.129788C111.252 0.761226 107.324 2.35587 103.975 4.85507C97.5808 9.62762 93.8611 17.08 93.8837 25.0736C93.8942 28.6437 94.9561 33.3238 96.3398 35.8953C100.097 42.8776 104.953 46.942 112.055 49.0479C123.371 52.4035 135.899 46.6365 140.983 35.7316C143.044 31.3116 143.539 28.8617 143.364 23.9482C143.199 19.3265 142.817 17.8436 140.689 13.5782C136.726 5.63328 128.844 0.520209 119.819 0.0384603C118.384 -0.0379892 116.493 0.00315002 115.616 0.129788ZM18.9495 4.70363C18.0771 6.56555 17.3632 8.19696 17.3632 8.32915C17.3632 8.46104 16.5937 10.3186 15.6532 12.4571C14.7127 14.5957 13.0714 18.3805 12.006 20.868C10.9406 23.3556 9.42996 26.8451 8.64887 28.6227C7.86806 30.4 7.04552 32.3696 6.8209 32.9996C6.59628 33.6293 5.80098 35.4576 5.05351 37.0625C4.30574 38.6673 3.39248 40.7682 3.02352 41.7312C2.65457 42.6941 1.82333 44.631 1.17643 46.0351L0 48.5883H21.7174H43.4348L43.855 47.9317C44.0863 47.5705 44.4926 46.6843 44.7581 45.9621C45.4334 44.1256 45.523 43.9152 47.3371 39.9048C48.2268 37.9376 48.9543 36.2306 48.9534 36.1115C48.952 35.9064 50.1418 33.1116 53.8896 24.5154C54.7994 22.4291 55.6433 20.3939 55.7654 19.9927C55.8874 19.5914 56.4731 18.2784 57.067 17.0747C57.6609 15.8711 58.5069 13.9672 58.9466 12.8438C59.3865 11.7204 60.3809 9.39856 61.1562 7.68458C61.9318 5.9703 62.7465 4.06636 62.9674 3.45359C63.188 2.84054 63.465 2.1096 63.5833 1.8286C63.787 1.34481 62.657 1.31797 42.167 1.31797H20.5354L18.9495 4.70363ZM70.1196 2.26629C69.9254 2.78772 69.1292 4.66891 68.3504 6.4465C67.5717 8.22381 66.7488 10.1934 66.5219 10.8234C66.2949 11.4531 65.4643 13.3471 64.6762 15.0322C63.8879 16.7173 63.079 18.6002 62.879 19.2162C62.6787 19.8325 61.8953 21.6708 61.138 23.3013C60.3806 24.9321 59.6613 26.5944 59.5398 26.9957C59.3587 27.5927 57.431 32.0886 55.4735 36.4789C55.2587 36.9604 54.4744 38.7987 53.7307 40.564C52.9867 42.3293 51.9341 44.7279 51.3912 45.8942C50.8484 47.0602 50.4041 48.1436 50.4041 48.3014C50.4041 48.485 54.9759 48.5883 63.1126 48.5883H75.8211L76.2718 47.4941C76.5199 46.8924 76.9863 45.7433 77.3085 44.9409C77.6308 44.1384 78.4261 42.3358 79.0756 40.9352C79.7252 39.5343 80.2567 38.2644 80.2567 38.1132C80.2567 37.9618 80.988 36.2192 81.8815 34.2406C82.7751 32.2619 83.6724 30.1791 83.8753 29.6122C84.0781 29.0449 84.6372 27.7319 85.1175 26.6942C85.598 25.6563 86.3368 23.9537 86.7597 22.9106C87.1825 21.8674 88.2329 19.4383 89.094 17.5124C91.3622 12.439 95.9076 1.7005 95.9076 1.41513C95.9076 1.36173 90.1849 1.31797 83.1901 1.31797H70.4729L70.1196 2.26629ZM123.201 10.0046C123.945 10.3402 125.107 11.116 125.782 11.7291C127.113 12.9368 128.658 15.848 128.658 17.1477L128.659 17.9501H125.615C122.839 17.9501 122.572 17.9025 122.572 17.4059C122.572 16.6747 121.552 15.4112 120.532 14.8805C119.466 14.3255 117.272 14.3263 116.204 14.8819C114.201 15.9251 113.566 18.354 114.886 19.9325C115.69 20.8949 116.136 21.1015 119.742 22.1834C124.851 23.7168 127.588 25.4769 128.906 28.0782C129.39 29.0338 129.528 29.829 129.528 31.6559C129.528 34.5437 128.912 36.0339 126.954 37.8775C125.013 39.7047 122.844 40.4811 119.228 40.6419C115.007 40.8298 112.782 40.1248 110.432 37.8559C109.007 36.4798 108.62 35.8901 108.222 34.4938C107.519 32.0197 107.583 31.9561 110.817 31.9561C113.56 31.9561 113.574 31.9599 114.004 32.7968C115.308 35.3345 118.462 36.3143 121.483 35.1197C123.251 34.4203 124.01 31.5955 122.834 30.0907C122.018 29.0455 120.73 28.4284 116.776 27.1885C110.115 25.0999 107.786 22.4545 108.147 17.3884C108.414 13.6482 110.71 10.9915 114.867 9.61449C116.687 9.01194 121.497 9.23691 123.201 10.0046ZM32.7243 9.9375C32.7243 10.0242 32.4811 10.5821 32.1838 11.1776C31.8867 11.7729 31.4778 12.7755 31.2752 13.4055C31.0726 14.0354 30.2767 15.8994 29.5066 17.5474C28.7362 19.1958 28.0224 20.8797 27.9201 21.2897L27.7343 22.0352H33.2889H38.8438L39.8649 19.7738C41.2312 16.7485 41.5735 15.947 42.0146 14.7404C42.2198 14.1787 42.8238 12.833 43.3565 11.7495L44.3248 9.77993H47.5095C49.261 9.77993 50.6939 9.86572 50.6939 9.97048C50.6939 10.0752 50.3026 10.995 49.8244 12.0139C49.3462 13.0328 48.9549 13.9902 48.9549 14.1414C48.9549 14.2925 48.5161 15.3756 47.9799 16.5481C45.8259 21.2567 45.5369 21.9156 45.3407 22.5645C45.2282 22.936 44.546 24.5116 43.8249 26.066C43.1035 27.6204 42.2812 29.5488 41.9975 30.3513C41.714 31.1537 40.9013 33.0576 40.1918 34.5823C39.4823 36.1069 38.6679 37.9778 38.3821 38.7403L37.8625 40.1263H34.5688C32.7394 40.1263 31.2752 40.0061 31.2752 39.8558C31.2752 39.707 31.7438 38.5582 32.3165 37.3026C33.6996 34.2703 33.97 33.6532 35.0409 31.0808C35.5421 29.8771 36.0223 28.7283 36.1081 28.5276C36.2301 28.2428 35.0122 28.1628 30.5543 28.1628C25.1223 28.1628 24.8374 28.1908 24.6957 28.7362C24.6137 29.0516 23.9595 30.5943 23.2419 32.1648C22.524 33.7352 21.4803 36.169 20.9224 37.5731L19.9082 40.1263H16.5874C12.6683 40.1263 12.8068 40.7081 15.3637 34.9879C16.3039 32.8837 17.0734 31.0542 17.0734 30.922C17.0734 30.7895 17.3212 30.1476 17.6244 29.4952C19.5845 25.2747 20.5514 23.0906 20.5514 22.8834C20.5514 22.7524 21.3844 20.7682 22.4023 18.4739C23.4201 16.1798 24.6769 13.2849 25.1948 12.0413L26.1364 9.77993H29.4304C31.2421 9.77993 32.7243 9.85084 32.7243 9.9375ZM82.8652 10.079C82.8652 10.2436 82.4267 11.2611 81.8908 12.3404C81.3549 13.4197 80.7486 14.8279 80.5431 15.4699C80.3376 16.1118 79.4881 18.1471 78.6551 19.9927C77.8218 21.8382 77.0416 23.6707 76.921 24.0646C76.8005 24.4585 76.0559 26.1655 75.2661 27.8579C74.4766 29.5503 73.6622 31.4245 73.4567 32.023C73.2512 32.6214 72.382 34.6847 71.5252 36.6079L69.9677 40.1047L66.7071 40.1155C64.9139 40.1213 63.4442 40.028 63.4416 39.9075C63.4387 39.787 64.0754 38.2442 64.8565 36.4789C65.6373 34.7136 67.0265 31.4966 67.9432 29.33C68.86 27.1634 70.5056 23.3372 71.6003 20.8272C72.695 18.3169 73.5906 16.197 73.5906 16.1156C73.5906 16.0345 74.2363 14.5758 75.0258 12.8741L76.4608 9.77993H79.6631C81.6566 9.77993 82.8652 9.89286 82.8652 10.079Z" fill="url(#paint0_linear_65_720)"/>
<defs>
<linearGradient id="paint0_linear_65_720" x1="5.34192e-07" y1="25" x2="143.396" y2="25" gradientUnits="userSpaceOnUse">
<stop stop-color="#874FFF"/>
<stop offset="0.515625" stop-color="#FF6068"/>
<stop offset="1" stop-color="#FEB14B"/>
</linearGradient>
</defs>
</svg>
