<svg width="182" height="48" viewBox="0 0 182 48" fill="none" xmlns="http://www.w3.org/2000/svg">
<path fill-rule="evenodd" clip-rule="evenodd" d="M17.1271 3.27906C16.6435 5.0828 15.3008 12.803 14.144 20.4356C12.9872 28.0682 11.8626 34.46 11.6451 34.6389C8.97826 36.8367 6.7618 38.2721 6.7618 37.8026C6.7618 37.2564 9.03898 24.5704 9.71004 21.3795L10.0136 19.9367H6.33572H2.65833L1.48622 26.1013C-0.705957 37.6321 -0.535951 40.7312 2.41652 43.0391C4.4598 44.6361 5.69528 44.303 8.80033 41.3161C10.3753 39.8015 11.5247 38.9589 11.3547 39.4442C11.1852 39.93 10.907 41.7007 10.737 43.3791C10.5073 45.6408 10.6282 46.6838 11.2026 47.4068C11.9534 48.3506 12.3616 48.3134 24.0215 46.2237C30.645 45.0364 36.2189 44.0663 36.4074 44.0679C36.5959 44.0695 36.8356 43.0081 36.9396 41.7096L37.1281 39.3487H29.0626H20.9972L21.2813 38.1682C21.8715 35.7139 26.8251 2.96795 26.8251 1.51781V0H22.4154H18.0062L17.1271 3.27906ZM46.1777 3.27906C45.7004 5.0828 44.4749 12.1063 43.4543 18.8874C42.4332 25.6685 41.1254 34.2302 40.5473 37.9133C39.3123 45.7846 39.3023 46.1324 40.2738 47.4068C40.9924 48.3496 41.4232 48.3092 53.3244 46.1765C60.0931 44.964 65.6586 43.9347 65.6908 43.8901C65.7235 43.845 65.8793 42.8051 66.0366 41.5785L66.3233 39.3487H58.1797H50.0362L50.3186 38.1682C51.0002 35.3194 55.864 3.42124 55.864 1.79902V0H51.4543H47.0451L46.1777 3.27906ZM4.46983 9.31253C4.33626 9.52868 4.0559 11.0748 3.84682 12.7479L3.46562 15.7904L7.07172 15.6335L10.6778 15.4772L11.0934 13.3786C11.322 12.2243 11.6335 10.749 11.7855 10.0995C12.0516 8.96206 11.9276 8.91904 8.38692 8.91904C6.36582 8.91904 4.60289 9.09637 4.46983 9.31253ZM125.839 9.57485C125.722 9.93581 125.398 11.3692 125.12 12.7605C124.518 15.7657 124.65 15.8628 129.027 15.6367L132.114 15.4772L132.529 13.3786C132.758 12.2243 133.069 10.749 133.221 10.0995C133.488 8.96101 133.365 8.91904 129.775 8.91904C127.262 8.91904 125.983 9.13205 125.839 9.57485ZM112.144 17.2342C111.991 17.4787 106.838 22.4938 100.694 28.3778L89.5207 39.0764L89.9087 36.1956C90.1225 34.6116 90.8638 30.3641 91.5571 26.7571C92.2498 23.1502 92.8184 20.0217 92.82 19.8055C92.8216 19.5894 91.1922 19.412 89.2002 19.412H85.5777L84.4061 25.839C83.7614 29.3741 83.1252 32.6584 82.9916 33.1379C82.7815 33.8934 77.4632 38.8241 76.8586 38.8241C76.7372 38.8241 77.4204 34.7517 78.3766 29.7739C79.3327 24.796 80.1231 20.4288 80.1332 20.0678C80.1458 19.6046 79.0777 19.412 76.4969 19.412C72.271 19.412 72.9447 18.2237 71.1416 28.8557C69.5139 38.4563 70.2689 42.4573 73.9547 43.7621C75.148 44.1844 75.7039 43.8932 78.7113 41.27C80.5841 39.6362 82.2678 38.2994 82.4536 38.2994C82.6389 38.2994 82.791 38.7952 82.791 39.4012C82.791 40.7705 86.0307 44.0705 87.3749 44.0705C87.9452 44.0705 92.8596 39.8067 98.8971 34.0734C108.559 24.8993 109.485 24.1538 110.141 25.0232C111.043 26.2162 110.617 29.905 109.326 32.0813C108.816 32.9422 107.234 34.3582 105.813 35.2286L103.226 36.811L102.106 35.4138L100.984 34.0167L100.011 35.0844C99.0565 36.1331 99.0903 36.2239 101.815 39.9804C103.342 42.0858 104.656 43.8869 104.735 43.9835C105.106 44.4352 110.178 41.7332 111.762 40.2401C113.866 38.2574 115.892 34.2229 116.368 31.0671C116.806 28.1684 115.497 24.6449 113.303 22.8102L111.684 21.4566L113.158 19.9288C114.39 18.6508 114.521 18.2688 113.958 17.5946C113.206 16.6949 112.559 16.5658 112.144 17.2342ZM142.051 19.0631C137.544 20.6875 134.149 25.6527 133.626 31.3877C133.353 34.385 133.245 34.5754 130.783 36.4012C128.284 38.2559 127.337 38.7338 127.874 37.8708C128.02 37.6352 128.764 34.0345 129.527 29.8699C130.29 25.7052 131.042 21.7667 131.197 21.1171C131.47 19.9771 131.35 19.9367 127.726 19.9367C125.662 19.9367 123.972 19.996 123.971 20.0678C123.97 20.1397 123.376 23.4922 122.651 27.5168C120.73 38.1877 120.996 41.0995 124.088 43.2516C126.104 44.655 127.24 44.2075 130.956 40.5433C132.923 38.6032 134.533 37.3099 134.533 37.6693C134.533 38.6703 138.493 42.7149 140.553 43.8166L142.385 44.7977L149.352 37.5948C153.183 33.6332 156.405 30.4785 156.511 30.5839C156.617 30.6888 156.23 33.3399 155.65 36.4747C154.132 44.6854 153.954 44.1466 158.131 43.9635L161.664 43.8082L162.856 36.9878L164.048 30.1673L167.088 27.435C168.76 25.9324 170.219 24.7923 170.329 24.902C170.439 25.0121 170.033 27.68 169.427 30.831C167.884 38.8429 167.952 40.6336 169.867 42.537C170.716 43.3806 171.903 44.0705 172.505 44.0705C173.139 44.0705 175.46 42.3591 178.014 40.0077C181.771 36.5497 182.342 35.8084 181.849 35.0235C181.53 34.5167 181.146 34.1022 180.996 34.1022C180.847 34.1022 179.43 35.1568 177.85 36.4453C176.269 37.7338 174.934 38.737 174.882 38.6751C174.831 38.6126 175.238 36.4369 175.785 33.8399C176.333 31.2429 176.93 27.3206 177.113 25.1244C177.414 21.5007 177.34 21.0264 176.316 20.0091C174.258 17.9635 171.728 18.7887 167.818 22.7803C165.333 25.317 164.391 25.7818 164.81 24.265C164.95 23.7598 165.214 22.4618 165.398 21.3795L165.732 19.412H162.312C158.557 19.412 158.673 19.304 158.034 23.4015C157.784 24.9969 157.113 26.1239 155.442 27.7545L153.186 29.9549L153.421 27.1359C153.975 20.496 148.622 16.6949 142.051 19.0631ZM147.159 21.4713C147.793 21.8705 147.718 23.061 146.657 29.4643C145.971 33.6022 145.314 37.1058 145.198 37.2501C144.76 37.7952 141.356 33.3021 140.793 31.4359C140.01 28.8395 140.646 24.0321 141.998 22.3249C143.1 20.9325 145.635 20.5133 147.159 21.4713Z" fill="url(#paint0_linear_65_754)"/>
<defs>
<linearGradient id="paint0_linear_65_754" x1="6.78003e-07" y1="24" x2="182" y2="24" gradientUnits="userSpaceOnUse">
<stop stop-color="#874FFF"/>
<stop offset="0.515625" stop-color="#FF6068"/>
<stop offset="1" stop-color="#FEB14B"/>
</linearGradient>
</defs>
</svg>
