<svg width="45" height="45" viewBox="0 0 45 45" fill="none" xmlns="http://www.w3.org/2000/svg">
<path fill-rule="evenodd" clip-rule="evenodd" d="M12.0039 0.0872521C9.04513 0.371817 6.12202 1.77125 3.95217 3.94216C1.72572 6.1697 0.383219 9.02915 0.0903552 12.1674C-0.0231165 13.3836 -0.029357 31.2138 0.0832358 32.5688C0.15988 33.4916 0.301917 34.3254 0.521477 35.141L0.622029 35.5147H2.99184C4.29514 35.5147 5.36156 35.5039 5.36156 35.4907C5.36156 35.4775 5.24536 35.1647 5.10324 34.7956C4.51206 33.2595 4.54107 33.8174 4.50529 23.2914C4.47066 13.0982 4.49606 12.2637 4.88218 10.9309C5.89596 7.43063 8.96558 4.91079 12.6403 4.56211C13.8964 4.44296 31.1056 4.44296 32.3617 4.56211C34.4133 4.75681 36.1813 5.54965 37.6529 6.9351C39.2958 8.48192 40.2283 10.4223 40.4367 12.7281C40.497 13.3952 40.5178 17.0644 40.4967 23.2914C40.4609 33.8174 40.4899 33.2595 39.8987 34.7956C39.7566 35.1647 39.6404 35.4775 39.6404 35.4907C39.6404 35.5039 40.7068 35.5147 42.0101 35.5147H44.3799L44.4805 35.141C44.7 34.3254 44.8421 33.4916 44.9187 32.5688C45.0313 31.2138 45.0251 13.3836 44.9116 12.1674C44.6187 9.02915 43.2762 6.1697 41.0498 3.94216C38.8233 1.71462 35.9653 0.371465 32.8286 0.0784584C31.652 -0.0313753 13.1569 -0.0235488 12.0039 0.0872521ZM33.3468 8.28564C32.0211 8.72023 31.184 10.1212 31.4577 11.4472C31.8137 13.172 33.5028 14.1259 35.1253 13.5185C36.9638 12.8303 37.5023 10.4813 36.1525 9.03751C35.9299 8.79946 35.5728 8.54101 35.3084 8.42687C34.7499 8.18557 33.8497 8.12076 33.3468 8.28564ZM21.0947 10.9457C19.3497 11.2648 18.6221 11.4842 17.4464 12.0458C14.2528 13.5712 11.8955 16.5816 11.1194 20.1257C10.9004 21.1262 10.851 23.2351 11.0222 24.2796C12.0522 30.5637 17.9389 34.9123 24.1517 33.9787C29.2128 33.2181 33.1518 29.3307 33.9797 24.2796C34.1509 23.2351 34.1015 21.1262 33.8825 20.1257C32.8895 15.591 29.4144 12.1139 24.8741 11.1119C24.2358 10.9711 21.5917 10.8547 21.0947 10.9457ZM24.3028 15.6014C26.7871 16.2772 28.7154 18.2176 29.4107 20.7413C29.6304 21.5389 29.6304 23.4611 29.4107 24.2587C28.7192 26.7686 26.8552 28.6633 24.373 29.3791C23.3906 29.6624 21.6113 29.6624 20.6289 29.3791C18.1468 28.6633 16.2828 26.7686 15.5912 24.2587C15.3715 23.4611 15.3715 21.5389 15.5912 20.7413C16.3646 17.9343 18.6323 15.8941 21.4902 15.434C21.995 15.3527 23.779 15.4589 24.3028 15.6014Z" fill="url(#paint0_linear_65_693)"/>
<path fill-rule="evenodd" clip-rule="evenodd" d="M12.002 44.9127C9.04318 44.6282 6.12007 43.2287 3.95023 41.0578C1.72377 38.8303 0.381272 35.9708 0.0884079 32.8326C-0.0250638 31.6164 -0.0313043 13.7862 0.0812884 12.4312C0.157932 11.5084 0.29997 10.6746 0.51953 9.85903L0.620081 9.48529H2.98989C4.29319 9.48529 5.35961 9.49611 5.35961 9.5093C5.35961 9.52249 5.24342 9.83528 5.10129 10.2044C4.51011 11.7405 4.53912 11.1826 4.50334 21.7086C4.46871 31.9018 4.49412 32.7363 4.88024 34.0691C5.89401 37.5694 8.96364 40.0892 12.6383 40.4379C13.8944 40.557 31.1036 40.557 32.3597 40.4379C34.4114 40.2432 36.1794 39.4503 37.651 38.0649C39.2939 36.5181 40.2264 34.5777 40.4348 32.2719C40.4951 31.6048 40.5159 27.9356 40.4947 21.7086C40.4589 11.1826 40.4879 11.7405 39.8968 10.2044C39.7546 9.83528 39.6384 9.52249 39.6384 9.5093C39.6384 9.49611 40.7049 9.48529 42.0082 9.48529H44.378L44.4785 9.85903C44.6981 10.6746 44.8401 11.5084 44.9168 12.4312C45.0294 13.7862 45.0231 31.6164 44.9096 32.8326C44.6168 35.9708 43.2743 38.8303 41.0478 41.0578C38.8214 43.2854 35.9633 44.6285 32.8266 44.9215C31.6501 45.0314 13.155 45.0235 12.002 44.9127ZM21.0927 34.0543C19.3477 33.7352 18.6202 33.5158 17.4445 32.9543C14.2508 31.4288 11.8936 28.4184 11.1175 24.8743C10.8985 23.8738 10.8491 21.7648 11.0203 20.7204C12.0502 14.4363 17.937 10.0877 24.1498 11.0213C29.2108 11.7819 33.1499 15.6693 33.9778 20.7204C34.149 21.7648 34.0996 23.8738 33.8806 24.8743C32.8875 29.409 29.4124 32.8861 24.8722 33.8881C24.2339 34.0289 21.5898 34.1453 21.0927 34.0543ZM24.3009 29.3986C26.7851 28.7228 28.7134 26.7824 29.4088 24.2587C29.6285 23.4611 29.6285 21.5389 29.4088 20.7413C28.7172 18.2314 26.8532 16.3367 24.3711 15.6209C23.3887 15.3376 21.6094 15.3376 20.627 15.6209C18.1448 16.3367 16.2808 18.2314 15.5893 20.7413C15.3696 21.5389 15.3696 23.4611 15.5893 24.2587C16.3627 27.0657 18.6304 29.1059 21.4882 29.566C21.993 29.6473 23.777 29.5411 24.3009 29.3986Z" fill="url(#paint1_linear_65_693)"/>
<defs>
<linearGradient id="paint0_linear_65_693" x1="1.67638e-07" y1="22.5" x2="45" y2="22.5" gradientUnits="userSpaceOnUse">
<stop stop-color="#874FFF"/>
<stop offset="0.515625" stop-color="#FF6068"/>
<stop offset="1" stop-color="#FEB14B"/>
</linearGradient>
<linearGradient id="paint1_linear_65_693" x1="1.67638e-07" y1="22.5" x2="45" y2="22.5" gradientUnits="userSpaceOnUse">
<stop stop-color="#874FFF"/>
<stop offset="0.515625" stop-color="#FF6068"/>
<stop offset="1" stop-color="#FEB14B"/>
</linearGradient>
</defs>
</svg>
