<svg width="30" height="30" viewBox="0 0 30 30" fill="none" xmlns="http://www.w3.org/2000/svg">
<path fill-rule="evenodd" clip-rule="evenodd" d="M10.6034 0.227036C8.36824 0.960423 6.38945 2.15164 4.70241 3.77944C3.34365 5.09055 2.42769 6.33303 1.62161 7.95853C-1.31794 13.8865 -0.194773 20.8624 4.45298 25.5441C7.39564 28.5082 11.4812 30.1398 15.5872 29.9906C18.7992 29.8738 21.5388 28.9378 24.1182 27.0758C26.8876 25.0766 28.8965 22.1484 29.8338 18.7444C30.0403 17.9945 30.0462 17.8821 29.8966 17.5515C29.7446 17.2153 29.4074 17.0396 28.9819 17.075C28.7296 17.096 28.6095 17.1504 28.285 17.3905C27.3626 18.0726 26.7691 18.4471 26.0531 18.7983C24.393 19.6126 22.9602 19.9468 21.1324 19.946C18.1138 19.9447 15.3143 18.7855 13.1847 16.6551C11.0294 14.499 9.87111 11.7041 9.87768 8.67574C9.88337 6.06701 10.6445 3.73872 12.1064 1.85855C12.4742 1.38565 12.5803 1.07378 12.4837 0.750077C12.3503 0.303311 11.94 -0.0105015 11.5033 0.000268921C11.3792 0.00332936 10.9742 0.105383 10.6034 0.227036ZM8.93751 3.59952C8.479 4.69958 8.15787 5.9337 8.02243 7.11609C7.93946 7.84024 7.93928 9.52925 8.02207 10.206C8.57439 14.7204 11.3278 18.6366 15.3233 20.5908C17.1669 21.4925 18.7558 21.8791 20.8348 21.9317C22.9205 21.9846 24.5034 21.6815 26.4876 20.8492C26.8234 20.7083 27.11 20.6052 27.1247 20.6198C27.1711 20.6664 26.422 21.8727 25.96 22.4955C23.3778 25.9756 19.5163 27.9506 15.2941 27.9506C12.3312 27.9506 9.73339 27.0874 7.35806 25.3136C5.74138 24.1062 4.36304 22.4328 3.43295 20.5479C2.49893 18.6549 2.08815 16.8742 2.09266 14.7378C2.09659 12.8817 2.35598 11.4771 2.99461 9.85283C3.94997 7.42307 5.70362 5.24098 7.87696 3.77768C8.29565 3.49582 9.12109 3.00038 9.1779 2.99691C9.184 2.99656 9.07576 3.2677 8.93751 3.59952Z" fill="white"/>
</svg>
