<svg width="132" height="132" viewBox="0 0 132 132" fill="none" xmlns="http://www.w3.org/2000/svg">
<path fill-rule="evenodd" clip-rule="evenodd" d="M54.8538 0.274804C54.6076 0.418401 54.2915 0.749679 54.1518 1.01083C54.0121 1.27199 53.1944 4.66031 52.3352 8.54051C51.4757 12.4207 50.7173 15.7776 50.65 16.0003C50.5825 16.2233 49.8632 16.6124 49.0478 16.8668C48.234 17.1207 46.2921 17.8957 44.7325 18.5889C43.1728 19.2819 41.8138 19.8491 41.7125 19.8491C41.6112 19.8491 40.5089 19.1896 39.2635 18.3837C31.5484 13.3911 28.5091 11.5994 27.7556 11.5994C27.0606 11.5994 26.0199 12.5427 19.2849 19.2781C10.7864 27.7773 11.0189 27.437 12.2596 29.5546C12.619 30.1674 14.4751 33.1149 16.3843 36.1041C18.2937 39.0934 19.8559 41.6186 19.8559 41.7152C19.8559 41.8122 19.2888 43.1675 18.5958 44.7272C17.9026 46.2869 17.1277 48.2289 16.8738 49.0428C16.6194 49.8582 16.2304 50.5775 16.0074 50.6451C15.7846 50.7123 12.428 51.4708 8.548 52.3303C4.66803 53.1896 1.2776 54.0084 1.01362 54.1497C0.749649 54.2909 0.415039 54.6284 0.269904 54.8993C-0.0899681 55.5717 -0.0899681 76.4203 0.269904 77.0927C0.415039 77.3636 0.749649 77.7011 1.01362 77.8423C1.2776 77.9836 4.66803 78.8024 8.548 79.6617C12.428 80.5212 15.7846 81.2797 16.0074 81.3469C16.2304 81.4145 16.6194 82.1338 16.8738 82.9492C17.1277 83.7631 17.9026 85.7051 18.5958 87.2648C19.2888 88.8245 19.8559 90.1798 19.8559 90.2768C19.8559 90.3734 18.2937 92.8986 16.3843 95.8879C14.4751 98.8771 12.619 101.825 12.2596 102.437C11.0189 104.555 10.7864 104.215 19.2849 112.714C26.0199 119.449 27.0606 120.393 27.7556 120.393C28.5091 120.393 31.5484 118.601 39.2635 113.608C40.5089 112.802 41.6112 112.143 41.7125 112.143C41.8138 112.143 43.1728 112.71 44.7325 113.403C46.2921 114.096 48.234 114.871 49.0478 115.125C49.8632 115.38 50.5825 115.769 50.65 115.992C50.7173 116.214 51.4757 119.571 52.3352 123.451C53.1944 127.332 54.0131 130.722 54.1544 130.986C54.2956 131.25 54.6331 131.585 54.904 131.73C55.5763 132.09 76.4237 132.09 77.096 131.73C77.3669 131.585 77.7044 131.25 77.8456 130.986C77.9869 130.722 78.8056 127.332 79.6648 123.451C80.5243 119.571 81.2827 116.214 81.35 115.992C81.4176 115.769 82.1368 115.38 82.9522 115.125C83.766 114.871 85.7079 114.096 87.2675 113.403C88.8272 112.71 90.1824 112.143 90.2793 112.143C90.376 112.143 92.901 113.705 95.89 115.615C98.8791 117.524 101.826 119.38 102.439 119.74C104.557 120.98 104.216 121.213 112.715 112.714C121.214 104.215 120.981 104.555 119.74 102.437C119.381 101.825 117.525 98.8771 115.616 95.8879C113.706 92.8986 112.144 90.3734 112.144 90.2768C112.144 90.1798 112.711 88.8245 113.404 87.2648C114.097 85.7051 114.872 83.7631 115.126 82.9492C115.381 82.1338 115.77 81.4145 115.993 81.3469C116.215 81.2797 119.572 80.5212 123.452 79.6617C127.332 78.8024 130.722 77.9836 130.986 77.8423C131.25 77.7011 131.585 77.3636 131.73 77.0927C132.09 76.4203 132.09 55.5717 131.73 54.8993C131.585 54.6284 131.25 54.2909 130.986 54.1497C130.722 54.0084 127.332 53.1896 123.452 52.3303C119.572 51.4708 116.215 50.7123 115.993 50.6451C115.77 50.5775 115.381 49.8582 115.126 49.0428C114.872 48.2289 114.097 46.2869 113.404 44.7272C112.711 43.1675 112.144 41.8122 112.144 41.7152C112.144 41.6186 113.706 39.0934 115.616 36.1041C117.525 33.1149 119.381 30.1674 119.74 29.5546C120.981 27.437 121.214 27.7773 112.715 19.2781C104.216 10.779 104.557 11.0116 102.439 12.2524C101.826 12.6118 98.8791 14.4679 95.89 16.3772C92.901 18.2868 90.376 19.8491 90.2793 19.8491C90.1824 19.8491 88.8272 19.2819 87.2675 18.5889C85.7079 17.8957 83.766 17.1207 82.9522 16.8668C82.1368 16.6124 81.4176 16.2233 81.35 16.0003C81.2827 15.7776 80.5243 12.4207 79.6648 8.54051C78.8056 4.66031 77.9869 1.26967 77.8456 1.00568C77.7044 0.741687 77.3669 0.407058 77.096 0.261914C76.4283 -0.0954022 55.4683 -0.0832855 54.8538 0.274804ZM74.9746 6.37883C75.2572 7.61964 75.9878 10.8894 76.5982 13.6453C77.386 17.203 77.8606 18.8246 78.2341 19.2371C78.5422 19.5768 79.7762 20.1497 81.2095 20.6181C82.5565 21.0584 85.1057 22.1157 86.8744 22.9675C89.0762 24.0281 90.2749 24.47 90.6755 24.3694C90.9972 24.2887 94.0742 22.43 97.5133 20.2391L103.766 16.2556L109.745 22.225C113.034 25.5084 115.65 28.3182 115.559 28.469C115.469 28.6198 113.679 31.4405 111.583 34.7373C109.487 38.0338 107.705 40.9949 107.624 41.3177C107.523 41.7201 107.963 42.9135 109.026 45.1203C109.878 46.8891 110.935 49.4385 111.375 50.7856C111.844 52.219 112.416 53.4531 112.756 53.7611C113.169 54.1347 114.79 54.6093 118.348 55.3972C121.103 56.0076 124.373 56.7383 125.614 57.0208L127.869 57.5346V65.996V74.4574L125.614 74.9712C124.373 75.2537 121.103 75.9844 118.348 76.5948C114.79 77.3827 113.169 77.8573 112.756 78.2309C112.416 78.5389 111.844 79.773 111.375 81.2064C110.935 82.5535 109.878 85.1029 109.026 86.8717C107.965 89.0736 107.524 90.2724 107.624 90.673C107.705 90.9947 109.563 94.0719 111.754 97.5112L115.737 103.764L109.768 109.744C106.485 113.033 103.676 115.649 103.525 115.558C103.374 115.468 100.553 113.678 97.2568 111.582C93.9605 109.485 90.9995 107.704 90.6768 107.623C90.2744 107.522 89.0811 107.962 86.8744 109.025C85.1057 109.876 82.5565 110.934 81.2095 111.374C79.7762 111.842 78.5422 112.415 78.2341 112.755C77.8606 113.167 77.386 114.789 76.5982 118.347C75.9878 121.103 75.2572 124.372 74.9746 125.613L74.4609 127.869H66H57.5391L57.0254 125.613C56.7428 124.373 56.0123 121.103 55.4018 118.347C54.613 114.784 54.1399 113.168 53.7659 112.757C53.4648 112.426 52.1905 111.828 50.7905 111.361C49.4436 110.911 46.8922 109.854 45.121 109.011C42.9553 107.98 41.712 107.525 41.3245 107.623C41.0077 107.702 37.9338 109.564 34.4939 111.76L28.2392 115.753L22.2574 109.775C18.9676 106.487 16.35 103.674 16.4407 103.523C16.5315 103.372 18.3208 100.552 20.4171 97.2547C22.5132 93.9582 24.2947 90.9971 24.3757 90.6743C24.4767 90.2719 24.0367 89.0785 22.9741 86.8717C22.1224 85.1029 21.0652 82.5535 20.6249 81.2064C20.1565 79.773 19.5837 78.5389 19.2439 78.2309C18.8314 77.8573 17.21 77.3827 13.6525 76.5948C10.8967 75.9844 7.62718 75.2537 6.38645 74.9712L4.1308 74.4574V65.996V57.5346L6.38645 57.0208C7.62693 56.7383 10.8967 56.0076 13.6525 55.3972C17.21 54.6093 18.8314 54.1347 19.2439 53.7611C19.5837 53.4531 20.1565 52.219 20.6249 50.7856C21.0652 49.4385 22.1224 46.8891 22.9741 45.1203C24.0367 42.9135 24.4767 41.7201 24.3757 41.3177C24.2947 40.9949 22.5132 38.0338 20.4171 34.7373C18.3208 31.4405 16.5315 28.6198 16.4407 28.469C16.35 28.3182 18.9663 25.5081 22.2549 22.2245L28.234 16.254L34.4975 20.2409C37.9423 22.4338 41.0172 24.2923 41.3307 24.371C41.7102 24.4664 42.9762 24.0021 45.121 22.9814C46.8922 22.1384 49.4436 21.0809 50.7905 20.631C52.1905 20.1636 53.4648 19.5655 53.7659 19.2347C54.1399 18.8235 54.613 17.2079 55.4018 13.6453C56.0123 10.8894 56.7428 7.61964 57.0254 6.37883L57.5391 4.12304H66H74.4609L74.9746 6.37883ZM60.1998 27.6838C55.0479 28.5342 50.0445 30.3739 45.884 32.9476C35.7851 39.195 29.1025 49.513 27.5684 61.2266C27.1508 64.4151 27.4109 70.853 28.0811 73.917C31.0217 87.3574 40.5792 98.1519 53.489 102.614C57.9408 104.153 60.4908 104.539 66.1289 104.528C70.8534 104.518 71.5422 104.457 74.3642 103.794C84.65 101.379 92.876 95.6244 98.5445 86.8781C102.41 80.9141 104.366 74.6317 104.605 67.4124C104.798 61.6017 103.977 56.706 101.98 51.7505C100.783 48.7829 100.236 47.7262 98.5437 45.1139C92.8327 36.298 84.2372 30.3484 73.9206 28.0702C70.8511 27.3924 63.2605 27.1787 60.1998 27.6838ZM63.9377 35.4016V39.353L61.8604 39.6709C53.3887 40.9679 45.9492 46.4751 42.144 54.2659C40.2016 58.2436 39.6762 60.388 39.5166 64.9921C39.3725 69.1492 39.7105 71.5633 40.9022 74.8902C41.2577 75.8828 41.6088 76.8877 41.6826 77.1233C41.7836 77.4476 41.1995 77.9109 39.2787 79.0285C37.883 79.8409 36.3616 80.7318 35.8981 81.009L35.0551 81.5127L34.2882 79.8215C33.2815 77.601 32.3076 74.1975 31.8085 71.1552C31.3148 68.1451 31.4543 61.9047 32.0789 59.0572C34.9597 45.9267 44.7219 35.7424 57.5721 32.4614C59.6277 31.9365 61.9177 31.5397 63.2288 31.4817L63.9377 31.4503V35.4016ZM71.2924 31.83C76.7678 32.7181 82.4459 35.0936 86.6231 38.2439C89.0161 40.0485 92.3859 43.4358 93.9028 45.5612L94.8659 46.9108L94.2892 47.2699C92.9533 48.1011 88.2399 50.7856 88.1162 50.7856C88.0419 50.7856 87.266 49.9206 86.3916 48.8634C82.4551 44.1043 76.2788 40.6108 70.1396 39.6709L68.0623 39.353V35.4016C68.0623 30.8465 67.7001 31.2471 71.2924 31.83ZM71.4919 44.1922C79.5981 46.2487 85.718 52.3742 87.8202 60.5352C88.3959 62.7696 88.4513 63.4095 88.35 66.6405C88.1912 71.7102 87.3614 74.3855 84.6716 78.4995C81.7973 82.8958 77.0447 86.329 71.7951 87.8018C70.8281 88.073 68.9084 88.2765 66.6445 88.3474C63.4136 88.4487 62.7738 88.3932 60.5395 87.8176C50.4172 85.2099 43.5724 76.4523 43.5724 66.1087C43.5724 64.4997 43.7467 62.3659 43.9612 61.3457C45.4777 54.136 50.7608 47.8448 57.5984 45.1069C60.4155 43.9788 62.3714 43.6222 65.9026 43.5928C68.4214 43.572 69.5051 43.6882 71.4919 44.1922ZM65.0977 46.968C64.4113 47.3563 64.0931 47.8989 63.9377 48.9479C63.8279 49.6881 63.6467 49.8796 62.7168 50.237C57.8387 52.1117 55.4588 57.8631 57.6134 62.5695C58.5298 64.5714 60.3083 66.3342 62.2773 67.192L63.9377 67.9154V72.8943C63.9377 77.6712 63.9181 77.8627 63.4574 77.616C62.1102 76.8949 60.8497 74.6719 60.8458 73.0096C60.8437 72.1825 59.737 71.1521 58.851 71.1521C57.0393 71.1521 56.4113 72.6376 57.0926 75.3105C57.8505 78.2842 59.9337 80.6632 62.7341 81.7537C63.6108 82.0948 63.8225 82.3088 63.8823 82.9139C64.0586 84.6917 65.3403 85.6672 66.7388 85.0877C67.556 84.7492 68.0061 84.04 68.1177 82.9139C68.1775 82.3088 68.3892 82.0948 69.2659 81.7537C74.1783 79.8411 76.5461 74.1395 74.3866 69.4225C73.4702 67.4206 71.6917 65.6578 69.7227 64.8L68.0623 64.0766V59.0977C68.0623 54.3208 68.0819 54.1293 68.5426 54.376C69.8898 55.0971 71.1504 57.3201 71.1542 58.9824C71.1563 59.8095 72.263 60.8399 73.149 60.8399C74.9607 60.8399 75.5887 59.3545 74.9074 56.6815C74.1495 53.7078 72.0663 51.3288 69.2659 50.2382C68.3892 49.8972 68.1775 49.6832 68.1177 49.0781C68.0113 48.0062 67.58 47.2743 66.8618 46.9469C66.0838 46.5926 65.7546 46.5965 65.0977 46.968ZM97.7227 52.1947C99.479 56.0682 100.542 61.271 100.542 65.996C100.542 71.4934 99.3942 76.3744 96.9359 81.3353C91.9312 91.4351 82.5263 98.3398 71.2924 100.162C67.6996 100.745 68.0623 101.147 68.0623 96.579V92.6163L69.4157 92.4397C72.1289 92.0863 74.9558 91.2064 77.7294 89.8524C83.144 87.2091 87.2126 83.1402 89.8547 77.7261C91.7781 73.785 92.3083 71.6151 92.4767 66.9999C92.6285 62.832 92.2911 60.4197 91.0918 57.1018C90.7332 56.1092 90.4218 55.0811 90.4002 54.8174C90.3711 54.4603 91.1859 53.8524 93.5834 52.4427C95.3557 51.4007 96.8421 50.5435 96.8864 50.5381C96.9307 50.5324 97.3071 51.278 97.7227 52.1947ZM63.9377 58.7842V63.4311L63.1744 63.0364C62.2915 62.5798 61.216 60.867 60.9713 59.5274C60.703 58.0587 61.2704 56.4789 62.5121 55.2371C63.1172 54.632 63.6853 54.137 63.7748 54.137C63.8645 54.137 63.9377 56.2283 63.9377 58.7842ZM68.9842 68.9974C69.7926 69.5271 70.8059 71.2457 71.0287 72.4646C71.3517 74.2331 70.129 76.7671 68.5426 77.616C68.0824 77.8625 68.0623 77.6792 68.0623 73.2235C68.0623 70.6664 68.1244 68.574 68.2002 68.574C68.2763 68.574 68.6289 68.7646 68.9842 68.9974ZM45.6084 83.1286C49.6114 87.9681 56.2999 91.655 62.4773 92.4268L63.9377 92.6091V96.6051V100.601L62.4554 100.424C54.6282 99.486 47.7605 96.2965 42.2159 91.0241C40.2668 89.1705 37.4337 85.7997 37.2981 85.1728C37.26 84.9954 43.502 81.2289 43.8599 81.2134C43.9472 81.2095 44.734 82.0714 45.6084 83.1286Z" fill="url(#paint0_linear_65_792)"/>
<defs>
<linearGradient id="paint0_linear_65_792" x1="4.91738e-07" y1="66" x2="132" y2="66" gradientUnits="userSpaceOnUse">
<stop stop-color="#874FFF"/>
<stop offset="0.515625" stop-color="#FF6068"/>
<stop offset="1" stop-color="#FEB14B"/>
</linearGradient>
</defs>
</svg>
