<svg width="168" height="132" viewBox="0 0 168 132" fill="none" xmlns="http://www.w3.org/2000/svg">
<path fill-rule="evenodd" clip-rule="evenodd" d="M7.72603 0.20312C4.74214 1.11978 1.69479 3.88918 0.630247 6.65101C0.0177534 8.24118 0 9.90637 0 66.1952V124.103L0.710466 125.642C1.66816 127.716 3.88866 130.06 5.90466 131.124L7.56164 132H84H160.438L162.095 131.124C164.111 130.06 166.332 127.716 167.29 125.642L168 124.103V66.0307V7.95789L167.29 6.41937C166.332 4.34553 164.111 2.00157 162.095 0.936843L160.438 0.0613102L84.4931 0.00603437C42.7233 -0.0245649 8.17808 0.0642713 7.72603 0.20312ZM160.559 6.11568C162.63 7.59399 162.889 8.73537 162.897 16.4303L162.904 23.2575H84H5.09589L5.10312 16.4303C5.10937 10.4845 5.18926 9.42896 5.72219 8.25434C6.28537 7.01359 7.49458 5.85806 8.71233 5.39743C8.98356 5.29477 43.011 5.23686 84.3288 5.26845L159.452 5.3257L160.559 6.11568ZM97.4877 12.0625C96.0125 13.5388 96.3801 15.7222 98.2557 16.6244C99.3298 17.1413 100.902 16.6678 101.437 15.6666C102.846 13.0314 99.5372 10.0113 97.4877 12.0625ZM108.807 12.2204C107.177 13.8514 108.349 16.7866 110.63 16.7866C111.987 16.7866 113.26 15.4435 113.26 14.0116C113.26 12.6932 111.964 11.4126 110.63 11.4126C109.99 11.4126 109.316 11.7111 108.807 12.2204ZM120.314 12.2204C118.882 13.6536 119.368 15.9364 121.26 16.656C123.141 17.3719 125.017 15.6478 124.626 13.5622C124.229 11.4439 121.834 10.6987 120.314 12.2204ZM131.88 12.0947C131.24 12.5988 131.014 13.0762 131.014 13.9257C131.014 15.4468 131.44 16.1723 132.62 16.6616C133.869 17.1795 135.252 16.5829 135.89 15.2514C137.125 12.6705 134.137 10.3177 131.88 12.0947ZM143.235 12.174C142.395 13.0699 142.284 14.876 143.006 15.9081C143.975 17.2923 146.349 17.1373 147.151 15.6373C148.633 12.8676 145.328 9.94487 143.235 12.174ZM162.897 75.4901C162.89 120.583 162.865 122.512 162.278 123.807C161.941 124.549 161.168 125.511 160.559 125.946L159.452 126.736H84H8.54795L7.44099 125.946C6.83244 125.511 6.05885 124.549 5.72219 123.807C5.13469 122.512 5.11003 120.583 5.10312 75.4901L5.09589 28.5219H84H162.904L162.897 75.4901ZM48.0293 42.7397C47.4293 43.2655 46.7938 44.625 45.9212 47.2493L44.6719 51.0058L42.8841 51.5914L41.0959 52.1771L37.9351 49.7443C34.4377 47.0519 33.4179 46.6215 32.2991 47.3641C30.0293 48.8701 22.9424 55.0465 22.5373 55.8717C22.0793 56.8048 22.1352 56.992 23.9938 60.7534L25.9259 64.6646L25.1273 66.2057C24.6881 67.0533 24.0329 67.8702 23.6712 68.0216C23.3096 68.1729 21.4843 68.4714 19.6152 68.6849C14.5374 69.2646 14.6893 69.0498 13.9259 76.744C13.4538 81.4997 13.3943 83.1863 13.6741 83.8661C14.0617 84.8077 14.5338 85.0364 19.5215 86.6973L22.2759 87.6146L22.8437 89.4513L23.4115 91.2879L20.829 94.6564C19.3368 96.6033 18.2466 98.3431 18.2466 98.7784C18.2466 99.193 18.867 100.323 19.6254 101.289C23.2797 105.946 26.3007 109.342 27.1719 109.774C28.0955 110.232 28.2871 110.175 32.0012 108.337L35.8688 106.423L37.5501 107.276C39.4336 108.231 39.3639 108.062 39.9699 113.142C40.538 117.906 40.1803 117.696 49.1389 118.526C55.9936 119.16 55.6948 119.324 57.5559 113.917L58.893 110.032L60.723 109.465L62.5529 108.899L65.6324 111.322C68.9402 113.925 69.8374 114.344 70.9558 113.81C72.3945 113.123 80.5618 106.098 81.0243 105.15C81.4826 104.21 81.4281 104.027 79.5679 100.262L77.6357 96.3509L78.4343 94.8134C78.8735 93.9681 79.5288 93.1653 79.8904 93.0297C80.2521 92.8942 82.1014 92.6026 84 92.3819C89.0203 91.7979 88.8654 92.0252 89.6436 84.0842C90.4221 76.1403 90.6526 76.6203 85.15 74.7235L81.2554 73.3811L80.6745 71.5977L80.0936 69.8144L82.7043 66.3992C84.1696 64.4823 85.3151 62.6614 85.3151 62.2485C85.3151 61.4243 85.1487 61.1924 80.592 55.6664C78.8012 53.4948 76.9068 51.5036 76.3821 51.2413C75.4665 50.784 75.2699 50.8429 71.5197 52.6989L67.6116 54.6326L66.0753 53.8334C65.2307 53.3938 64.4252 52.7381 64.2858 52.3762C64.1461 52.0142 63.8462 50.1875 63.6194 48.317C63.022 43.3951 62.9826 43.3612 57.1871 42.8091C54.6658 42.5689 51.767 42.2856 50.7452 42.1797C49.1221 42.0109 48.7795 42.0816 48.0293 42.7397ZM122.44 45.2768C121.573 46.1448 121.479 46.4494 121.479 48.4025V50.5665H109.208H96.9367L96.2216 51.3279C95.5174 52.0784 95.3112 53.2928 95.711 54.3355C96.2453 55.7289 97.1921 55.8309 109.59 55.8309H121.405L121.538 58.1736C121.735 61.6625 121.906 61.7533 128.277 61.7533C131.072 61.7533 133.629 61.6082 133.96 61.4312C134.754 61.0058 135.288 59.3975 135.288 57.427V55.8309H142.208C150.644 55.8309 151.397 55.5904 151.397 52.9003C151.397 52.3817 151.073 51.6928 150.636 51.2818C149.903 50.5922 149.617 50.5665 142.626 50.5665H135.376L135.207 48.1979C135.06 46.1484 134.919 45.7272 134.158 45.0721C133.325 44.3549 133.02 44.3151 128.34 44.3151H123.401L122.44 45.2768ZM57.4208 48.1377C58.2503 48.2936 58.3118 48.4446 58.6567 51.1617C59.2862 56.1201 59.4418 56.3981 62.4658 57.9656C63.9123 58.7155 65.5397 59.5775 66.0822 59.8812C66.6247 60.1849 67.2296 60.434 67.4265 60.4353C67.6231 60.4363 69.2969 59.6969 71.1459 58.7921C72.9945 57.8873 74.6121 57.147 74.7403 57.147C75.0118 57.147 79.0685 61.9527 79.0685 62.2742C79.0685 62.3933 78.0329 63.8515 76.7671 65.5147C75.5014 67.178 74.4658 68.8027 74.4658 69.1248C74.4658 69.4472 74.8211 70.7706 75.2554 72.0659C75.6898 73.361 76.2132 75.0492 76.4186 75.8171C76.8496 77.428 77.2399 77.6807 81.3699 79.0232C82.9068 79.5226 84.2936 80.0497 84.4514 80.1942C84.7285 80.4478 84.2535 86.6151 83.9323 86.9369C83.8471 87.0221 82.2217 87.2961 80.3204 87.5462C78.4192 87.7959 76.583 88.1569 76.2401 88.348C75.8972 88.5395 74.738 90.3942 73.6642 92.4697L71.712 96.2436L73.4176 99.7543C74.3556 101.685 75.1233 103.381 75.1233 103.522C75.1233 103.825 70.3621 107.817 70.0018 107.817C69.867 107.817 68.617 106.934 67.2237 105.855C63.4751 102.953 63.4228 102.939 60.4057 103.964C59.0071 104.439 57.2354 104.987 56.4681 105.183C54.8571 105.593 54.6102 105.973 53.2642 110.12C52.7651 111.658 52.2496 113.035 52.1188 113.179C51.8525 113.473 46.1211 113.115 45.5625 112.77C45.3656 112.648 44.9997 110.987 44.7491 109.079C44.499 107.171 44.1376 105.329 43.9466 104.986C43.7553 104.643 41.8922 103.478 39.8058 102.396L36.0122 100.431L32.3826 102.272L28.753 104.113L26.6232 101.557C25.4515 100.151 24.4932 98.8939 24.4932 98.763C24.4932 98.632 25.5288 97.1639 26.7945 95.5007C28.0603 93.8375 29.0959 92.2128 29.0959 91.8906C29.0959 91.5682 28.731 90.2449 28.2851 88.9495C27.8393 87.6545 27.313 85.9544 27.1151 85.1716C26.7048 83.5459 26.0262 83.1356 21.5027 81.7794C19.0044 81.0302 18.9077 80.9644 18.9202 80.0142C18.9376 78.6714 19.4587 74.2497 19.6182 74.0898C19.6892 74.019 21.1479 73.7861 22.8598 73.5725C27.5951 72.9813 27.6355 72.9527 29.9093 68.5391L31.8733 64.7267L30.0345 61.0953L28.1957 57.4639L30.7713 55.3314C32.1879 54.1585 33.4382 53.1987 33.5497 53.1987C33.6611 53.1987 35.0906 54.2351 36.7259 55.5019C38.3615 56.7686 39.9906 57.805 40.346 57.805C40.7017 57.805 42.0513 57.4494 43.3456 57.0147C44.6397 56.5801 46.3266 56.0563 47.0939 55.8506C48.7026 55.4193 48.9531 55.0324 50.3007 50.8955C50.8018 49.3574 51.2814 47.9768 51.3666 47.8274C51.5122 47.5721 55.4998 47.7767 57.4208 48.1377ZM129.957 53.1165L130.05 56.489H128.395H126.74V53.0161V49.5433L128.301 49.6436L129.863 49.744L129.957 53.1165ZM50.137 63.2981C44.7942 63.8051 39.2081 67.4928 36.771 72.1219C35.2448 75.0206 34.6849 77.2783 34.6849 80.5327C34.6849 90.1893 42.069 97.6887 51.6164 97.7288C54.9755 97.743 57.5964 97.0988 60.1927 95.6211C68.9961 90.6097 71.6962 79.2874 66.0996 70.8499C62.689 65.7072 56.3504 62.7085 50.137 63.2981ZM56.3836 69.4166C57.6684 69.8921 58.7711 70.6656 60.1933 72.0886C62.7495 74.6471 63.7055 76.9385 63.7055 80.5077C63.7055 84.077 62.7495 86.3683 60.1933 88.9268C57.6266 91.4952 55.3295 92.4602 51.7808 92.4602C48.2321 92.4602 45.935 91.4952 43.3683 88.9268C40.7915 86.3476 39.8315 84.052 39.8472 80.5077C39.8617 77.2389 40.7934 74.8205 42.9472 72.4624C46.4219 68.6569 51.3278 67.5452 56.3836 69.4166ZM108.822 71.8445C108.46 71.9403 107.832 72.3259 107.425 72.7013C106.796 73.281 106.685 73.7223 106.685 75.6296V77.8755H101.903C97.2641 77.8755 97.0968 77.8995 96.314 78.6833C95.805 79.1923 95.5069 79.8668 95.5069 80.5077C95.5069 81.1487 95.805 81.8232 96.314 82.3322C97.0968 83.1159 97.2641 83.1399 101.903 83.1399H106.685V85.3858C106.685 87.3735 106.782 87.7232 107.532 88.4293C108.321 89.1712 108.668 89.2344 112.511 89.3371C119.384 89.52 120.164 89.1166 120.164 85.3809V83.1399H134.974H149.783L150.59 82.3322C151.099 81.8232 151.397 81.1487 151.397 80.5077C151.397 79.8668 151.099 79.1923 150.59 78.6833L149.783 77.8755H134.974H120.164V75.6296C120.164 73.6413 120.067 73.2925 119.316 72.5861C118.512 71.8294 118.238 71.7856 113.974 71.7294C111.502 71.6968 109.184 71.7488 108.822 71.8445ZM114.904 80.5077V84.127H113.425H111.945V80.5077V76.8885H113.425H114.904V80.5077ZM135.825 99.9442C135.038 100.563 134.959 100.835 134.959 102.905V105.185H116.367C96.7335 105.185 96.2716 105.218 95.711 106.68C95.2925 107.771 95.5213 109.032 96.265 109.731C97.0218 110.442 97.0491 110.444 115.909 110.529L134.795 110.613L134.959 113.028C135.208 116.683 135.378 116.771 141.956 116.64C146.992 116.54 147.206 116.508 147.811 115.759C148.293 115.163 148.438 114.456 148.438 112.716C148.438 110.562 148.476 110.449 149.203 110.449C150.282 110.449 151.397 109.142 151.397 107.878C151.397 106.69 150.519 105.636 149.268 105.322C148.488 105.126 148.438 104.986 148.438 102.995C148.438 101.185 148.321 100.76 147.631 100.07C146.844 99.2822 146.699 99.2621 141.758 99.2621C137.13 99.2621 136.617 99.321 135.825 99.9442ZM143.178 107.981V111.436H141.699H140.219V107.981V104.526H141.699H143.178V107.981Z" fill="url(#paint0_linear_65_837)"/>
<defs>
<linearGradient id="paint0_linear_65_837" x1="6.25849e-07" y1="66" x2="168" y2="66" gradientUnits="userSpaceOnUse">
<stop stop-color="#874FFF"/>
<stop offset="0.515625" stop-color="#FF6068"/>
<stop offset="1" stop-color="#FEB14B"/>
</linearGradient>
</defs>
</svg>
