<svg width="180" height="47" viewBox="0 0 180 47" fill="none" xmlns="http://www.w3.org/2000/svg">
<path fill-rule="evenodd" clip-rule="evenodd" d="M19.4017 0.408112C8.81065 1.98919 1.90471 5.91327 0.390122 11.2101C-0.542661 14.4716 0.195047 17.2193 2.6272 19.5422C3.94291 20.7986 4.61255 20.378 5.11906 17.977C5.72178 15.1191 7.36261 11.977 8.99888 10.5467C10.2556 9.44808 14.9306 6.82636 15.6329 6.82636C15.7919 6.82636 15.569 7.21757 15.1378 7.69614C13.4103 9.61315 11.9877 13.2921 9.72023 21.7094C8.91826 24.686 7.65731 29.1362 6.91846 31.5982C6.17923 34.0607 5.46054 37.1049 5.32136 38.3632C5.10081 40.3564 5.17458 40.7886 5.89328 41.7144C7.64857 43.9766 12.1486 42.631 14.1723 39.2388C14.7846 38.2125 16.5916 32.6768 18.3491 26.4449C18.5952 25.5716 18.8823 25.5925 19.9021 26.5581C21.0635 27.6583 21.7506 29.5042 22.6104 33.8338C24.0972 41.3209 25.865 44.6114 29.3646 46.4059C31.0134 47.2513 33.5904 47.1906 36.0671 46.2485C39.8324 44.8163 40.191 43.4335 37.0679 42.3855C33.7509 41.2726 31.9679 38.2948 30.9564 32.1769C30.5487 29.7125 29.8528 27.1001 29.2961 25.9431C28.7691 24.8479 28.3379 23.8579 28.3379 23.7435C28.3379 23.6287 28.9436 23.4195 29.6844 23.2781C33.6574 22.5204 37.2919 19.659 39.0423 15.9108C41.1516 11.3941 40.2066 5.84292 36.8478 3.01863C33.7577 0.419706 26.5484 -0.658825 19.4017 0.408112ZM174.448 5.47258C169.004 7.87744 160.913 21.7179 159.733 30.6446C158.777 37.8673 165.221 42.2638 171.832 38.9006C174.197 37.6972 177.481 34.1075 178.082 32.0702C178.64 30.1753 178.677 28.2188 178.16 27.8941C177.951 27.7623 176.539 28.9452 175.023 30.5224C172.186 33.4747 170.725 34.2122 169.276 33.424C168.145 32.8086 168.586 26.3641 170.091 21.5161C172.64 13.3065 174.89 8.75806 175.896 9.78092C176.366 10.2583 174.951 14.913 173.358 18.1336C172.244 20.3865 172.159 20.7425 172.737 20.7414C175.515 20.7356 179.375 15.2211 179.924 10.4775C180.237 7.76805 179.589 6.13555 177.918 5.42581C176.381 4.77327 176.02 4.77792 174.448 5.47258ZM26.8225 6.53643C29.1566 7.73905 29.9707 9.31433 29.9707 12.6269C29.9707 15.4442 29.0604 17.6388 27.1332 19.468C25.3783 21.1337 22.0921 22.0124 20.7794 21.167C20.352 20.8918 20.544 19.9628 21.8251 16.1103C23.5827 10.8247 23.7367 9.14153 22.6324 7.30029C22.2149 6.60408 21.8734 5.95193 21.8734 5.85065C21.8734 5.29824 25.3566 5.78107 26.8225 6.53643ZM48.0727 6.53952C46.6509 7.49976 45.0694 10.2954 45.0694 11.8475C45.0694 12.393 45.336 13.226 45.6615 13.6984C47.3898 16.2073 52.5092 12.6404 52.9553 8.61657C53.1154 7.17195 53.0154 6.8422 52.2533 6.29946C51.0266 5.42581 49.5998 5.50776 48.0727 6.53952ZM84.4452 15.3746C78.6089 17.4149 74.1032 22.651 72.778 28.9332C72.2696 31.3416 72.9274 34.6467 74.2271 36.2174C76.5639 39.0401 81.8499 40.6521 85.8099 39.7491C93.0634 38.095 97.5848 32.8418 97.676 25.9616C97.7601 19.6087 93.9494 16.4806 89.0049 18.8433C86.3244 20.1244 86.2027 20.4878 87.8405 22.3306C89.7281 24.4548 90.321 26.0363 90.3191 28.9452C90.3168 32.7286 88.4128 35.4071 85.7137 35.4241C82.9218 35.4415 81.1943 33.0193 81.1943 29.0878C81.1943 23.28 85.2194 17.3902 89.6692 16.6874C92.0782 16.3066 92.6022 16.1017 92.6022 15.5397C92.6022 15.2579 92.3314 14.9215 92.0006 14.7924C90.7256 14.2949 86.6309 14.6107 84.4452 15.3746ZM63.0569 15.726C60.4244 17.0871 56.4046 21.7337 54.5265 25.5867C52.9671 28.7863 52.8808 29.1385 52.8731 32.3594C52.864 36.0322 53.2633 37.0098 55.4498 38.6694C57.0986 39.9207 60.5096 39.9888 63.0204 38.8202C66.7048 37.1053 69.4062 33.8218 69.4062 31.0582C69.4062 29.8884 68.6388 29.6774 67.8585 30.633C66.9063 31.7996 64.1316 33.4998 63.1801 33.4998C60.9184 33.4998 60.4183 29.9731 61.9279 24.6732C62.8927 21.2872 64.4088 18.6005 65.01 19.2117C65.3389 19.5461 65.1336 20.9173 64.216 24.512C63.9266 25.6454 64.8107 25.6671 66.7253 24.5731C69.8454 22.7906 71.1714 18.4946 69.2887 16.2691C68.0589 14.816 65.2849 14.574 63.0569 15.726ZM148.881 16.0871C147.282 16.646 146.283 17.3647 144.636 19.1421C140.927 23.1431 138.698 27.6896 138.345 31.9713C138.093 35.031 138.595 36.832 140.113 38.3103C141.596 39.7553 145.325 40.1295 148.025 39.1043C150.308 38.2368 154.38 35.5208 156.07 33.7379C157.161 32.5879 157.289 32.2774 156.879 31.7761C156.088 30.8073 154.466 31.088 152.465 32.5403C149.85 34.4388 147.982 34.9139 146.663 34.0162L145.649 33.3258L147.191 33.1066C150.429 32.6474 154.694 28.9784 156.48 25.1166C157.513 22.8807 157.638 19.5372 156.753 17.7992C156.04 16.4002 154.068 15.3255 152.246 15.3437C151.545 15.3506 150.031 15.685 148.881 16.0871ZM44.5192 16.9236C43.1586 18.5669 42.6319 19.6775 41.5083 23.2715C39.6796 29.1219 39.3252 33.0796 40.3245 36.5011C41.0173 38.8724 42.4589 40.2315 43.9123 39.8836C45.5337 39.4951 46.2102 38.3072 46.2102 35.8474C46.2102 32.637 46.8125 29.6615 48.5454 24.3102C49.8782 20.1932 50.0261 19.4046 49.6622 18.3435C48.6617 15.4268 46.298 14.7743 44.5192 16.9236ZM120.551 16.4427C118.802 17.2785 117.763 18.3601 113.819 23.4489C110.869 27.254 109.714 28.4732 109.714 27.7805C109.714 27.5597 110.313 25.5592 111.045 23.3353C111.777 21.1117 112.376 18.9295 112.376 18.4861C112.376 17.331 110.914 16.1041 109.537 16.1041C106.937 16.1041 105.602 18.2217 104.187 24.5928C103.583 27.3127 102.646 30.0678 101.54 32.3791C100.598 34.3468 99.8272 36.3469 99.8272 36.8247C99.8272 38.0841 101.605 40.0715 102.732 40.0715C104.742 40.0715 105.795 39.1403 111.805 32.0529C113.269 30.3264 114.576 28.9019 114.708 28.8872C114.841 28.8729 114.541 30.287 114.043 32.0304C112.92 35.9565 112.89 37.7165 113.925 39.0529C114.573 39.8914 115.024 40.0715 116.473 40.0715C118.23 40.0715 118.243 40.0615 122.86 35.1879L127.486 30.304L127.441 34.898C127.398 39.2694 127.448 39.5806 128.457 41.3255C129.85 43.7362 131.482 44.5855 134.329 44.3841C135.699 44.2867 135.79 42.7961 134.572 40.4082C133.659 38.6184 133.518 37.9055 133.546 35.2394C133.568 33.1573 133.831 31.4521 134.351 30.0206C134.776 28.8513 135.516 26.8287 135.996 25.526C137.056 22.651 136.758 20.5388 135.165 19.6331C133.412 18.6365 132.27 19.3362 127.464 24.3481C124.734 27.1956 122.877 28.8586 122.762 28.559C122.657 28.2865 123.2 26.1232 123.967 23.7516C125.764 18.2012 125.563 16.544 123.021 15.9413C122.458 15.808 121.453 16.0121 120.551 16.4427ZM150.782 21.2822C150.782 24.0667 149.523 28.0665 148.015 30.0705C146.258 32.4066 145.839 32.4073 145.839 30.0759C145.839 26.6416 149.002 19.1966 150.461 19.1966C150.638 19.1966 150.782 20.1352 150.782 21.2822Z" fill="url(#paint0_linear_65_748)"/>
<path d="M85.7575 32.7266C83.8562 32.7266 81.4225 30.4845 84.6167 23.8355C87.025 26.0261 90.6249 30.8711 85.7575 32.7266Z" fill="url(#paint1_linear_65_748)"/>
<defs>
<linearGradient id="paint0_linear_65_748" x1="6.70552e-07" y1="23.5" x2="180" y2="23.5" gradientUnits="userSpaceOnUse">
<stop stop-color="#874FFF"/>
<stop offset="0.515625" stop-color="#FF6068"/>
<stop offset="1" stop-color="#FEB14B"/>
</linearGradient>
<linearGradient id="paint1_linear_65_748" x1="6.70552e-07" y1="23.5" x2="180" y2="23.5" gradientUnits="userSpaceOnUse">
<stop stop-color="#874FFF"/>
<stop offset="0.515625" stop-color="#FF6068"/>
<stop offset="1" stop-color="#FEB14B"/>
</linearGradient>
</defs>
</svg>
