<svg width="133" height="132" viewBox="0 0 133 132" fill="none" xmlns="http://www.w3.org/2000/svg">
<path fill-rule="evenodd" clip-rule="evenodd" d="M65.2738 0.405243C64.9644 0.62024 63.7894 1.93317 62.6629 3.32292C56.8312 10.5174 52.0343 21.1894 49.898 31.7225C49.5962 33.2112 49.2901 34.6881 49.2179 35.0044L49.087 35.5795L30.321 35.6489L11.555 35.7182L10.2761 36.3429C8.56876 37.1765 7.1059 38.6753 6.26782 40.4492L5.57991 41.9052L5.50872 77.6737L5.4378 113.442H3.35379C1.48748 113.442 1.20327 113.508 0.632259 114.075C0.0118868 114.69 -0.00525906 114.812 0.000716046 118.522C0.00435307 120.62 0.125414 122.845 0.269856 123.466C1.18794 127.419 4.61454 130.819 8.59733 131.73C10.1711 132.09 122.829 132.09 124.403 131.73C128.409 130.813 131.807 127.442 132.73 123.466C132.875 122.845 132.996 120.62 132.999 118.522C133.005 114.812 132.988 114.69 132.368 114.075C131.796 113.508 131.513 113.442 129.64 113.442H127.55V78.6879C127.55 54.6865 127.462 43.4625 127.267 42.4118C126.746 39.6165 125.201 37.5527 122.724 36.3429L121.445 35.7182L102.679 35.6489L83.913 35.5795L83.7821 35.0044C83.7099 34.6881 83.4038 33.2112 83.102 31.7225C80.7174 19.9651 74.9275 7.90825 68.3925 1.09148C67.2607 -0.0892005 66.2917 -0.302394 65.2738 0.405243ZM68.2107 7.30012C70.4838 10.3537 74.2991 16.8657 73.9855 17.157C73.9406 17.1988 73.0272 16.9974 71.9555 16.7095C69.2036 15.9701 63.7964 15.9701 61.0445 16.7095C59.9728 16.9974 59.0594 17.1988 59.0145 17.157C58.8901 17.0415 60.7029 13.5474 62.02 11.3645C63.2023 9.40395 66.2602 5.18211 66.5 5.1785C66.5714 5.17747 67.3412 6.13233 68.2107 7.30012ZM71.0154 20.7669C72.7882 21.2278 76.1628 22.6456 76.4143 23.0352C77.1544 24.1816 79.3992 33.5358 80.0458 38.1672C80.5555 41.8199 80.4856 51.0808 79.925 54.1503C79.002 59.2043 77.4926 63.3385 75.3855 66.5846L74.4235 68.0666L71.5009 68.0687L68.5783 68.071V54.9409C68.5783 41.8982 68.5819 41.8098 69.115 41.642C69.9518 41.3785 71.4185 39.9865 71.9358 38.9651C74.0068 34.874 71.1014 30.1757 66.5 30.1757C61.8987 30.1757 58.9932 34.874 61.0642 38.9651C61.5814 39.9865 63.0482 41.3785 63.885 41.642C64.4181 41.8098 64.4217 41.8982 64.4217 54.9409V68.071L61.4991 68.0687L58.5765 68.0666L57.6145 66.5846C55.5074 63.3385 53.998 59.2043 53.075 54.1503C52.5146 51.0831 52.4445 41.8214 52.9537 38.1672C53.4763 34.4174 54.7114 28.8161 55.7191 25.6252C56.5177 23.0973 56.7133 22.7183 57.342 22.4838C57.7353 22.3371 58.8152 21.9037 59.7419 21.5212C63.1272 20.1237 67.4339 19.8355 71.0154 20.7669ZM67.8579 34.7515C69.0625 36.1129 68.2484 38.1507 66.5 38.1507C66.1428 38.1507 65.665 38.0095 65.4382 37.8368C63.818 36.6022 64.509 34.3004 66.5 34.3004C67.0876 34.3004 67.6132 34.4749 67.8579 34.7515ZM48.3811 43.9031L48.2364 48.0922L46.5548 49.8967C42.3289 54.4318 39.8528 59.227 38.5679 65.3642C37.7249 69.3904 38.1705 76.75 39.4538 80.0054C39.8456 80.9992 41.1578 81.5354 42.1821 81.1206C42.8238 80.861 43.1132 80.3916 44.0362 78.1156C45.2621 75.0924 46.4818 72.9177 48.0993 70.8714C49.2912 69.3633 52.1483 66.5242 52.4741 66.5242C52.5861 66.5242 53.2249 67.3956 53.8938 68.4608C54.5628 69.526 55.4946 70.802 55.9649 71.2965L56.8193 72.1956H66.5H76.1807L77.0351 71.2965C77.5054 70.802 78.4372 69.526 79.1062 68.4608C79.7751 67.3956 80.4139 66.5242 80.5259 66.5242C80.8517 66.5242 83.7088 69.3633 84.9007 70.8714C86.5182 72.9177 87.7379 75.0924 88.9638 78.1156C89.899 80.422 90.171 80.8587 90.841 81.1302C91.9989 81.5988 93.2331 80.9144 93.7031 79.5427C94.9631 75.8653 95.2325 69.1269 94.2905 64.8486C92.9679 58.8416 90.6321 54.39 86.4452 49.8967L84.7636 48.0922L84.6189 43.9031L84.4741 39.714H102.466H120.459L121.328 40.2948C121.805 40.6144 122.436 41.2814 122.73 41.7771C123.26 42.6732 123.264 42.8949 123.333 78.0604L123.402 113.442H114.016H104.629L105.046 112.811C105.275 112.463 105.762 111.294 106.128 110.213C107.341 106.628 107.002 102.789 105.151 99.1513C104.147 97.1764 101.43 94.4876 99.3389 93.3984C93.9725 90.6032 87.1804 91.5305 82.8759 95.6459L81.3718 97.0836L80.4955 96.7054C79.9476 96.469 78.7432 96.3236 77.2812 96.3172C75.279 96.3086 74.729 96.4061 73.4532 96.9962C72.6336 97.3751 71.569 97.9833 71.0873 98.3478C70.2466 98.9843 70.1744 98.9951 69.2735 98.6216C68.0437 98.1116 64.9465 98.1158 63.7088 98.6288C62.8079 99.0026 62.7152 98.9946 62.0938 98.4916C61.7308 98.198 60.6743 97.5852 59.7455 97.1297C58.2128 96.378 57.8413 96.303 55.7188 96.3146C54.2625 96.3226 53.0503 96.47 52.5045 96.7054L51.6282 97.0836L50.1241 95.6459C47.5319 93.1677 43.9983 91.7849 40.2719 91.7909C32.5006 91.803 26.1675 98.1008 26.186 105.799C26.1922 108.372 26.5367 109.946 27.5267 111.926L28.2848 113.442H18.9421H9.59933L9.66792 78.0604C9.73598 42.8938 9.73988 42.6732 10.2701 41.7771C10.5637 41.2814 11.1947 40.6144 11.6724 40.2948L12.5412 39.714H30.5335H48.5258L48.3811 43.9031ZM50.3085 60.5829L50.8042 62.2465L47.7935 65.2232C46.1376 66.8604 44.2682 68.9849 43.639 69.9444C42.9215 71.0382 42.4323 71.5669 42.3268 71.3622C42.0465 70.8183 42.5318 66.3933 43.1197 64.1345C43.8164 61.4574 45.5074 57.9344 47.2893 55.4467L48.669 53.5205L49.241 56.2201C49.5556 57.7047 50.036 59.668 50.3085 60.5829ZM86.2189 56.2126C88.1665 58.9937 89.6122 62.4442 90.284 65.9141C90.6436 67.7727 90.8439 71.3259 90.6025 71.5654C90.5306 71.637 89.9642 70.909 89.3441 69.9477C88.7243 68.9864 86.8642 66.8625 85.2109 65.2276L82.2049 62.2555L82.7681 60.3295C83.0781 59.2705 83.542 57.3232 83.7992 56.0023L84.2674 53.6007L84.7467 54.1977C85.0104 54.5261 85.6728 55.4328 86.2189 56.2126ZM59.0075 74.4129C57.6633 75.3471 57.6722 75.3938 61.3157 86.27C64.1183 94.6353 64.8322 96.5082 65.3827 96.9379C65.75 97.2246 66.2527 97.4592 66.5 97.4592C66.7473 97.4592 67.25 97.2246 67.6173 96.9379C68.5809 96.1857 75.2133 76.4623 74.8348 75.4745C74.2897 74.0517 73.9988 74.0002 66.5 74.0002C60.595 74.0002 59.5159 74.0597 59.0075 74.4129ZM69.8312 78.4783C69.5603 79.6193 66.6068 88.4347 66.4953 88.4354C66.3849 88.4362 63.4517 79.6533 63.1687 78.4747C63.1012 78.1937 63.7556 78.1248 66.5 78.1248C69.2613 78.1248 69.8993 78.1926 69.8312 78.4783ZM44.43 96.7255C46.1706 97.5192 47.5207 98.6592 48.876 100.479C50.1069 102.133 50.7837 102.227 53.0926 101.065C55.7586 99.7233 57.8031 100.12 60.0245 102.411C61.2557 103.68 61.6113 103.904 62.3959 103.904C62.9168 103.904 63.4659 103.728 63.6566 103.5C64.2237 102.822 65.3801 102.357 66.5 102.357C67.6199 102.357 68.7763 102.822 69.3434 103.5C69.5341 103.728 70.0832 103.904 70.6041 103.904C71.3887 103.904 71.7443 103.68 72.9755 102.411C75.1969 100.12 77.2414 99.7233 79.9074 101.065C82.2163 102.227 82.8931 102.133 84.124 100.479C85.4715 98.6695 86.8211 97.5259 88.57 96.7118C89.8208 96.1297 90.3531 96.0413 92.6086 96.0413C94.8872 96.0413 95.3902 96.1267 96.701 96.7363C98.6396 97.6378 100.785 99.6674 101.648 101.416C103.403 104.972 102.851 109.377 100.263 112.475L99.455 113.442H66.5H33.545L32.7373 112.475C30.1672 109.399 29.5933 104.92 31.3274 101.47C32.4993 99.1379 34.9055 97.1042 37.4781 96.2715C39.2356 95.7028 42.6799 95.9279 44.43 96.7255ZM46.4964 119.462C46.4964 121.541 46.9557 122.54 48.3988 123.601C49.126 124.136 49.2849 124.141 66.5 124.141C83.7151 124.141 83.874 124.136 84.6012 123.601C86.0443 122.54 86.5036 121.541 86.5036 119.462V117.567H107.676H128.849V119.841C128.849 122.812 128.342 124.282 126.783 125.829C124.52 128.074 130.273 127.879 66.5 127.879C2.72693 127.879 8.48017 128.074 6.2169 125.829C4.65818 124.282 4.15108 122.812 4.15108 119.841V117.567H25.3237H46.4964V119.462ZM82.347 118.856V120.145H66.5H50.653V118.856V117.567H66.5H82.347V118.856Z" fill="url(#paint0_linear_65_853)"/>
<defs>
<linearGradient id="paint0_linear_65_853" x1="4.95464e-07" y1="66" x2="133" y2="66" gradientUnits="userSpaceOnUse">
<stop stop-color="#874FFF"/>
<stop offset="0.515625" stop-color="#FF6068"/>
<stop offset="1" stop-color="#FEB14B"/>
</linearGradient>
</defs>
</svg>
