<svg width="132" height="50" viewBox="0 0 132 50" fill="none" xmlns="http://www.w3.org/2000/svg">
<path fill-rule="evenodd" clip-rule="evenodd" d="M102.359 7.5H109.951L110.115 0H102.195L102.359 7.5ZM0.000584304 37.0588H8.17754V25.2941H12.2091L13.9166 27.6744C14.8561 28.9835 15.8215 30.3056 16.0625 30.6124C16.3034 30.9191 17.4861 32.495 18.6908 34.1144L20.881 37.0582L25.8456 37.0541C28.5761 37.0518 30.6779 36.9526 30.5164 36.8338C30.3549 36.715 29.6409 35.8235 28.9295 34.8529C28.2184 33.8824 26.0436 31.0368 24.0969 28.5294C22.1505 26.0221 20.4614 23.8103 20.344 23.6141C20.2064 23.3847 20.5236 23.0538 21.2358 22.6844C24.9342 20.7653 27.2588 15.8444 26.2988 11.9659C25.4995 8.73706 23.5277 6.70853 20.0131 5.49971C19.5207 5.3303 14.8902 5.11971 9.56441 5.02412L0 4.85294L0.000584304 37.0588ZM15.9868 11.2759C18.7261 12.7262 18.7363 16.8265 16.0049 18.61C14.8526 19.3626 14.5754 19.4118 11.4775 19.4118H8.17754V10.5156L11.6089 10.6453C14.0752 10.7385 15.3064 10.9159 15.9868 11.2759ZM38.479 12.5171C33.9677 13.6182 30.9524 16.475 29.6707 20.8624C29.0644 22.9376 29.0644 27.0624 29.6707 29.1376C30.2942 31.2712 31.8998 33.8903 33.2314 34.9456C36.6707 37.6715 41.6668 38.6082 46.288 37.3938C48.961 36.6918 50.3747 35.9377 51.9943 34.3515C56.6295 29.8109 56.6645 20.3191 52.0633 15.685C49.0343 12.6341 43.3907 11.3179 38.479 12.5171ZM71.6693 12.5012C70.1288 12.9194 68.5822 13.7206 66.9494 14.9459L66.0003 15.6579V12.9412H58.4074V37.0588H66.0003V19.685L67.3875 19.0703C70.4249 17.7247 73.0985 18.2353 73.7958 20.2941C74.0298 20.9853 74.1498 23.9079 74.1609 29.1912L74.1772 37.0588H82.0622V19.7179L83.2502 19.1074C85.9544 17.7179 88.9337 18.1759 89.6886 20.0974C89.9389 20.7344 90.0917 23.5653 90.1714 29.0441L90.2879 37.0588L97.686 37.0594L97.54 27.2797C97.4383 20.4638 97.285 17.2535 97.0345 16.6871C95.9977 14.3415 94.1562 12.8712 91.6076 12.3538C88.8905 11.8024 86.3092 12.6438 82.5829 15.2956L81.2056 16.2759L79.6625 14.6647C78.3895 13.3353 77.8099 12.9668 76.3482 12.5562C74.2608 11.97 73.651 11.9629 71.6693 12.5012ZM102.213 37.0588H110.097V12.9412H102.213V37.0588ZM114.478 37.0588H122.071V28.9809C122.071 20.9112 122.071 20.9026 122.728 20.5279C123.151 20.2862 124.917 20.1159 127.693 20.0494L132 19.9462V12.9412H130.083C127.889 12.9412 125.884 13.6741 123.874 15.2106C123.179 15.7418 122.489 16.1765 122.34 16.1765C122.192 16.1765 122.071 15.4485 122.071 14.5588V12.9412H114.478V37.0588ZM44.1272 17.6891C46.5073 18.495 47.6021 20.8594 47.6021 25.1935C47.6021 29.5121 46.4454 31.6647 43.7315 32.3956C40.9563 33.1432 38.1324 31.5656 37.383 28.8485C37.0098 27.4953 37.0063 22.5176 37.3774 21.1715C38.177 18.2735 41.2186 16.7041 44.1272 17.6891Z" fill="url(#paint0_linear_65_740)"/>
<path d="M58.4074 42.6471H66.0003V50H58.4074V42.6471Z" fill="url(#paint1_linear_65_740)"/>
<path d="M74.1772 42.6471H82.0622V50H74.1772V42.6471Z" fill="url(#paint2_linear_65_740)"/>
<path d="M90.2391 42.6471H97.54V50H90.2391V42.6471Z" fill="url(#paint3_linear_65_740)"/>
<defs>
<linearGradient id="paint0_linear_65_740" x1="4.91738e-07" y1="25" x2="132" y2="25" gradientUnits="userSpaceOnUse">
<stop stop-color="#874FFF"/>
<stop offset="0.515625" stop-color="#FF6068"/>
<stop offset="1" stop-color="#FEB14B"/>
</linearGradient>
<linearGradient id="paint1_linear_65_740" x1="4.91738e-07" y1="25" x2="132" y2="25" gradientUnits="userSpaceOnUse">
<stop stop-color="#874FFF"/>
<stop offset="0.515625" stop-color="#FF6068"/>
<stop offset="1" stop-color="#FEB14B"/>
</linearGradient>
<linearGradient id="paint2_linear_65_740" x1="4.91738e-07" y1="25" x2="132" y2="25" gradientUnits="userSpaceOnUse">
<stop stop-color="#874FFF"/>
<stop offset="0.515625" stop-color="#FF6068"/>
<stop offset="1" stop-color="#FEB14B"/>
</linearGradient>
<linearGradient id="paint3_linear_65_740" x1="4.91738e-07" y1="25" x2="132" y2="25" gradientUnits="userSpaceOnUse">
<stop stop-color="#874FFF"/>
<stop offset="0.515625" stop-color="#FF6068"/>
<stop offset="1" stop-color="#FEB14B"/>
</linearGradient>
</defs>
</svg>
