<svg width="162" height="128" viewBox="0 0 162 128" fill="none" xmlns="http://www.w3.org/2000/svg">
<path fill-rule="evenodd" clip-rule="evenodd" d="M2.18257 0.7264C0.162633 2.0912 0.000949219 2.83168 0.000949219 10.72C0.000949219 16.7843 0.0775195 17.9142 0.554344 18.8736C1.38491 20.5456 2.91695 21.44 4.95113 21.44H6.64453V63.84V106.24H5.28778C3.42984 106.24 1.30233 107.394 0.577125 108.795C0.0683437 109.778 0 110.763 0 117.12C0 125.462 0.143649 126.036 2.54264 127.28C3.92059 127.995 4.03418 128 17.944 128H31.957H34.6446H37.0195H97.5443H158.069L159.457 127.28C161.856 126.036 162 125.462 162 117.12C162 110.763 161.932 109.778 161.423 108.795C160.698 107.394 158.57 106.24 156.712 106.24H155.355V63.84V21.44H157.049C159.083 21.44 160.615 20.5456 161.446 18.8736C161.922 17.9142 161.999 16.7843 161.999 10.72C161.999 2.83168 161.837 2.0912 159.817 0.7264L158.742 0H81H3.25772L2.18257 0.7264ZM156.938 10.72V16.32H81H5.0625V10.72V5.12H81H156.938V10.72ZM150.293 63.84V106.24H81H11.707V63.84V21.44H81H150.293V63.84ZM75.5388 32.4848C69.0272 33.7328 63.2756 36.7738 58.7326 41.3706C54.6896 45.4611 51.922 50.3923 50.4317 56.16C49.7552 58.7782 49.6005 60.1162 49.5818 63.52C49.5489 69.4342 50.3684 73.1049 52.8788 78.2896L54.1425 80.8995L52.6209 82.3209C51.7843 83.1027 49.4809 85.2041 47.5024 86.991L43.9055 90.24H36.8031C29.609 90.24 28.7964 90.3545 27.933 91.4921C27.3454 92.2662 27.4539 93.5792 28.1833 94.5168L28.8388 95.36H37.3211H45.803L49.2423 92.2688C51.1341 90.569 53.7138 88.2473 54.9753 87.1101L57.2689 85.0419L59.4081 87.0809C63.0414 90.544 67.3752 93.0666 72.3659 94.6227C74.9642 95.4333 75.5303 95.4899 81 95.4899C86.4678 95.4899 87.0364 95.433 89.6306 94.624C91.1579 94.1475 93.6496 93.1267 95.1677 92.3555C110.566 84.5325 116.861 65.7114 109.322 50.0374C108.537 48.4051 107.895 47.0131 107.895 46.9443C107.895 46.8755 110.231 44.7088 113.087 42.1296L118.279 37.44H125.599H132.919L133.696 36.6544C134.639 35.7011 134.71 34.2874 133.868 33.2355C133.264 32.4806 133.257 32.48 124.892 32.3853L116.521 32.2906L115.46 33.1853C114.877 33.6774 112.234 36.0378 109.588 38.4304L104.776 42.7805L102.82 40.8982C99.0314 37.2525 93.5572 34.1978 88.5798 32.9523C85.0282 32.0637 78.8851 31.8435 75.5388 32.4848ZM28.8926 32.6422C27.3938 33.2531 27.0768 35.4134 28.3041 36.6544L29.0806 37.44H37.279C45.0939 37.44 45.5163 37.409 46.3108 36.7766C47.4306 35.8861 47.4565 34.2067 46.3678 33.1056L45.5913 32.32L37.5875 32.3402C33.1856 32.3514 29.273 32.4874 28.8926 32.6422ZM78.4688 39.4634V41.807L76.6494 42.1533C70.8399 43.2595 65.2464 47.2621 62.0723 52.584C58.9512 57.8173 58.1703 65.1571 60.1238 70.8992C60.469 71.9146 60.7158 72.768 60.6719 72.7962C59.1281 73.7856 57.1945 74.88 56.9901 74.88C56.5352 74.88 55.1243 70.0761 54.7348 67.2C53.0895 55.0563 60.6617 42.7229 72.2412 38.6864C73.6815 38.1843 75.6363 37.6432 76.5852 37.4842C77.5341 37.3251 78.3463 37.1779 78.3896 37.1574C78.433 37.137 78.4688 38.1747 78.4688 39.4634ZM89.5322 38.5987C93.7537 40.0301 97.5955 42.6102 100.743 46.128C101.718 47.2176 102.514 48.1926 102.512 48.2944C102.51 48.3965 101.67 48.9459 100.644 49.5152L98.7808 50.5504L96.4558 48.209C93.2149 44.9453 88.9624 42.671 84.9671 42.065L83.5312 41.8474V39.5322V37.217L85.3398 37.5037C86.3346 37.6614 88.221 38.1542 89.5322 38.5987ZM28.3041 43.6656C26.9009 45.0845 27.5514 47.3526 29.5036 47.8483C29.9036 47.9498 33.7643 47.9894 38.0833 47.9363C45.9014 47.8403 45.9384 47.8368 46.5402 47.0845C47.3793 46.0358 47.3211 44.4394 46.4124 43.5757C45.6989 42.8979 45.4663 42.88 37.3802 42.88H29.0806L28.3041 43.6656ZM115.543 43.6205C114.688 44.5411 114.651 46.0739 115.46 47.0845C116.062 47.8368 116.099 47.8403 123.917 47.9363C128.236 47.9894 132.096 47.9498 132.496 47.8483C134.449 47.3526 135.099 45.0845 133.696 43.6656L132.919 42.88H124.575C116.263 42.88 116.229 42.8829 115.543 43.6205ZM84.5618 47.1894C88.8548 48.1094 92.7213 50.873 95.2902 54.857C99.574 61.5005 98.3745 70.8816 92.5409 76.359C85.8078 82.6813 75.623 82.5232 69.0933 75.9949C63.7688 70.6717 62.5997 62.4653 66.1909 55.6195C66.7162 54.6182 68.0938 52.8733 69.2525 51.7421C73.5429 47.553 78.8684 45.9693 84.5618 47.1894ZM106.122 55.6368C107.181 59.0272 107.67 62.9408 107.403 65.8922C106.564 75.1763 101.689 82.8253 93.6562 87.4608C91.9325 88.4557 87.1022 90.1091 85.0342 90.4122L83.5312 90.6326V88.3625C83.5312 86.1437 83.5509 86.088 84.4014 85.9082C87.1614 85.3238 88.3713 84.9194 90.6504 83.8182C96.366 81.0573 100.485 75.9926 102.222 69.5904C103.356 65.4102 103.009 59.2579 101.434 55.6278C101.255 55.2154 101.617 54.8483 103.046 53.993C104.059 53.3862 104.991 52.9475 105.116 53.0179C105.241 53.088 105.694 54.2666 106.122 55.6368ZM29.4258 55.2659C27.6159 55.935 27.0325 57.8374 28.1833 59.3168L28.8388 60.16H37.359C45.4571 60.16 45.9102 60.1283 46.5117 59.52C47.1904 58.8336 47.3461 57.2986 46.8348 56.3325C46.2538 55.2349 44.768 55.039 37.2097 55.0653C33.1894 55.079 29.6868 55.1696 29.4258 55.2659ZM116.248 55.4886C114.716 56.1757 114.311 58.329 115.488 59.52C116.09 60.1283 116.543 60.16 124.641 60.16H133.161L133.817 59.3168C134.712 58.1661 134.652 56.9226 133.657 55.9757C132.844 55.2026 132.814 55.1997 125.035 55.1245C118.967 55.0656 117.01 55.1466 116.248 55.4886ZM28.3041 68.3056C27.8143 68.8006 27.5273 69.4566 27.5273 70.08C27.5273 70.7034 27.8143 71.3594 28.3041 71.8544L29.0806 72.64H37.279C45.0939 72.64 45.5163 72.609 46.3108 71.9766C47.4885 71.04 47.4885 69.12 46.3108 68.1833C45.5163 67.551 45.0939 67.52 37.279 67.52H29.0806L28.3041 68.3056ZM115.689 68.1833C114.512 69.12 114.512 71.04 115.689 71.9766C116.484 72.609 116.906 72.64 124.721 72.64H132.919L133.696 71.8544C134.186 71.3594 134.473 70.7034 134.473 70.08C134.473 69.4566 134.186 68.8006 133.696 68.3056L132.919 67.52H124.721C116.906 67.52 116.484 67.551 115.689 68.1833ZM64.3991 78.48C66.0314 80.4589 68.8288 82.6093 71.3496 83.8227C73.6287 84.9197 74.8415 85.3245 77.5986 85.9082C78.4491 86.088 78.4688 86.1437 78.4688 88.3625V90.6326L76.9658 90.4122C74.6263 90.0691 70.0523 88.4256 67.9119 87.1587C66.8443 86.5267 65.1164 85.3094 64.0723 84.4534C62.1349 82.8653 59.6473 79.9734 59.7907 79.4758C59.8913 79.1273 62.6813 77.4528 63.174 77.4454C63.3762 77.4426 63.9273 77.9078 64.3991 78.48ZM28.1833 80.8432C27.0787 82.2634 27.4236 83.8934 29.0094 84.7478C30.1124 85.3418 44.6955 85.2589 45.8561 84.6518C47.3584 83.8662 47.64 81.8624 46.4124 80.6957C45.6982 80.0173 45.4695 80 37.2594 80H28.8388L28.1833 80.8432ZM115.543 80.7405C114.378 81.9952 114.667 83.8797 116.144 84.6518C117.304 85.2589 131.888 85.3418 132.991 84.7478C134.576 83.8934 134.921 82.2634 133.817 80.8432L133.161 80H124.696C116.257 80 116.229 80.0022 115.543 80.7405ZM116.279 90.6096C114.679 91.4947 114.341 93.4793 115.588 94.6643C116.302 95.3427 116.531 95.36 124.741 95.36H133.161L133.817 94.5168C134.921 93.0966 134.576 91.4666 132.991 90.6122C132.064 90.1133 117.181 90.1107 116.279 90.6096ZM156.938 117.12V122.88H81H5.0625V117.12V111.36H81H156.938V117.12Z" fill="url(#paint0_linear_65_772)"/>
<defs>
<linearGradient id="paint0_linear_65_772" x1="6.03497e-07" y1="64" x2="162" y2="64" gradientUnits="userSpaceOnUse">
<stop stop-color="#874FFF"/>
<stop offset="0.515625" stop-color="#FF6068"/>
<stop offset="1" stop-color="#FEB14B"/>
</linearGradient>
</defs>
</svg>
