<svg width="30" height="30" viewBox="0 0 30 30" fill="none" xmlns="http://www.w3.org/2000/svg">
<path fill-rule="evenodd" clip-rule="evenodd" d="M14.6204 0.0731625C14.3943 0.178583 14.2082 0.357981 14.0781 0.595925C13.9857 0.764704 13.9747 0.977071 13.9747 2.58378V4.38269L14.1508 4.63095C14.3699 4.93994 14.6565 5.09675 15.002 5.09675C15.3475 5.09675 15.634 4.93994 15.8531 4.63095L16.0292 4.38269V2.58378C16.0292 0.813278 16.0271 0.781189 15.894 0.549228C15.6332 0.0946924 15.0454 -0.125066 14.6204 0.0731625ZM4.62603 4.22323C4.06538 4.5006 3.9026 5.13524 4.24865 5.69484C4.3148 5.80179 4.89253 6.40651 5.53237 7.03856C6.39363 7.88926 6.75417 8.20699 6.92035 8.26155C7.71698 8.52325 8.48337 7.72177 8.18987 6.93385C8.09988 6.69215 5.74962 4.34614 5.4631 4.21197C5.15663 4.06848 4.93286 4.07147 4.62603 4.22323ZM24.5408 4.20874C24.2529 4.34755 21.9025 6.69655 21.8141 6.93385C21.6724 7.31423 21.7801 7.75809 22.0829 8.04091C22.3775 8.31628 22.6475 8.37565 23.0709 8.2582C23.2571 8.20652 23.5347 7.96512 24.4704 7.04126C25.1124 6.40739 25.7036 5.77674 25.7843 5.63987C26.2822 4.79469 25.4094 3.79005 24.5408 4.20874ZM14.2976 7.50436C10.7113 7.82538 7.82886 10.7373 7.49104 14.3805C7.24467 17.0372 8.56192 19.7652 10.8139 21.2619C14.0012 23.3804 18.2238 22.8185 20.6728 19.9501C21.7617 18.6746 22.3619 17.2706 22.5125 15.646C22.8927 11.5453 19.7988 7.89102 15.6183 7.5033C15.2632 7.47039 14.933 7.4471 14.8846 7.45156C14.8361 7.45602 14.572 7.47978 14.2976 7.50436ZM16.5451 9.7534C18.4002 10.3095 19.6905 11.5976 20.267 13.4689C20.4139 13.9459 20.4259 14.0613 20.4259 15.0111C20.4259 15.9609 20.4139 16.0764 20.267 16.5533C19.9671 17.5268 19.479 18.3376 18.8095 18.9743C18.166 19.5865 17.4599 19.9914 16.5451 20.2729C16.0679 20.4198 15.9523 20.4317 15.002 20.4317C14.0516 20.4317 13.9361 20.4198 13.4588 20.2729C11.5879 19.6972 10.313 18.4231 9.73693 16.5533C9.59 16.0764 9.57808 15.9609 9.57808 15.0111C9.57808 14.0613 9.59 13.9459 9.73693 13.4689C10.3603 11.4458 11.8069 10.1139 13.8933 9.64246C14.158 9.58262 14.527 9.56379 15.1487 9.57828C15.8918 9.59559 16.1098 9.62293 16.5451 9.7534ZM0.821699 14.0082C0.722553 14.0331 0.562887 14.0998 0.466794 14.1565C-0.188834 14.5435 -0.144691 15.5853 0.541696 15.9259C0.748616 16.0286 0.914504 16.0378 2.56705 16.0378H4.36704L4.61547 15.8618C4.92464 15.6428 5.08155 15.3564 5.08155 15.0111C5.08155 14.6659 4.9247 14.3795 4.61564 14.1605L4.36728 13.9845L2.68457 13.9738C1.75909 13.9679 0.920785 13.9834 0.821699 14.0082ZM25.701 14.0102C25.2498 14.1221 24.9224 14.5471 24.9224 15.0209C24.9224 15.3568 25.0819 15.6446 25.3885 15.8618L25.6369 16.0378H27.4369C29.2085 16.0378 29.2406 16.0356 29.4727 15.9026C29.8309 15.6974 30 15.4115 30 15.0111C30 14.6107 29.8309 14.3249 29.4727 14.1196C29.2431 13.988 29.1932 13.9842 27.5639 13.9738C26.6438 13.9679 25.8055 13.9844 25.701 14.0102ZM6.9055 21.7673C6.66254 21.837 4.45022 23.9911 4.21965 24.3824C3.85306 25.0046 4.21401 25.7879 4.92024 25.9024C5.35316 25.9727 5.50601 25.8648 6.83429 24.5517C7.52391 23.87 8.12489 23.2273 8.16973 23.1234C8.33022 22.7523 8.25327 22.333 7.9688 22.029C7.68434 21.725 7.3444 21.6413 6.9055 21.7673ZM22.2791 21.8309C21.8259 22.0597 21.6114 22.5381 21.7504 23.0098C21.8089 23.2084 22.0469 23.4803 23.0348 24.4774C24.5245 25.981 24.728 26.0973 25.3351 25.7908C25.7882 25.562 26.0027 25.0836 25.8637 24.6119C25.8052 24.4133 25.5673 24.1414 24.5793 23.1443C23.0897 21.6407 22.8861 21.5244 22.2791 21.8309ZM14.5314 25.0342C14.419 25.094 14.2477 25.2547 14.1508 25.3913L13.9747 25.6396V27.4385C13.9747 29.209 13.9768 29.241 14.1099 29.473C14.3153 29.831 14.6013 30 15.002 30C15.4026 30 15.6886 29.831 15.894 29.473C16.0271 29.241 16.0292 29.209 16.0292 27.4385V25.6396L15.8531 25.3913C15.634 25.0823 15.3475 24.9255 15.002 24.9255C14.8557 24.9255 14.644 24.9744 14.5314 25.0342Z" fill="white"/>
</svg>
