<svg width="52" height="45" viewBox="0 0 52 45" fill="none" xmlns="http://www.w3.org/2000/svg">
<path fill-rule="evenodd" clip-rule="evenodd" d="M45.7747 0.578302C44.7834 0.913128 34.7351 4.26941 23.4451 8.03669C12.1551 11.8039 2.59307 15.0047 2.19624 15.1494C1.29675 15.4774 0.670413 16.019 0.294914 16.7935C-0.082287 17.5715 -0.0999104 18.75 0.255061 19.4525C0.546148 20.0283 1.10669 20.6299 1.58543 20.8802C1.7888 20.9866 4.41979 22.1682 7.432 23.506C10.4442 24.8438 12.924 25.9538 12.9427 25.9727C12.9613 25.9917 13.7416 29.6023 14.6765 33.9964C15.6115 38.3905 16.4574 42.1527 16.5563 42.357C16.941 43.1513 17.8485 43.411 18.6387 42.9528C18.859 42.8251 20.9407 41.2751 23.2647 39.5083L27.4902 36.296L32.3768 40.3468C35.0645 42.5748 37.4826 44.519 37.7505 44.6674C38.3953 45.0245 39.2722 45.0996 40.0664 44.8657C40.8762 44.6273 41.8026 43.7007 42.0483 42.8832C42.1405 42.5764 44.2496 33.5616 46.7351 22.8504C51.6955 1.47374 51.4332 2.8022 50.9027 1.74619C50.364 0.673749 49.4616 0.076619 48.2781 0.00936964C47.6349 -0.0271459 47.4284 0.0198173 45.7747 0.578302ZM48.1798 3.29942C48.1414 3.45288 46.1083 12.2019 43.6618 22.7417C41.2154 33.2815 39.192 41.927 39.1655 41.954C39.1388 41.9809 39.038 41.9335 38.9413 41.8488C38.8445 41.764 35.3859 38.8972 31.2554 35.4779C27.125 32.0586 23.7097 29.2294 23.666 29.1906C23.6223 29.1519 27.1144 25.3869 31.4263 20.824C35.7382 16.2611 39.3672 12.3628 39.4909 12.161C39.6389 11.9197 39.7159 11.6342 39.7162 11.3256C39.7166 10.9259 39.6604 10.7925 39.3345 10.4205C38.9777 10.0133 38.9125 9.98155 38.3582 9.94524L37.7641 9.90629L25.981 16.5431L14.198 23.1798L8.57952 20.6907C5.48932 19.3217 2.99791 18.1643 3.04297 18.1186C3.13138 18.0291 47.8877 3.04563 48.1136 3.02991C48.2131 3.02301 48.2309 3.09554 48.1798 3.29942ZM30.1039 17.7703C30.1039 17.7934 27.868 20.1784 25.1353 23.0701C22.4026 25.9618 20.1055 28.4647 20.0307 28.632C19.9559 28.7994 19.5041 30.3285 19.0267 32.03C18.5493 33.7315 18.1286 35.1586 18.0919 35.2012C18.0317 35.2711 16.062 26.246 16.0431 25.8138C16.0371 25.6768 17.7385 24.673 23.0445 21.6828C26.8997 19.5104 30.0652 17.7318 30.0789 17.7304C30.0926 17.7292 30.1039 17.7471 30.1039 17.7703ZM23.7783 33.2232C24.4573 33.7836 25.012 34.2731 25.0111 34.3108C25.0084 34.418 20.6446 37.7081 20.6152 37.6251C20.6008 37.5845 20.8616 36.5943 21.1948 35.4245C22.2743 31.6346 22.1847 31.8901 22.3757 32.057C22.4682 32.1378 23.0994 32.6626 23.7783 33.2232Z" fill="url(#paint0_linear_65_692)"/>
<defs>
<linearGradient id="paint0_linear_65_692" x1="1.90647e-07" y1="22.5" x2="51.1765" y2="22.5" gradientUnits="userSpaceOnUse">
<stop stop-color="#874FFF"/>
<stop offset="0.515625" stop-color="#FF6068"/>
<stop offset="1" stop-color="#FEB14B"/>
</linearGradient>
</defs>
</svg>
