<svg width="138" height="132" viewBox="0 0 138 132" fill="none" xmlns="http://www.w3.org/2000/svg">
<path fill-rule="evenodd" clip-rule="evenodd" d="M122.095 0.636011C120.707 2.03871 121.531 4.04613 123.613 4.32997L124.798 4.49137L119.969 8.67751C117.314 10.98 115.013 12.8636 114.857 12.8636C114.701 12.8636 111.546 11.5049 107.846 9.84414C104.145 8.18341 100.767 6.826 100.339 6.82738C99.7205 6.82957 97.9251 8.21745 91.6149 13.5713C86.0336 18.307 83.6167 20.5258 83.4914 21.0298C83.1179 22.5343 84.8138 24.1207 86.2191 23.5807C86.6038 23.433 90.0393 20.6576 93.8539 17.413L100.789 11.5137L101.941 12.0204C102.574 12.299 105.755 13.7146 109.009 15.1659C112.264 16.6172 115.157 17.8047 115.437 17.8047C116.029 17.8047 117.016 17.0297 122.922 11.926L127.269 8.17023L127.424 9.29432C127.623 10.7294 128.448 11.5837 129.603 11.5504C131.39 11.4991 131.803 10.4209 132.171 4.85454C132.433 0.880042 132.383 0.82624 127.929 0.348608C123.163 -0.162512 122.871 -0.147964 122.095 0.636011ZM68.7475 1.23442C68.2175 1.91491 68.1844 2.3047 68.1844 7.83479C68.1844 13.7088 68.1847 13.7124 68.8513 14.3858L69.5179 15.0597L75.4389 15.0509C81.7618 15.0415 82.0414 14.9864 82.5455 13.6468C82.9767 12.5005 82.1353 9.18259 80.8931 7.12933C80.0007 5.65443 77.7965 3.3802 76.3698 2.46172C74.7301 1.40626 72.0465 0.511113 70.5217 0.511113C69.5367 0.511113 69.2053 0.646167 68.7475 1.23442ZM62.0084 4.7774C59.7632 5.38817 57.8774 6.48919 56.0665 8.24627C51.5864 12.5935 50.6107 19.1096 53.5915 24.7742C57.6948 32.572 68.4392 34.2654 74.9434 28.1399C77.0753 26.1322 79.0505 21.9631 79.0505 19.4706C79.0505 18.758 78.8603 18.2688 78.4219 17.8524C77.818 17.2795 77.5694 17.2557 72.1739 17.2557H66.5545V11.6073V5.95886L65.7604 5.15649C64.8632 4.24981 64.1949 4.18229 62.0084 4.7774ZM73.4316 5.76643C74.6847 6.4299 76.1756 7.80982 76.9183 8.99319C77.3439 9.67121 77.6922 10.3253 77.6922 10.4469C77.6922 10.5683 76.5309 10.6676 75.1115 10.6676H72.5308V8.05989C72.5308 6.62562 72.6001 5.45213 72.6846 5.45213C72.7691 5.45213 73.1051 5.5935 73.4316 5.76643ZM62.4256 20.7484C62.4555 20.7824 62.8404 20.9985 63.2811 21.2288C63.9151 21.5601 65.1367 21.6477 69.1273 21.6477H74.1719L73.6454 22.6771C73.3558 23.2433 72.5892 24.2252 71.9422 24.8591C67.4042 29.3035 59.7825 27.8695 57.0621 22.0594C56.1154 20.0372 55.9932 17.0657 56.7712 14.9822C57.5804 12.8151 58.8241 11.2507 60.5893 10.1796L62.0722 9.27949L62.2219 14.9833C62.3045 18.1203 62.396 20.7146 62.4256 20.7484ZM123.53 12.9323C122.573 13.6663 122.515 14.6339 122.515 29.7633V44.7057H121.709H120.904L120.826 34.5253L120.749 24.3446L119.987 23.6825C119.248 23.0408 119.087 23.0202 114.773 23.0202C110.459 23.0202 110.297 23.0408 109.559 23.6823L108.796 24.3446L108.716 34.5251L108.636 44.7057H107.833H107.031V31.9203V19.1349L106.237 18.3325L105.443 17.5302H100.955C96.6024 17.5302 96.4435 17.5502 95.7044 18.1925L94.9421 18.8546L94.8617 31.7803L94.7813 44.7057H93.9788H93.1764V37.1358V29.5659L92.3823 28.7636L91.5883 27.9612H87.1218C83.0144 27.9612 82.5977 28.007 81.9395 28.5302L81.2237 29.099V36.8613V44.6237L79.8937 45.459C79.0393 45.9956 78.2868 46.7711 77.7895 47.6275C77.0859 48.8381 77.0057 49.2435 76.9169 52.0404L76.8191 55.1203L77.6422 55.952L78.4653 56.7838H107.299C128.7 56.7838 136.286 56.7014 136.727 56.4645C137.832 55.8694 137.982 55.3871 137.988 52.3918C137.993 49.9235 137.901 49.3077 137.346 48.1049C136.986 47.3223 136.265 46.3657 135.719 45.9448L134.739 45.1897V29.8366C134.739 13.6251 134.71 13.2274 133.504 12.7596C132.631 12.4209 124.002 12.5702 123.53 12.9323ZM130.327 30.7748L130.257 44.5685H128.627H126.997L126.927 30.7748L126.856 16.9812H128.627H130.398L130.327 30.7748ZM102.619 33.2453L102.548 44.5685L100.986 44.6508L99.4244 44.7332V33.3277V21.9222H101.057H102.69L102.619 33.2453ZM116.474 35.9903L116.403 44.5685H114.773H113.143L113.071 36.3365C113.031 31.8089 113.058 27.9486 113.13 27.7583C113.216 27.5327 113.833 27.4122 114.904 27.4122H116.546L116.474 35.9903ZM34.2279 30.1547C25.2612 31.0537 19.0727 33.8435 16.1399 38.3082C13.9496 41.6426 13.0412 46.0214 13.0398 53.2507L13.039 57.2661L12.2271 57.6062C11.1421 58.0602 9.66022 59.7569 9.20086 61.0712C8.94143 61.8137 8.82842 63.5513 8.82869 66.8031C8.82897 71.0639 8.88003 71.5651 9.416 72.5676C10.8183 75.1896 12.841 76.2733 16.3331 76.2733C17.9923 76.2733 18.4721 76.3601 18.4721 76.6601C18.4721 76.8731 19.0836 78.2813 19.8309 79.7897C20.8254 81.7971 21.7066 83.0919 23.1192 84.6204L25.049 86.7085L24.8559 89.1738L24.6627 91.6393L22.8579 92.1743C21.865 92.4686 19.303 93.2117 17.1643 93.8255C11.3374 95.498 8.43588 96.8894 5.20377 99.562C3.63253 100.861 1.80513 103.3 0.810341 105.424L0.000275189 107.155L3.49244e-06 118.715C-0.00026816 129.984 0.0138578 130.294 0.560965 130.997L1.59231 132H16.3225H31.3154H33.9692H38.7462H41.9308H45.1154H60.5077H75.3692L76.0444 130.997C76.5917 130.294 76.6053 129.991 76.5936 118.853C76.5844 110.009 76.4994 107.196 76.2166 106.395C75.1178 103.283 71.8305 99.4802 68.5579 97.5351C65.5806 95.7654 63.7972 95.075 57.5878 93.288C54.3766 92.364 51.6421 91.5015 51.5109 91.3717C51.3794 91.2419 51.2116 90.2781 51.1371 89.23L51.0024 87.3245L52.9018 85.4359C55.1247 83.2262 56.7152 80.8465 57.7497 78.1819L58.4907 76.2733H60.451C63.7535 76.2733 65.8248 75.1331 67.1836 72.5676C67.7114 71.5706 67.7655 71.0403 67.7709 66.8031C67.775 63.5626 67.6644 61.8148 67.4085 61.0836C66.969 59.8269 65.6852 58.2839 64.6127 57.7234L63.8379 57.3188L63.8377 54.1003C63.8371 44.7379 62.4892 39.8622 58.8985 36.2338C55.2491 32.5462 48.6295 30.3968 39.8641 30.0534C38.0343 29.9818 35.4979 30.0274 34.2279 30.1547ZM88.7672 38.4608L88.6941 44.5685L87.1321 44.6508L85.5701 44.7332V38.5432V32.3532H87.2052H88.8403L88.7672 38.4608ZM45.3656 34.9859C50.3874 35.8276 54.5629 37.6475 56.3241 39.7628C57.4471 41.1112 58.3987 43.1751 58.8396 45.2188C59.3685 47.6704 59.6893 56.9024 59.2552 57.1736C58.8051 57.4547 57.2056 56.8672 56.6101 56.2024C56.2045 55.7495 56.0883 55.0791 56.0057 52.7129C55.9312 50.5861 55.7892 49.6539 55.4866 49.3086C55.2573 49.0472 54.0756 48.5268 52.8602 48.1524C49.2706 47.0459 47.8214 45.8353 45.2833 41.8235C44.5265 40.6275 44.2847 40.44 43.4016 40.3662C42.5214 40.2923 42.1463 40.4782 40.5492 41.7782C38.0924 43.7782 35.6896 45.067 32.7338 45.9701C30.5019 46.652 29.9179 46.7154 26.0305 46.6967C20.513 46.6706 20.8276 46.3659 20.6453 51.9108C20.5133 55.9279 20.491 56.0542 19.8303 56.5376C19.4568 56.811 18.7845 57.0709 18.3362 57.1151L17.5213 57.1955L17.5351 52.1173C17.5433 49.0396 17.6875 46.3901 17.9011 45.392C19.0719 39.9204 22.3293 37.0194 29.0103 35.4987C34.6259 34.2204 39.8258 34.0573 45.3656 34.9859ZM43.8729 47.4403C45.7019 49.6745 48.0623 51.2301 51.1078 52.2081C51.4563 52.3198 51.5949 52.8903 51.7478 54.8403C51.9252 57.1049 52.0268 57.4412 52.8735 58.5617C53.3853 59.2392 54.0558 59.9293 54.363 60.0956C54.9082 60.3904 54.9191 60.5609 54.8148 67.169C54.7126 73.6412 54.677 74.0219 54.0104 75.7908C51.9472 81.2629 47.7407 85.1556 42.3543 86.5767C39.7625 87.2602 35.2517 87.0233 32.8161 86.0755C28.0932 84.2374 24.4634 80.5613 22.7908 75.9228C22.2263 74.3568 22.166 73.6428 22.0674 67.3521L21.9601 60.4895L22.7642 59.8033C23.2064 59.4258 23.8885 58.6367 24.28 58.0492C24.9325 57.0706 24.9917 56.7481 24.9917 54.1782V51.3747L27.8427 51.1884C32.783 50.8655 37.6023 49.2787 41.155 46.8043C41.9021 46.2838 42.5937 45.9388 42.6917 46.0368C42.7898 46.1351 43.3214 46.7667 43.8729 47.4403ZM133.156 49.5521C133.492 49.8595 133.653 50.3923 133.653 51.1991V52.3918H107.438H81.2237V51.355C81.2237 50.7846 81.4141 50.0434 81.6466 49.708L82.0693 49.0978H107.364C130.52 49.0978 132.701 49.1362 133.156 49.5521ZM17.4534 61.6386C17.5653 61.7039 17.6571 64.035 17.6571 66.8193V71.8813H16.0574C14.8871 71.8813 14.2854 71.7405 13.8162 71.3568C13.2137 70.8637 13.1689 70.6203 13.0779 67.3298C12.9315 62.0531 13.4367 61.0309 16.0272 61.3633C16.6995 61.4497 17.3415 61.5735 17.4534 61.6386ZM62.3303 61.4939C63.2694 61.9263 63.563 63.1626 63.5647 66.6935C63.5671 71.1635 63.1556 71.8813 60.5901 71.8813H59.2079L59.2818 66.7344L59.3557 61.5875L60.3065 61.4179C60.8294 61.3246 61.3431 61.2318 61.4482 61.212C61.5534 61.192 61.9502 61.3191 62.3303 61.4939ZM105.977 74.5385C105.501 74.9321 105.137 75.8251 104.596 77.9313L103.86 80.79L102.661 81.1647L101.462 81.5396L98.9813 79.8383C96.8855 78.4007 96.3775 78.1644 95.7046 78.3137C94.5026 78.5802 88.0003 84.9767 88.012 85.8809C88.0169 86.2583 88.6895 87.7195 89.5066 89.1279L90.9923 91.6885L90.459 92.745C89.8761 93.8999 89.7804 93.9479 87.2 94.3896C84.6699 94.8224 83.7052 95.181 83.3706 95.8126C83.2089 96.1176 83.0106 98.4857 82.9294 101.075C82.7463 106.925 82.6308 106.716 86.6372 107.787L89.4697 108.545L89.8551 109.713L90.2403 110.881L88.5844 113.358C87.6659 114.731 86.9284 116.136 86.9284 116.512C86.9284 116.989 87.7333 118.076 89.6335 120.168C93.178 124.069 93.8998 124.672 94.7995 124.491C95.1896 124.412 96.569 123.717 97.8648 122.946L100.221 121.545L101.293 122.098C102.416 122.677 102.542 122.975 103.091 126.37C103.345 127.943 103.714 128.81 104.282 129.168C104.848 129.525 113.129 129.967 114.193 129.698C115.081 129.472 115.371 128.91 116.242 125.717L116.949 123.126L118.088 122.706L119.228 122.286L121.711 123.985C123.077 124.919 124.398 125.683 124.645 125.682C125.389 125.681 126.573 124.763 129.7 121.763C133.326 118.285 133.346 118.196 131.245 114.683L129.838 112.328L130.279 111.251C130.523 110.659 130.753 110.14 130.791 110.098C130.829 110.056 132.13 109.777 133.683 109.478C137.086 108.821 137.727 108.31 137.728 106.247C137.729 105.538 137.808 103.396 137.905 101.487C138.077 98.0764 138.068 98.0045 137.428 97.3668C136.977 96.9174 135.952 96.5183 134.101 96.0706C131.551 95.4544 131.407 95.3805 131.045 94.5043C130.477 93.1326 130.539 92.9084 132.116 90.6072C132.915 89.442 133.647 88.2655 133.744 87.9929C134.062 87.0909 133.184 85.7799 130.073 82.5158C127.742 80.0694 126.833 79.2893 126.318 79.2934C125.944 79.2964 124.502 79.972 123.113 80.7949L120.588 82.2912L119.582 81.8295C119.028 81.5756 118.529 81.3376 118.472 81.3005C118.415 81.2638 118.109 79.9124 117.793 78.2981C117.011 74.3096 117.166 74.4073 111.241 74.1805C106.923 74.0153 106.581 74.0386 105.977 74.5385ZM112.679 78.6362C113.483 78.7987 113.517 78.8704 113.96 81.3126C114.21 82.6928 114.549 83.9865 114.713 84.1875C115.125 84.6923 120.025 86.9789 120.694 86.9789C120.994 86.9789 122.193 86.423 123.358 85.7436C124.524 85.0642 125.588 84.5084 125.722 84.5084C125.984 84.5084 128.763 87.3854 128.763 87.6566C128.763 87.7453 128.09 88.8101 127.269 90.0225C126.447 91.235 125.775 92.4088 125.775 92.6308C125.775 92.8526 126.068 93.7409 126.427 94.6045C126.785 95.4681 127.218 96.7 127.388 97.3421C127.769 98.7775 128.232 99.0783 131.309 99.89L133.72 100.526L133.55 102.165C133.457 103.066 133.381 104.079 133.381 104.416C133.381 104.968 133.141 105.075 130.928 105.509C128.56 105.974 127.133 106.68 127.133 107.388C127.133 107.57 126.705 108.621 126.182 109.724C125.659 110.826 125.231 112.024 125.231 112.385C125.231 112.745 125.781 113.981 126.454 115.13C127.126 116.279 127.676 117.307 127.676 117.414C127.676 117.521 127.156 118.105 126.522 118.71C124.409 120.726 124.65 120.699 122.446 119.166C121.364 118.412 120.219 117.714 119.903 117.615C119.545 117.503 118.574 117.739 117.322 118.245C116.219 118.69 114.973 119.141 114.553 119.246C113.521 119.505 113.146 120.179 112.438 123.043L111.836 125.481L109.684 125.332C108.5 125.251 107.467 125.118 107.387 125.038C107.308 124.957 107.07 123.927 106.859 122.748C106.647 121.57 106.359 120.33 106.218 119.994C105.938 119.328 101.157 116.899 100.125 116.899C99.8071 116.899 98.5817 117.455 97.4019 118.135C96.2221 118.814 95.1898 119.37 95.1081 119.37C94.8307 119.37 92.0898 116.509 92.0898 116.219C92.0898 116.061 92.7108 115.007 93.4695 113.877C94.6311 112.146 94.8296 111.669 94.7256 110.86C94.5273 109.319 93.1815 105.833 92.5418 105.204C92.203 104.871 90.9466 104.36 89.577 103.998L87.2 103.371V101.207C87.2 98.7124 87.0965 98.8104 90.324 98.2529C92.7387 97.8359 93.2432 97.4923 93.8419 95.8557C94.1095 95.1252 94.6191 94.0116 94.9747 93.3808C95.3303 92.75 95.6199 91.9471 95.6182 91.5965C95.6166 91.246 95.0679 90.0327 94.3988 88.9004C93.7297 87.7681 93.181 86.7219 93.1794 86.5756C93.1758 86.252 95.9192 83.4104 96.2354 83.4104C96.3593 83.4104 97.3413 84.0104 98.4179 84.7436C99.4945 85.4768 100.632 86.1587 100.945 86.2586C101.308 86.3744 102.218 86.1386 103.443 85.6118C104.503 85.1559 105.544 84.7829 105.757 84.7829C105.969 84.7829 106.463 84.5276 106.856 84.2157C107.533 83.678 107.803 82.9901 108.656 79.636L108.953 78.4693H110.403C111.2 78.4693 112.224 78.5446 112.679 78.6362ZM107.093 89.6003C105.262 90.0986 104.25 90.622 102.481 91.9849C97.2634 96.0058 96.2604 104.226 100.328 109.629C105.905 117.037 117.272 116.116 121.499 107.913C124.214 102.644 123.207 96.6018 118.951 92.6201C115.702 89.5803 111.294 88.4576 107.093 89.6003ZM32.0547 90.451C33.9348 91.14 34.417 91.1985 38.3027 91.2089C42.1387 91.2194 42.6993 91.1568 44.6044 90.5059L46.6954 89.7914L46.8401 90.5125C46.9197 90.9092 47.0034 91.913 47.0259 92.7434C47.0643 94.1549 46.9344 94.4851 45.026 97.8216L42.9854 101.39H38.3051H33.6248L31.3465 97.4099L29.0681 93.4296L29.0673 91.4074C29.0665 89.6036 29.1178 89.4027 29.5419 89.5452C29.8035 89.633 30.9341 90.0406 32.0547 90.451ZM113.396 94.1326C115.208 94.8175 116.995 96.4975 117.909 98.375C118.856 100.318 118.859 103.553 117.918 105.487C114.902 111.678 106.351 111.922 103.112 105.908C102.21 104.234 101.894 101.535 102.386 99.7001C103.05 97.2208 105.589 94.5556 107.945 93.8658C109.465 93.4206 111.817 93.5356 113.396 94.1326ZM28.1491 100.603L30.6809 105.031L29.1521 115.223C27.7908 124.299 27.6645 125.497 27.9967 126.167C28.2021 126.58 28.4145 127.011 28.4691 127.125C28.5237 127.238 23.1184 127.33 16.4572 127.33H4.34616V117.685C4.34616 108.25 4.35947 108.011 4.95521 106.773C6.24229 104.1 10.3097 100.758 13.867 99.4508C15.9615 98.6814 24.8382 96.092 25.2365 96.1343C25.4459 96.1565 26.7566 98.1675 28.1491 100.603ZM56.4053 97.512C62.2143 99.1774 64.6825 100.148 66.9098 101.642C68.7755 102.893 70.7178 105.023 71.6037 106.79L72.2592 108.097V117.714V127.33H60.1416C48.7067 127.33 48.0351 127.303 48.2223 126.85C48.3315 126.586 48.5377 126.061 48.6811 125.683C48.8737 125.176 48.5461 122.398 47.4228 115.015L45.9043 105.033L48.1123 101.153C50.6017 96.778 51.0448 96.0374 51.1725 96.0374C51.2219 96.0374 53.5766 96.7009 56.4053 97.512ZM42.965 114.566C43.6735 119.246 44.2806 121.446 44.3138 121.899C44.3602 122.536 43.7088 122.767 41.4468 126.321C39.2769 127.403 38.4219 127.725 38.3027 127.725C38.1834 127.725 37.1538 127.403 35.1569 126.321C33.1926 123.237 32.2448 122.497 32.2782 122.036C32.35 121.049 34.7804 106.674 34.9173 106.254C35.0043 105.988 35.8404 105.921 38.3543 105.98L41.6763 106.057L42.965 114.566Z" fill="url(#paint0_linear_65_784)"/>
<defs>
<linearGradient id="paint0_linear_65_784" x1="5.1409e-07" y1="66" x2="138" y2="66" gradientUnits="userSpaceOnUse">
<stop stop-color="#874FFF"/>
<stop offset="0.515625" stop-color="#FF6068"/>
<stop offset="1" stop-color="#FEB14B"/>
</linearGradient>
</defs>
</svg>
