<svg width="142" height="122" viewBox="0 0 142 122" fill="none" xmlns="http://www.w3.org/2000/svg">
<path fill-rule="evenodd" clip-rule="evenodd" d="M101.96 0.518435C101.002 1.26222 100.956 2.71641 101.863 3.61125C102.428 4.16895 102.954 4.27458 106.717 4.58928C109.038 4.7833 110.929 5.01974 110.919 5.1147C110.899 5.31556 86.9292 25.4977 86.5712 25.6153C86.4389 25.6589 79.8077 22.8482 71.835 19.3692C61.9084 15.0379 57.1483 13.0917 56.7333 13.1943C56.1656 13.3349 26.325 37.8635 25.5914 38.7922C24.6404 39.9966 25.7251 42.0936 27.2988 42.0936C28.4692 42.0936 26.3952 43.7243 47.7652 26.0009C53.0632 21.6072 57.4755 18.0122 57.5707 18.0122C57.6658 18.0122 64.249 20.8543 72.1997 24.3281C84.4203 29.667 86.7711 30.6087 87.4013 30.4168C88.0242 30.2269 95.884 23.7291 111.06 10.8573C112.594 9.55607 113.867 8.50935 113.89 8.53124C113.912 8.55341 113.76 10.4153 113.552 12.6694C113.217 16.2945 113.222 16.8407 113.596 17.4022C114.495 18.7574 116.354 18.8794 117.179 17.6373C117.65 16.9285 118.793 5.85903 118.646 3.42791C118.515 1.24197 118.325 1.17411 110.505 0.51433C102.375 -0.17199 102.85 -0.172263 101.96 0.518435ZM103.902 23.7789L103.171 24.3459V61.8165V99.2869H100.12H97.0694V74.509V49.7309L96.3885 49.0594L95.7079 48.3876H85.5594H75.4109L74.7303 49.0594L74.0494 49.7309V74.509V99.2869H70.9985H67.9477V67.9537C67.9477 37.12 67.9391 36.6121 67.3999 36.0801C67.0987 35.7829 66.5684 35.4701 66.2212 35.3847C65.8742 35.2993 61.2422 35.2654 55.9279 35.3092L46.2659 35.3891L45.5967 36.157L44.9277 36.9248V68.1059V99.2869H41.8768H38.826V80.2681C38.826 61.6958 38.8132 61.2366 38.2782 60.7088C37.977 60.4116 37.4467 60.0988 37.0995 60.0134C36.7525 59.928 32.1347 59.8941 26.8381 59.9379C17.2371 60.0175 17.2055 60.0197 16.5762 60.6409L15.9447 61.2643L15.8698 80.2754L15.7949 99.2869H12.913C8.48647 99.2869 5.48388 100.406 3.12114 102.935C0.489094 105.752 0.00456481 107.62 0.000404565 114.966C-0.00292363 120.645 -0.00153685 120.658 0.677969 121.328L1.35858 122H70.9985H140.638L141.319 121.328C141.997 120.659 142 120.635 142 115.092C142 107.698 141.471 105.679 138.791 102.853C136.421 100.352 133.527 99.2954 129.034 99.2902L126.191 99.2869V62.0491V24.8114L125.38 24.0115L124.57 23.2116H114.601C104.936 23.2116 104.61 23.2288 103.902 23.7789ZM121.753 63.4384V99.2869H114.681H107.609V63.4384V27.59H114.681H121.753V63.4384ZM63.5101 69.4588V99.2869H56.4377H49.3653V69.4588V39.6307H56.4377H63.5101V69.4588ZM92.6318 76.0265V99.2869H85.5594H78.487V76.0265V52.766H85.5594H92.6318V76.0265ZM34.3884 81.7731V99.2869H27.316H20.2436V81.9557C20.2436 72.4233 20.3268 64.5421 20.4286 64.4419C20.5301 64.3415 23.7127 64.2594 27.501 64.2594H34.3884V81.7731ZM133.541 104.394C134.85 105.092 136.188 106.435 136.905 107.77C137.331 108.563 137.436 109.495 137.515 113.175L137.61 117.622H70.9985H4.38696L4.48237 113.175C4.56142 109.495 4.66653 108.563 5.09199 107.77C6.08351 105.923 7.79143 104.497 9.70264 103.92C10.0848 103.804 37.8553 103.731 71.4146 103.756L132.431 103.802L133.541 104.394Z" fill="url(#paint0_linear_65_849)"/>
<defs>
<linearGradient id="paint0_linear_65_849" x1="5.28991e-07" y1="61" x2="142" y2="61" gradientUnits="userSpaceOnUse">
<stop stop-color="#874FFF"/>
<stop offset="0.515625" stop-color="#FF6068"/>
<stop offset="1" stop-color="#FEB14B"/>
</linearGradient>
</defs>
</svg>
