<svg width="131" height="132" viewBox="0 0 131 132" fill="none" xmlns="http://www.w3.org/2000/svg">
<path fill-rule="evenodd" clip-rule="evenodd" d="M59.462 0.232797C54.1123 0.762285 48.3697 2.04395 43.536 3.78723C40.5905 4.8493 36.5249 6.63181 35.0505 7.50707L34.1726 8.0283L33.3553 7.26426C29.226 3.40405 23.6086 1.5511 18.2668 2.28701C9.81524 3.45153 3.31474 9.99298 2.15752 18.4978C1.44082 23.7661 3.23397 29.391 6.95 33.5299L7.80234 34.4795L6.6505 36.8085C3.5191 43.1399 1.36774 50.3535 0.324627 58.0172C-0.108209 61.1995 -0.108209 70.833 0.324627 74.0154C1.36723 81.6762 3.51936 88.8929 6.64717 95.2176L7.79593 97.5402L6.51717 98.9839C4.99634 100.701 3.45115 103.598 2.63189 106.27C1.86751 108.762 1.79853 113.256 2.48522 115.817C4.27657 122.496 9.3965 127.65 15.9988 129.421C18.5517 130.106 23.0232 130.034 25.4753 129.268C28.1993 128.418 30.6168 127.124 32.5268 125.493L34.1808 124.081L36.479 125.233C54.4761 134.246 76.6134 134.257 94.4125 125.261L96.7769 124.066L98.4398 125.486C100.364 127.129 102.785 128.423 105.5 129.262C107.97 130.025 112.453 130.101 114.977 129.422C121.586 127.645 126.726 122.468 128.484 115.817C129.015 113.807 129.084 108.792 128.605 107.044C127.731 103.859 126.215 100.944 124.345 98.8515L123.178 97.5446L124.305 95.2628C128.904 85.9531 131 76.7962 131 66.0163C131 55.2345 128.904 46.0797 124.303 36.7654L123.173 34.4795L124.026 33.5299C126.101 31.2189 127.759 28.0812 128.439 25.1802C128.93 23.0813 128.923 18.6098 128.425 16.4735C127.203 11.2421 123.382 6.49892 118.438 4.0801C115.742 2.76025 113.462 2.25321 110.264 2.26121C105.445 2.27308 101.337 3.86722 97.7708 7.10969L96.8272 7.9674L94.5556 6.83101C89.2128 4.15829 83.4662 2.20212 77.796 1.1256C72.3114 0.084427 64.7021 -0.286111 59.462 0.232797ZM74.2061 4.73551C80.6735 5.71579 88.0943 8.05668 93.4632 10.8104L94.3863 11.2839L93.6609 12.805C92.386 15.478 92.0262 17.2925 92.038 20.9891C92.048 24.0639 92.1152 24.532 92.8419 26.6042C93.9486 29.7595 95.0361 31.4904 97.417 33.886C99.7976 36.2819 101.518 37.3762 104.653 38.4899C106.712 39.2211 107.178 39.2887 110.233 39.2988C113.907 39.3107 115.71 38.9487 118.366 37.6657L119.878 36.9357L120.348 37.8646C123.124 43.3456 125.406 50.7166 126.429 57.5011C127.047 61.6039 127.047 70.4287 126.429 74.5314C125.406 81.316 123.124 88.687 120.348 94.1679L119.878 95.0968L118.366 94.3669C115.71 93.0839 113.907 92.7219 110.233 92.7338C107.178 92.7438 106.712 92.8114 104.653 93.5427C101.51 94.6592 99.7835 95.7556 97.4113 98.1417C95.0725 100.494 93.7253 102.652 92.7404 105.625C92.1311 107.463 92.0555 108.085 92.0503 111.301C92.0452 114.593 92.108 115.097 92.7575 116.978C93.1496 118.114 93.6899 119.419 93.9578 119.881L94.4453 120.718L93.4927 121.207C88.0215 124.013 80.7286 126.303 73.9497 127.344C69.8667 127.971 61.1089 127.971 57.026 127.344C50.247 126.303 42.9542 124.013 37.4829 121.207L36.5303 120.718L37.0178 119.881C37.2857 119.419 37.826 118.114 38.2181 116.978C38.8676 115.097 38.9304 114.593 38.9253 111.301C38.9202 108.085 38.8445 107.463 38.2353 105.625C37.2504 102.653 35.9034 100.495 33.5643 98.1409C31.2253 95.7871 29.0806 94.4316 26.1274 93.4405C24.3006 92.8274 23.6829 92.7513 20.4861 92.7461C17.215 92.741 16.7142 92.8042 14.8449 93.4578C13.7167 93.8523 12.4189 94.396 11.9607 94.6657L11.1281 95.1562L10.6424 94.1976C7.85414 88.6919 5.57841 81.3531 4.54401 74.5314C3.92117 70.4227 3.92117 61.6098 4.54401 57.5011C5.57841 50.6794 7.85414 43.3407 10.6424 37.835L11.1281 36.8764L11.9607 37.3669C12.4189 37.6365 13.7167 38.1802 14.8449 38.5748C16.7142 39.2284 17.215 39.2916 20.4861 39.2864C23.6829 39.2813 24.3006 39.2051 26.1274 38.592C29.0806 37.6009 31.2253 36.2455 33.5643 33.8917C35.9034 31.5379 37.2504 29.3797 38.2353 26.4079C38.8445 24.5696 38.9202 23.948 38.9253 20.7311C38.9304 17.4394 38.8676 16.9354 38.2181 15.0543C37.826 13.919 37.2857 12.6131 37.0178 12.152L36.5303 11.3141L37.4829 10.8254C44.1029 7.43017 52.762 4.99484 60.8723 4.24679C63.2041 4.03185 71.5919 4.33917 74.2061 4.73551ZM23.5086 6.53221C28.8147 7.66369 33.2138 11.9672 34.5836 17.3663C36.8634 26.3524 29.7824 35.3101 20.3992 35.3101C16.5916 35.3101 13.219 33.8476 10.3355 30.9457C5.74534 26.3266 4.74377 19.9887 7.67798 14.1257C9.68292 10.1194 13.4915 7.35534 18.4348 6.31959C19.5584 6.084 21.8588 6.18051 23.5086 6.53221ZM113.31 6.54021C121.115 8.18931 126.253 15.952 124.629 23.642C123.473 29.1183 119.253 33.525 113.833 34.9174C104.903 37.2116 96.0018 30.0859 96.0018 20.6436C96.0018 16.8054 97.4575 13.4104 100.339 10.5284C103.998 6.86817 108.423 5.50781 113.31 6.54021ZM83.0051 30.6593C81.8402 31.1482 81.5041 33.0608 82.4328 33.9154C82.7482 34.2057 83.6511 34.5128 84.6362 34.665L86.3053 34.923L80.5932 39.8257C77.4519 42.5222 74.6877 44.869 74.4507 45.0409C74.0904 45.302 72.695 44.7632 65.9314 41.7509C61.4831 39.7695 57.6029 38.1485 57.3091 38.1485C57.0155 38.1485 55.7064 39.0526 54.4005 40.1578C53.0943 41.2627 49.8334 44.0134 47.1538 46.2701C39.0056 53.1326 38.5637 53.5558 38.5637 54.4994C38.5637 56.0466 39.841 57.0212 41.1744 56.4917C41.5013 56.3616 45.2883 53.2724 49.5898 49.6264C53.8912 45.9806 57.5465 42.9423 57.7129 42.8749C57.8791 42.8073 61.5618 44.3289 65.8968 46.2559C70.4698 48.289 74.1104 49.7598 74.5692 49.7593C75.2292 49.7588 76.4734 48.7991 82.091 43.9569L88.822 38.1552V39.9581C88.822 42.0433 89.3013 42.7931 90.6339 42.7931C92.5093 42.7931 92.7629 42.1885 93.1894 36.6994C93.6094 31.293 93.6745 31.3813 88.9456 30.9423C87.2558 30.7854 85.3539 30.6048 84.7193 30.5408C84.0847 30.4766 83.3134 30.53 83.0051 30.6593ZM84.5544 44.8553C83.1328 45.4326 83.1808 44.7733 83.1808 63.7515V81.2404H81.7705H80.3602V69.7379V58.2355L79.6106 57.4813L78.8611 56.727H73.8758C69.2267 56.727 68.8451 56.7629 68.2174 57.2599L67.5443 57.7924L67.4776 69.452L67.411 81.1113L65.9366 81.1887L64.4621 81.2662V66.5334V51.8009L63.8326 51.1676C63.2062 50.537 63.1795 50.5342 58.0516 50.5342C52.9238 50.5342 52.8971 50.537 52.2707 51.1676L51.6412 51.8009V66.5334V81.2662L50.1667 81.1887L48.6923 81.1113L48.6246 72.351C48.5585 63.7752 48.5454 63.5784 48.0031 62.9973C47.4613 62.4169 47.3377 62.4038 42.3862 62.4038C39.6017 62.4038 37.1368 62.476 36.9086 62.564C35.8329 62.9795 35.7431 63.7683 35.7431 72.8101V81.4357L34.9236 81.7773C33.6369 82.3138 32.382 83.5725 31.7304 84.9801C31.1999 86.1265 31.1322 86.6552 31.1301 89.6722C31.1276 93.0395 31.1342 93.0777 31.8032 93.6072C32.4789 94.1421 32.4812 94.1421 65.534 94.1421H98.5893L99.2186 93.5086C99.8219 92.9015 99.8478 92.7389 99.8424 89.5736C99.8378 86.8121 99.7514 86.0821 99.3145 85.1109C98.7183 83.7856 97.7331 82.6531 96.7069 82.1138L96.0018 81.7433V63.9285C96.0018 52.8015 95.9077 45.9365 95.7507 45.6416C95.6128 45.382 95.134 45.0414 94.6869 44.8845C93.7261 44.5475 85.3716 44.5232 84.5544 44.8553ZM91.8991 64.9841V81.2404H89.5913H87.2835V65.1562C87.2835 56.3098 87.3604 48.9945 87.4545 48.9C87.5484 48.8053 88.5869 48.7279 89.7623 48.7279H91.8991V64.9841ZM60.3594 67.9515V81.2404H58.0516H55.7439V67.9515V54.6627H58.0516H60.3594V67.9515ZM76.2574 71.048V81.2404H73.9497H71.6419V71.048V60.8556H73.9497H76.2574V71.048ZM44.4614 73.8864V81.2404H42.1536H39.8458V73.8864V66.5323H42.1536H44.4614V73.8864ZM94.5443 85.669C95.4894 86.1755 95.7287 86.7239 95.7371 88.4008L95.7454 90.0135H65.4878H35.2303L35.2385 88.4008C35.2467 86.7535 35.4785 86.2031 36.3842 85.6806C37.1252 85.2528 93.7468 85.2417 94.5443 85.669ZM23.9214 97.1191C30.3316 98.6397 34.9739 104.633 34.9739 111.389C34.9739 118.024 30.0085 124.114 23.4604 125.51C21.3041 125.97 19.9084 125.966 17.6655 125.492C14.8944 124.907 12.3043 123.499 10.3506 121.516C5.87022 116.967 4.80505 110.535 7.57874 104.778C8.71058 102.428 11.6689 99.4274 13.9474 98.3174C17.1955 96.7348 20.5846 96.3277 23.9214 97.1191ZM113.833 97.1152C116.566 97.8173 118.536 98.9687 120.628 101.087C125.526 106.046 126.299 112.962 122.638 119.062C119.684 123.982 113.261 126.745 107.597 125.531C103.906 124.74 100.268 122.242 98.2908 119.142C96.4067 116.187 95.5879 111.958 96.2395 108.545C97.2677 103.158 101.727 98.4002 106.937 97.1312C108.948 96.6412 111.962 96.6342 113.833 97.1152Z" fill="url(#paint0_linear_65_788)"/>
<defs>
<linearGradient id="paint0_linear_65_788" x1="4.88013e-07" y1="66" x2="131" y2="66" gradientUnits="userSpaceOnUse">
<stop stop-color="#874FFF"/>
<stop offset="0.515625" stop-color="#FF6068"/>
<stop offset="1" stop-color="#FEB14B"/>
</linearGradient>
</defs>
</svg>
