<svg width="60" height="45" viewBox="0 0 60 45" fill="none" xmlns="http://www.w3.org/2000/svg">
<path fill-rule="evenodd" clip-rule="evenodd" d="M22.1583 0.088474C16.9519 0.209208 10.5911 0.517789 9.01072 0.72634C6.83284 1.01375 5.32828 1.6615 3.8501 2.94817C2.3195 4.28031 1.47471 5.80577 0.820839 8.41784C0.181663 10.9714 0 14.0942 0 22.5266C0 32.5176 0.290892 35.8674 1.40054 38.6555C2.68132 41.8738 5.06562 43.6503 8.85173 44.2074C10.7837 44.4917 12.7032 44.6109 18.5713 44.8111C27.9501 45.1311 38.1065 45.0417 46.6107 44.5645C51.0169 44.3172 51.8805 44.1685 53.4419 43.3879C55.5507 42.3338 56.9388 40.7254 57.8108 38.3259C58.8795 35.3855 59.1176 32.5067 59.1176 22.5266C59.1176 12.9195 58.8655 9.6332 57.9181 6.89249C56.8896 3.91683 54.8331 1.93996 51.8731 1.08156C50.6259 0.71971 49.2791 0.583623 44.8372 0.37007C37.1468 0.000540763 29.8549 -0.090068 22.1583 0.088474ZM36.3034 3.57289C42.8986 3.72631 49.4656 4.07793 50.5648 4.33649C51.5345 4.5647 52.2289 4.90132 53.0095 5.5215C53.7618 6.11936 54.2286 6.86679 54.6613 8.16683C55.4491 10.5335 55.658 13.6158 55.6501 22.7592C55.6419 32.2572 55.4293 34.8207 54.4347 37.4132C53.6992 39.3304 52.387 40.3853 50.2252 40.7974C49.4945 40.9368 44.5703 41.2091 39.746 41.377C34.8449 41.5476 25.4891 41.5505 20.3069 41.383C9.80587 41.0436 8.08481 40.8389 6.43897 39.7341C5.51017 39.1107 4.98127 38.3562 4.5064 36.9779C3.69216 34.6138 3.47127 31.5306 3.47127 22.5266C3.47127 13.6127 3.67688 10.6915 4.47273 8.29885C4.91439 6.97089 5.23699 6.40933 5.93552 5.7525C7.30412 4.46572 8.20203 4.21134 12.2073 3.97569C19.7318 3.533 28.3738 3.38842 36.3034 3.57289ZM23.4786 12.5728C22.9395 12.8088 22.3189 13.5165 22.1674 14.068C22.0693 14.425 22.0417 16.6451 22.0665 22.1969L22.1004 29.8345L22.4526 30.3388C22.9462 31.0453 23.6607 31.4213 24.4915 31.4114C25.1254 31.4039 25.3699 31.2833 31.8969 27.7597C35.6093 25.7556 38.795 24.0068 38.9763 23.8738C39.5134 23.479 39.88 22.7378 39.8856 22.0348C39.8919 21.2376 39.6479 20.6747 39.094 20.2085C38.848 20.0013 36.2256 18.4981 33.2663 16.8678C24.8995 12.2584 25.1924 12.4066 24.4624 12.4118C24.1179 12.4144 23.6752 12.4868 23.4786 12.5728ZM30.7838 19.4838C33.0141 20.7083 34.9272 21.776 35.035 21.8566C35.2048 21.9833 34.5816 22.3539 30.4358 24.5912C27.7984 26.0146 25.6119 27.1792 25.5771 27.1792C25.5423 27.1792 25.5138 24.7926 25.5138 21.8758V16.5724L26.1213 16.9149C26.4553 17.1034 28.5535 18.2594 30.7838 19.4838Z" fill="url(#paint0_linear_65_694)"/>
<defs>
<linearGradient id="paint0_linear_65_694" x1="2.2023e-07" y1="22.5" x2="59.1176" y2="22.5" gradientUnits="userSpaceOnUse">
<stop stop-color="#874FFF"/>
<stop offset="0.515625" stop-color="#FF6068"/>
<stop offset="1" stop-color="#FEB14B"/>
</linearGradient>
</defs>
</svg>
